<svg width="246" height="266" xmlns="http://www.w3.org/2000/svg" xmlns:xlink="http://www.w3.org/1999/xlink" overflow="hidden"><defs><clipPath id="clip0"><rect x="159" y="100" width="246" height="266"/></clipPath></defs><g clip-path="url(#clip0)" transform="translate(-159 -100)"><path d="M256.5 143.5 272.5 143.5 272.5 199.5 360.5 199.5 360.5 319.5 168.5 319.5 168.5 199.5 256.5 199.5Z" stroke="#2C2C2C" stroke-width="1.33333" stroke-miterlimit="8" fill="none" fill-rule="evenodd"/><path d="M279.167 165 297.833 165 297.833 166 279.167 166ZM280.5 169.5 272.5 165.5 280.5 161.5ZM296.5 161.5 304.5 165.5 296.5 169.5Z" fill="#3F3F3F"/><text font-family="LM Roman 12,LM Roman 12_MSFontService,sans-serif" font-weight="400" font-size="15" transform="translate(283.867 161)">d</text><path d="M0.500027 6.66666 0.500078 19.0661-0.499922 19.0661-0.499973 6.66667ZM-3.99997 8.00002 0 0 4.00003 7.99998ZM4.00007 17.7328 0.000104987 25.7328-3.99993 17.7328Z" fill="#3F3F3F" transform="matrix(1 0 0 -1 312.5 199.233)"/><path d="M0.500027 6.66666 0.500078 19.0661-0.499922 19.0661-0.499973 6.66667ZM-3.99997 8.00002 0 0 4.00003 7.99998ZM4.00007 17.7328 0.000104987 25.7328-3.99993 17.7328Z" fill="#3F3F3F" transform="matrix(1 0 0 -1 264.5 143.233)"/><path d="M208.5 101.5 320.5 101.5 320.5 117.529 320.5 117.529 320.5 173.5 304.5 173.5 304.5 117.529 224.5 117.529 224.5 173.5 208.5 173.5 208.5 117.529 208.5 117.529Z" stroke="#2C2C2C" stroke-width="1.33333" stroke-miterlimit="8" fill="none" fill-rule="evenodd"/><text font-family="LM Roman 12,LM Roman 12_MSFontService,sans-serif" font-weight="400" font-size="15" transform="translate(319.576 191)">L<tspan font-size="10" x="9" y="3">x</tspan><tspan font-size="15" x="-47.919" y="-56">L</tspan><tspan font-size="10" x="-38.919" y="-53">x</tspan></text><path d="M252 149.167 252 166.845 251 166.845 251 149.167ZM247.5 150.5 251.5 142.5 255.5 150.5ZM255.5 165.512 251.5 173.512 247.5 165.512Z" fill="#3F3F3F"/><text font-family="LM Roman 12,LM Roman 12_MSFontService,sans-serif" font-weight="400" font-size="15" transform="translate(226.061 158)">L<tspan font-size="10" x="9" y="3">fov</tspan></text><path d="M231.167 193 249.833 193 249.833 194 231.167 194ZM232.5 197.5 224.5 193.5 232.5 189.5ZM248.5 189.5 256.5 193.5 248.5 197.5Z" fill="#3F3F3F"/><text font-family="LM Roman 12,LM Roman 12_MSFontService,sans-serif" font-weight="400" font-size="15" transform="translate(236.11 188)">d</text><path d="M353 150.167 353 193.578 352 193.578 352 150.167ZM348.5 151.5 352.5 143.5 356.5 151.5ZM356.5 192.245 352.5 200.245 348.5 192.245Z" fill="#3F3F3F"/><text font-family="LM Roman 12,LM Roman 12_MSFontService,sans-serif" font-weight="400" font-size="15" transform="translate(360.083 178)">L<tspan font-size="10" x="9" y="3">f</tspan></text><path d="M199 124.167 199 167.578 198 167.578 198 124.167ZM194.5 125.5 198.5 117.5 202.5 125.5ZM202.5 166.245 198.5 174.245 194.5 166.245Z" fill="#3F3F3F"/><text font-family="LM Roman 12,LM Roman 12_MSFontService,sans-serif" font-weight="400" font-size="15" transform="translate(179.615 151)">L<tspan font-size="10" x="9" y="3">f</tspan></text><path d="M369 207.167 369 313.089 368 313.089 368 207.167ZM364.5 208.5 368.5 200.5 372.5 208.5ZM372.5 311.755 368.5 319.755 364.5 311.755Z" fill="#3F3F3F"/><text font-family="LM Roman 12,LM Roman 12_MSFontService,sans-serif" font-weight="400" font-size="15" transform="translate(376.083 264)">L<tspan font-size="10" x="9" y="3">ca</tspan></text><path d="M175.166 333 353.833 333 353.833 334 175.166 334ZM176.5 337.5 168.5 333.5 176.5 329.5ZM352.5 329.5 360.5 333.5 352.5 337.5Z" fill="#3F3F3F"/><text font-family="LM Roman 12,LM Roman 12_MSFontService,sans-serif" font-weight="400" font-size="15" transform="translate(257.333 352)">L<tspan font-size="10" x="9" y="3">c</tspan></text></g></svg>