<svg width="338" height="273" xmlns="http://www.w3.org/2000/svg" xmlns:xlink="http://www.w3.org/1999/xlink" overflow="hidden"><defs><clipPath id="clip0"><rect x="79" y="45" width="338" height="273"/></clipPath></defs><g clip-path="url(#clip0)" transform="translate(-79 -45)"><path d="M153.5 71.5001 177.5 71.5002" stroke="#FF0000" stroke-width="5" stroke-linejoin="round" stroke-miterlimit="10" fill="none" fill-rule="evenodd"/><path d="M177.5 71.5001 177.5 95.5001" stroke="#FF0000" stroke-width="5" stroke-linejoin="round" stroke-miterlimit="10" fill="none" fill-rule="evenodd"/><path d="M177.5 95.5001 177.5 95.5002" stroke="#FF0000" stroke-width="5" stroke-linejoin="round" stroke-miterlimit="10" fill="none" fill-rule="evenodd"/><path d="M153.5 258.5 177.5 258.5" stroke="#FF0000" stroke-width="5" stroke-linejoin="round" stroke-miterlimit="10" fill="none" fill-rule="evenodd"/><path d="M177.5 258.5 177.5 258.5" stroke="#FF0000" stroke-width="5" stroke-linejoin="round" stroke-miterlimit="10" fill="none" fill-rule="evenodd"/><path d="M177.5 125.5 177.5 137.5" stroke="#FF0000" stroke-width="5" stroke-linejoin="round" stroke-miterlimit="10" fill="none" fill-rule="evenodd"/><path d="M177.5 137.5 177.5 137.5" stroke="#FF0000" stroke-width="5" stroke-linejoin="round" stroke-miterlimit="10" fill="none" fill-rule="evenodd"/><path d="M177.5 149.5 177.5 155.5" stroke="#000000" stroke-linejoin="round" stroke-miterlimit="10" fill="none" fill-rule="evenodd"/><path d="M177.5 149.5 177.5 149.5" stroke="#000000" stroke-linejoin="round" stroke-miterlimit="10" fill="none" fill-rule="evenodd"/><path d="M177.5 137.5 177.5 149.5" stroke="#000000" stroke-linejoin="round" stroke-miterlimit="10" fill="none" fill-rule="evenodd"/><path d="M177.5 185.5 177.5 197.5" stroke="#000000" stroke-linejoin="round" stroke-miterlimit="10" fill="none" fill-rule="evenodd"/><path d="M177.5 197.5 177.5 197.5" stroke="#000000" stroke-linejoin="round" stroke-miterlimit="10" fill="none" fill-rule="evenodd"/><path d="M273.5 185.5 273.5 185.5" stroke="#FF0000" stroke-width="5" stroke-linejoin="round" stroke-miterlimit="10" fill="none" fill-rule="evenodd"/><path d="M273.5 185.5 273.5 197.5" stroke="#FF0000" stroke-width="5" stroke-linejoin="round" stroke-miterlimit="10" fill="none" fill-rule="evenodd"/><path d="M177.5 137.5 279.5 137.5" stroke="#FF0000" stroke-width="5" stroke-linejoin="round" stroke-miterlimit="10" fill="none" fill-rule="evenodd"/><path d="M279.5 137.5 279.5 155.5" stroke="#FF0000" stroke-width="5" stroke-linejoin="round" stroke-miterlimit="10" fill="none" fill-rule="evenodd"/><path d="M273.5 203.5 273.5 209.5" stroke="#FF0000" stroke-width="5" stroke-linejoin="round" stroke-miterlimit="10" fill="none" fill-rule="evenodd"/><path d="M273.5 203.5 273.5 203.5" stroke="#FF0000" stroke-width="5" stroke-linejoin="round" stroke-miterlimit="10" fill="none" fill-rule="evenodd"/><path d="M273.5 197.5 273.5 203.5" stroke="#FF0000" stroke-width="5" stroke-linejoin="round" stroke-miterlimit="10" fill="none" fill-rule="evenodd"/><path d="M273.5 240.5 273.5 240.5" stroke="#FF0000" stroke-width="5" stroke-linejoin="round" stroke-miterlimit="10" fill="none" fill-rule="evenodd"/><path d="M273.5 240.5 273.5 258.5" stroke="#FF0000" stroke-width="5" stroke-linejoin="round" stroke-miterlimit="10" fill="none" fill-rule="evenodd"/><path d="M177.5 258.5 273.5 258.5" stroke="#FF0000" stroke-width="5" stroke-linejoin="round" stroke-miterlimit="10" fill="none" fill-rule="evenodd"/><path d="M177.5 240.5 177.5 258.5" stroke="#FF0000" stroke-width="5" stroke-linejoin="round" stroke-miterlimit="10" fill="none" fill-rule="evenodd"/><path d="M177.5 240.5 177.5 240.5" stroke="#FF0000" stroke-width="5" stroke-linejoin="round" stroke-miterlimit="10" fill="none" fill-rule="evenodd"/><path d="M177.5 197.5 177.5 197.5" stroke="#FF0000" stroke-width="5" stroke-linejoin="round" stroke-miterlimit="10" fill="none" fill-rule="evenodd"/><path d="M177.5 197.5 177.5 209.5" stroke="#FF0000" stroke-width="5" stroke-linejoin="round" stroke-miterlimit="10" fill="none" fill-rule="evenodd"/><path d="M273.5 197.5 273.5 197.5" stroke="#FF0000" stroke-width="5" stroke-linejoin="round" stroke-miterlimit="10" fill="none" fill-rule="evenodd"/><path d="M177.5 197.5 273.5 197.5" stroke="#FF0000" stroke-width="5" stroke-linejoin="round" stroke-miterlimit="10" fill="none" fill-rule="evenodd"/><path d="M352.5 71.5001 382.5 71.5002" stroke="#FF0000" stroke-width="5" stroke-linejoin="round" stroke-miterlimit="10" fill="none" fill-rule="evenodd"/><path d="M382.5 71.5001 382.5 125.5" stroke="#FF0000" stroke-width="5" stroke-linejoin="round" stroke-miterlimit="10" fill="none" fill-rule="evenodd"/><path d="M382.5 125.5 382.5 125.5" stroke="#FF0000" stroke-width="5" stroke-linejoin="round" stroke-miterlimit="10" fill="none" fill-rule="evenodd"/><path d="M352.5 258.5 376.5 258.5" stroke="#FF0000" stroke-width="5" stroke-linejoin="round" stroke-miterlimit="10" fill="none" fill-rule="evenodd"/><path d="M376.5 209.5 376.5 258.5" stroke="#FF0000" stroke-width="5" stroke-linejoin="round" stroke-miterlimit="10" fill="none" fill-rule="evenodd"/><path d="M376.5 209.5 376.5 209.5" stroke="#FF0000" stroke-width="5" stroke-linejoin="round" stroke-miterlimit="10" fill="none" fill-rule="evenodd"/><path d="M376.5 155.5 376.5 161.5" stroke="#FF0000" stroke-width="5" stroke-linejoin="round" stroke-miterlimit="10" fill="none" fill-rule="evenodd"/><path d="M376.5 161.5 376.5 161.5" stroke="#FF0000" stroke-width="5" stroke-linejoin="round" stroke-miterlimit="10" fill="none" fill-rule="evenodd"/><path d="M376.5 161.5 376.5 173.5" stroke="#FF0000" stroke-width="5" stroke-linejoin="round" stroke-miterlimit="10" fill="none" fill-rule="evenodd"/><text font-family="Arial,Arial_MSFontService,sans-serif" font-weight="400" font-size="12" transform="translate(122.667 65)">+24V</text><path d="M138.5 71.5001C138.5 69.8432 139.843 68.5001 141.5 68.5001 143.157 68.5001 144.5 69.8432 144.5 71.5001 144.5 73.1569 143.157 74.5001 141.5 74.5001 139.843 74.5001 138.5 73.1569 138.5 71.5001Z" stroke="#000000" stroke-linejoin="round" stroke-miterlimit="10" fill="none" fill-rule="evenodd"/><path d="M144.5 71.5001 153.5 71.5002" stroke="#000000" stroke-linejoin="round" stroke-miterlimit="10" fill="none" fill-rule="evenodd"/><text font-family="Arial,Arial_MSFontService,sans-serif" font-weight="400" font-size="12" transform="translate(132.833 252)">0V</text><path d="M138.5 258.5C138.5 256.843 139.843 255.5 141.5 255.5 143.157 255.5 144.5 256.843 144.5 258.5 144.5 260.157 143.157 261.5 141.5 261.5 139.843 261.5 138.5 260.157 138.5 258.5Z" stroke="#000000" stroke-linejoin="round" stroke-miterlimit="10" fill="none" fill-rule="evenodd"/><path d="M144.5 258.5 153.5 258.5" stroke="#000000" stroke-linejoin="round" stroke-miterlimit="10" fill="none" fill-rule="evenodd"/><text font-family="Arial,Arial_MSFontService,sans-serif" font-weight="400" font-size="12" transform="translate(124.667 115)">PARO</text><path d="M0 0 6 13" stroke="#000000" stroke-linejoin="round" stroke-miterlimit="10" fill="none" fill-rule="evenodd" transform="matrix(-1 0 0 1 183.5 103.5)"/><path d="M165.5 105.5 165.5 114.5" stroke="#000000" stroke-linejoin="round" stroke-miterlimit="10" fill="none" fill-rule="evenodd"/><path d="M165.5 110.5 170.5 110.5" stroke="#000000" stroke-linejoin="round" stroke-miterlimit="10" fill="none" fill-rule="evenodd"/><path d="M175.5 110.5 180.5 110.5" stroke="#000000" stroke-linejoin="round" stroke-miterlimit="10" fill="none" fill-rule="evenodd"/><path d="M177.5 110.5 180.5 110.5" stroke="#000000" stroke-linejoin="round" stroke-miterlimit="10" fill="none" fill-rule="evenodd"/><path d="M165.5 114.5 168.5 114.5" stroke="#000000" stroke-linejoin="round" stroke-miterlimit="10" fill="none" fill-rule="evenodd"/><path d="M177.5 116.5 177.5 125.5" stroke="#000000" stroke-linejoin="round" stroke-miterlimit="10" fill="none" fill-rule="evenodd"/><path d="M165.5 105.5 168.5 105.5" stroke="#000000" stroke-linejoin="round" stroke-miterlimit="10" fill="none" fill-rule="evenodd"/><path d="M177.5 95.5001 177.5 104.5" stroke="#000000" stroke-linejoin="round" stroke-miterlimit="10" fill="none" fill-rule="evenodd"/><path d="M177.5 104.5 184.5 104.5" stroke="#000000" stroke-linejoin="round" stroke-miterlimit="10" fill="none" fill-rule="evenodd"/><text font-family="Arial,Arial_MSFontService,sans-serif" font-weight="400" font-size="12" transform="translate(86.6667 176)">ARRANQUE</text><path d="M177.5 155.5 177.5 164.5" stroke="#000000" stroke-linejoin="round" stroke-miterlimit="10" fill="none" fill-rule="evenodd"/><path d="M171.5 163.5 177.5 176.5" stroke="#000000" stroke-linejoin="round" stroke-miterlimit="10" fill="none" fill-rule="evenodd"/><path d="M162.5 165.5 162.5 174.5" stroke="#000000" stroke-linejoin="round" stroke-miterlimit="10" fill="none" fill-rule="evenodd"/><path d="M177.5 176.5 177.5 185.5" stroke="#000000" stroke-linejoin="round" stroke-miterlimit="10" fill="none" fill-rule="evenodd"/><path d="M162.5 174.5 165.5 174.5" stroke="#000000" stroke-linejoin="round" stroke-miterlimit="10" fill="none" fill-rule="evenodd"/><path d="M162.5 170.5 167.5 170.5" stroke="#000000" stroke-linejoin="round" stroke-miterlimit="10" fill="none" fill-rule="evenodd"/><path d="M172.5 170.5 174.5 170.5" stroke="#000000" stroke-linejoin="round" stroke-miterlimit="10" fill="none" fill-rule="evenodd"/><path d="M171.5 170.5 174.5 170.5" stroke="#000000" stroke-linejoin="round" stroke-miterlimit="10" fill="none" fill-rule="evenodd"/><path d="M162.5 165.5 165.5 165.5" stroke="#000000" stroke-linejoin="round" stroke-miterlimit="10" fill="none" fill-rule="evenodd"/><text font-family="Arial,Arial_MSFontService,sans-serif" font-weight="400" font-size="12" transform="translate(243.5 176)">K1</text><path d="M283.5 154.5 283.5 164.5" stroke="#000000" stroke-linejoin="round" stroke-miterlimit="10" fill="none" fill-rule="evenodd"/><path d="M287.5 154.5 287.5 164.5" stroke="#000000" stroke-linejoin="round" stroke-miterlimit="10" fill="none" fill-rule="evenodd"/><path d="M0 0 4 3" stroke="#000000" stroke-linejoin="round" stroke-miterlimit="10" fill="none" fill-rule="evenodd" transform="matrix(-1 0 0 1 285.5 152.5)"/><path d="M285.5 152.5 289.5 155.5" stroke="#000000" stroke-linejoin="round" stroke-miterlimit="10" fill="none" fill-rule="evenodd"/><path d="M261.5 155.5 261.5 164.5" stroke="#000000" stroke-linejoin="round" stroke-miterlimit="10" fill="none" fill-rule="evenodd"/><path d="M261.5 164.5 268.5 164.5" stroke="#000000" stroke-linejoin="round" stroke-miterlimit="10" fill="none" fill-rule="evenodd"/><path d="M279.5 155.5 279.5 164.5" stroke="#000000" stroke-linejoin="round" stroke-miterlimit="10" fill="none" fill-rule="evenodd"/><path d="M273.5 176.5 273.5 185.5" stroke="#000000" stroke-linejoin="round" stroke-miterlimit="10" fill="none" fill-rule="evenodd"/><path d="M0 0 6 12" stroke="#000000" stroke-linejoin="round" stroke-miterlimit="10" fill="none" fill-rule="evenodd" transform="matrix(1 0 0 -1 273.5 176.5)"/><path d="M174.5 137.5C174.5 135.843 175.843 134.5 177.5 134.5 179.157 134.5 180.5 135.843 180.5 137.5 180.5 139.157 179.157 140.5 177.5 140.5 175.843 140.5 174.5 139.157 174.5 137.5Z" stroke="#000000" stroke-width="0" stroke-linejoin="round" stroke-miterlimit="10" fill-rule="evenodd"/><text font-family="Arial,Arial_MSFontService,sans-serif" font-weight="400" font-size="12" transform="translate(144.167 231)">K1</text><path d="M156.5 208.5 156.5 219.5" stroke="#000000" stroke-linejoin="round" stroke-miterlimit="10" fill="none" fill-rule="evenodd"/><path d="M161.5 208.5 161.5 219.5" stroke="#000000" stroke-linejoin="round" stroke-miterlimit="10" fill="none" fill-rule="evenodd"/><path d="M0 0 3 3" stroke="#000000" stroke-linejoin="round" stroke-miterlimit="10" fill="none" fill-rule="evenodd" transform="matrix(-1 0 0 1 158.5 206.5)"/><path d="M158.5 206.5 162.5 209.5" stroke="#000000" stroke-linejoin="round" stroke-miterlimit="10" fill="none" fill-rule="evenodd"/><path d="M165.5 231.5 189.5 231.5" stroke="#000000" stroke-linejoin="round" stroke-miterlimit="10" fill="none" fill-rule="evenodd"/><path d="M165.5 219.5 189.5 219.5" stroke="#000000" stroke-linejoin="round" stroke-miterlimit="10" fill="none" fill-rule="evenodd"/><path d="M177.5 231.5 177.5 240.5" stroke="#000000" stroke-linejoin="round" stroke-miterlimit="10" fill="none" fill-rule="evenodd"/><path d="M165.5 219.5 165.5 231.5" stroke="#000000" stroke-linejoin="round" stroke-miterlimit="10" fill="none" fill-rule="evenodd"/><path d="M177.5 209.5 177.5 219.5" stroke="#000000" stroke-linejoin="round" stroke-miterlimit="10" fill="none" fill-rule="evenodd"/><path d="M189.5 219.5 189.5 231.5" stroke="#000000" stroke-linejoin="round" stroke-miterlimit="10" fill="none" fill-rule="evenodd"/><path d="M273.5 209.5 273.5 219.5" stroke="#000000" stroke-linejoin="round" stroke-miterlimit="10" fill="none" fill-rule="evenodd"/><path d="M267.5 225.5C267.5 222.186 270.186 219.5 273.5 219.5 276.814 219.5 279.5 222.186 279.5 225.5 279.5 228.814 276.814 231.5 273.5 231.5 270.186 231.5 267.5 228.814 267.5 225.5Z" stroke="#000000" stroke-width="0" stroke-linejoin="round" stroke-miterlimit="10" fill="#FFFF00" fill-rule="evenodd"/><path d="M0 0 9 9" stroke="#000000" stroke-linejoin="round" stroke-miterlimit="10" fill="none" fill-rule="evenodd" transform="matrix(-1 0 0 1 277.5 220.5)"/><path d="M268.5 220.5 277.5 229.5" stroke="#000000" stroke-linejoin="round" stroke-miterlimit="10" fill="none" fill-rule="evenodd"/><path d="M273.5 231.5 273.5 240.5" stroke="#000000" stroke-linejoin="round" stroke-miterlimit="10" fill="none" fill-rule="evenodd"/><path d="M174.5 258.5C174.5 256.843 175.843 255.5 177.5 255.5 179.157 255.5 180.5 256.843 180.5 258.5 180.5 260.157 179.157 261.5 177.5 261.5 175.843 261.5 174.5 260.157 174.5 258.5Z" stroke="#000000" stroke-width="0" stroke-linejoin="round" stroke-miterlimit="10" fill-rule="evenodd"/><text font-family="Arial,Arial_MSFontService,sans-serif" font-weight="400" font-size="12" transform="translate(244.5 232)">H1</text><path d="M174.5 197.5C174.5 195.843 175.843 194.5 177.5 194.5 179.157 194.5 180.5 195.843 180.5 197.5 180.5 199.157 179.157 200.5 177.5 200.5 175.843 200.5 174.5 199.157 174.5 197.5Z" stroke="#000000" stroke-width="0" stroke-linejoin="round" stroke-miterlimit="10" fill-rule="evenodd"/><path d="M270.5 197.5C270.5 195.843 271.843 194.5 273.5 194.5 275.157 194.5 276.5 195.843 276.5 197.5 276.5 199.157 275.157 200.5 273.5 200.5 271.843 200.5 270.5 199.157 270.5 197.5Z" stroke="#000000" stroke-width="0" stroke-linejoin="round" stroke-miterlimit="10" fill-rule="evenodd"/><text font-family="Arial,Arial_MSFontService,sans-serif" font-weight="400" font-size="12" transform="translate(321.167 65)">+24V</text><path d="M337.5 71.5001C337.5 69.8432 338.843 68.5001 340.5 68.5001 342.157 68.5001 343.5 69.8432 343.5 71.5001 343.5 73.1569 342.157 74.5001 340.5 74.5001 338.843 74.5001 337.5 73.1569 337.5 71.5001Z" stroke="#000000" stroke-linejoin="round" stroke-miterlimit="10" fill="none" fill-rule="evenodd"/><path d="M343.5 71.5001 352.5 71.5002" stroke="#000000" stroke-linejoin="round" stroke-miterlimit="10" fill="none" fill-rule="evenodd"/><text font-family="Arial,Arial_MSFontService,sans-serif" font-weight="400" font-size="12" transform="translate(331.333 252)">0V</text><path d="M337.5 258.5C337.5 256.843 338.843 255.5 340.5 255.5 342.157 255.5 343.5 256.843 343.5 258.5 343.5 260.157 342.157 261.5 340.5 261.5 338.843 261.5 337.5 260.157 337.5 258.5Z" stroke="#000000" stroke-linejoin="round" stroke-miterlimit="10" fill="none" fill-rule="evenodd"/><path d="M343.5 258.5 352.5 258.5" stroke="#000000" stroke-linejoin="round" stroke-miterlimit="10" fill="none" fill-rule="evenodd"/><text font-family="Arial,Arial_MSFontService,sans-serif" font-weight="400" font-size="12" transform="translate(345.667 146)">K1</text><path d="M386.5 124.5 386.5 134.5" stroke="#000000" stroke-linejoin="round" stroke-miterlimit="10" fill="none" fill-rule="evenodd"/><path d="M390.5 124.5 390.5 134.5" stroke="#000000" stroke-linejoin="round" stroke-miterlimit="10" fill="none" fill-rule="evenodd"/><path d="M0 0 4 3" stroke="#000000" stroke-linejoin="round" stroke-miterlimit="10" fill="none" fill-rule="evenodd" transform="matrix(-1 0 0 1 388.5 122.5)"/><path d="M388.5 122.5 392.5 125.5" stroke="#000000" stroke-linejoin="round" stroke-miterlimit="10" fill="none" fill-rule="evenodd"/><path d="M364.5 125.5 364.5 134.5" stroke="#000000" stroke-linejoin="round" stroke-miterlimit="10" fill="none" fill-rule="evenodd"/><path d="M364.5 134.5 371.5 134.5" stroke="#000000" stroke-linejoin="round" stroke-miterlimit="10" fill="none" fill-rule="evenodd"/><path d="M382.5 125.5 382.5 134.5" stroke="#000000" stroke-linejoin="round" stroke-miterlimit="10" fill="none" fill-rule="evenodd"/><path d="M376.5 146.5 376.5 155.5" stroke="#000000" stroke-linejoin="round" stroke-miterlimit="10" fill="none" fill-rule="evenodd"/><path d="M0 0 6 12" stroke="#000000" stroke-linejoin="round" stroke-miterlimit="10" fill="none" fill-rule="evenodd" transform="matrix(1 0 0 -1 376.5 146.5)"/><text font-family="Arial,Arial_MSFontService,sans-serif" font-weight="400" font-size="12" transform="translate(393.833 197)">75</text><path d="M364.5 191.5C364.5 184.873 369.873 179.5 376.5 179.5 383.127 179.5 388.5 184.873 388.5 191.5 388.5 198.127 383.127 203.5 376.5 203.5 369.873 203.5 364.5 198.127 364.5 191.5Z" stroke="#000000" stroke-linejoin="round" stroke-miterlimit="10" fill="none" fill-rule="evenodd"/><path d="M376.5 203.5 376.5 209.5" stroke="#000000" stroke-linejoin="round" stroke-miterlimit="10" fill="none" fill-rule="evenodd"/><path d="M368.5 197.5 384.5 197.5" stroke="#000000" stroke-linejoin="round" stroke-miterlimit="10" fill="none" fill-rule="evenodd"/><path d="M0 0 1 4" stroke="#000000" stroke-linejoin="round" stroke-miterlimit="10" fill="none" fill-rule="evenodd" transform="matrix(-1 0 0 1 368.5 184.5)"/><path d="M0 0 3 3" stroke="#000000" stroke-linejoin="round" stroke-miterlimit="10" fill="none" fill-rule="evenodd" transform="matrix(-1 0 0 1 370.5 185.5)"/><path d="M370.5 185.5 368.5 184.5 367.5 188.5 370.5 185.5Z" stroke="#000000" stroke-width="0" stroke-linejoin="round" stroke-miterlimit="10" fill-rule="evenodd"/><path d="M368.5 186.479C370.263 183.992 373.217 182.5 376.379 182.5 379.7 182.5 382.78 184.146 384.5 186.84" stroke="#000000" stroke-linejoin="round" stroke-miterlimit="10" fill="none" fill-rule="evenodd"/><text font-family="Arial,Arial_MSFontService,sans-serif" font-weight="400" font-size="12" transform="translate(368.333 196)">M</text><path d="M376.5 173.5 376.5 179.5" stroke="#000000" stroke-linejoin="round" stroke-miterlimit="10" fill="none" fill-rule="evenodd"/><path d="M370.5 185.5 368.5 184.5" stroke="#000000" stroke-linejoin="round" stroke-miterlimit="10" fill="none" fill-rule="evenodd"/><text font-family="Arial,Arial_MSFontService,sans-serif" font-weight="400" font-size="12" transform="translate(171.167 63)">1<tspan font-size="12" x="96.3333" y="63">2</tspan></text><path d="M161.5 292.5 193.5 292.5" stroke="#000000" stroke-linejoin="round" stroke-miterlimit="10" fill="none" fill-rule="evenodd"/><path d="M187.5 267.5 187.5 274.5" stroke="#000000" stroke-linejoin="round" stroke-miterlimit="10" fill="none" fill-rule="evenodd"/><path d="M187.5 285.5 187.5 291.5" stroke="#000000" stroke-linejoin="round" stroke-miterlimit="10" fill="none" fill-rule="evenodd"/><path d="M181.5 273.5 187.5 285.5" stroke="#000000" stroke-linejoin="round" stroke-miterlimit="10" fill="none" fill-rule="evenodd"/><path d="M167.5 267.5 167.5 274.5" stroke="#000000" stroke-linejoin="round" stroke-miterlimit="10" fill="none" fill-rule="evenodd"/><path d="M167.5 285.5 167.5 291.5" stroke="#000000" stroke-linejoin="round" stroke-miterlimit="10" fill="none" fill-rule="evenodd"/><path d="M0 0 5 12" stroke="#000000" stroke-linejoin="round" stroke-miterlimit="10" fill="none" fill-rule="evenodd" transform="matrix(1 0 0 -1 167.5 285.5)"/><path d="M167.5 274.5 173.5 274.5" stroke="#000000" stroke-linejoin="round" stroke-miterlimit="10" fill="none" fill-rule="evenodd"/><text font-family="Arial,Arial_MSFontService,sans-serif" font-weight="400" font-size="12" transform="translate(180.167 308)">2<tspan font-size="12" x="-17" y="0">2</tspan></text></g></svg>