<svg width="320" height="281" xmlns="http://www.w3.org/2000/svg" xmlns:xlink="http://www.w3.org/1999/xlink" overflow="hidden"><defs><clipPath id="clip0"><rect x="113" y="34" width="320" height="281"/></clipPath></defs><g clip-path="url(#clip0)" transform="translate(-113 -34)"><path d="M186.5 56.5001 208.5 56.5002" stroke="#000000" stroke-linejoin="round" stroke-miterlimit="10" fill="none" fill-rule="evenodd"/><path d="M208.5 56.5001 208.5 80.5001" stroke="#000000" stroke-linejoin="round" stroke-miterlimit="10" fill="none" fill-rule="evenodd"/><path d="M208.5 80.5001 210.5 80.5002" stroke="#000000" stroke-linejoin="round" stroke-miterlimit="10" fill="none" fill-rule="evenodd"/><path d="M186.5 243.5 210.5 243.5" stroke="#000000" stroke-linejoin="round" stroke-miterlimit="10" fill="none" fill-rule="evenodd"/><path d="M210.5 243.5 210.5 243.5" stroke="#000000" stroke-linejoin="round" stroke-miterlimit="10" fill="none" fill-rule="evenodd"/><path d="M210.5 110.5 210.5 122.5" stroke="#000000" stroke-linejoin="round" stroke-miterlimit="10" fill="none" fill-rule="evenodd"/><path d="M210.5 122.5 210.5 122.5" stroke="#000000" stroke-linejoin="round" stroke-miterlimit="10" fill="none" fill-rule="evenodd"/><path d="M210.5 135.5 210.5 141.5" stroke="#000000" stroke-linejoin="round" stroke-miterlimit="10" fill="none" fill-rule="evenodd"/><path d="M210.5 135.5 210.5 135.5" stroke="#000000" stroke-linejoin="round" stroke-miterlimit="10" fill="none" fill-rule="evenodd"/><path d="M210.5 122.5 210.5 135.5" stroke="#000000" stroke-linejoin="round" stroke-miterlimit="10" fill="none" fill-rule="evenodd"/><path d="M210.5 171.5 210.5 183.5" stroke="#000000" stroke-linejoin="round" stroke-miterlimit="10" fill="none" fill-rule="evenodd"/><path d="M210.5 183.5 210.5 183.5" stroke="#000000" stroke-linejoin="round" stroke-miterlimit="10" fill="none" fill-rule="evenodd"/><path d="M307.5 171.5 307.5 171.5" stroke="#000000" stroke-linejoin="round" stroke-miterlimit="10" fill="none" fill-rule="evenodd"/><path d="M307.5 171.5 307.5 183.5" stroke="#000000" stroke-linejoin="round" stroke-miterlimit="10" fill="none" fill-rule="evenodd"/><path d="M210.5 122.5 313.5 122.5" stroke="#000000" stroke-linejoin="round" stroke-miterlimit="10" fill="none" fill-rule="evenodd"/><path d="M313.5 122.5 313.5 141.5" stroke="#000000" stroke-linejoin="round" stroke-miterlimit="10" fill="none" fill-rule="evenodd"/><path d="M307.5 189.5 307.5 195.5" stroke="#000000" stroke-linejoin="round" stroke-miterlimit="10" fill="none" fill-rule="evenodd"/><path d="M307.5 189.5 307.5 189.5" stroke="#000000" stroke-linejoin="round" stroke-miterlimit="10" fill="none" fill-rule="evenodd"/><path d="M307.5 183.5 307.5 189.5" stroke="#000000" stroke-linejoin="round" stroke-miterlimit="10" fill="none" fill-rule="evenodd"/><path d="M305.5 225.5 307.5 225.5" stroke="#000000" stroke-linejoin="round" stroke-miterlimit="10" fill="none" fill-rule="evenodd"/><path d="M305.5 225.5 305.5 243.5" stroke="#000000" stroke-linejoin="round" stroke-miterlimit="10" fill="none" fill-rule="evenodd"/><path d="M210.5 243.5 305.5 243.5" stroke="#000000" stroke-linejoin="round" stroke-miterlimit="10" fill="none" fill-rule="evenodd"/><path d="M210.5 225.5 210.5 243.5" stroke="#000000" stroke-linejoin="round" stroke-miterlimit="10" fill="none" fill-rule="evenodd"/><path d="M210.5 225.5 210.5 225.5" stroke="#000000" stroke-linejoin="round" stroke-miterlimit="10" fill="none" fill-rule="evenodd"/><path d="M210.5 183.5 210.5 183.5" stroke="#000000" stroke-linejoin="round" stroke-miterlimit="10" fill="none" fill-rule="evenodd"/><path d="M210.5 183.5 210.5 195.5" stroke="#000000" stroke-linejoin="round" stroke-miterlimit="10" fill="none" fill-rule="evenodd"/><path d="M307.5 183.5 307.5 183.5" stroke="#000000" stroke-linejoin="round" stroke-miterlimit="10" fill="none" fill-rule="evenodd"/><path d="M210.5 183.5 307.5 183.5" stroke="#000000" stroke-linejoin="round" stroke-miterlimit="10" fill="none" fill-rule="evenodd"/><path d="M385.5 56.5001 413.5 56.5002" stroke="#000000" stroke-linejoin="round" stroke-miterlimit="10" fill="none" fill-rule="evenodd"/><path d="M413.5 56.5001 413.5 110.5" stroke="#000000" stroke-linejoin="round" stroke-miterlimit="10" fill="none" fill-rule="evenodd"/><path d="M413.5 110.5 415.5 110.5" stroke="#000000" stroke-linejoin="round" stroke-miterlimit="10" fill="none" fill-rule="evenodd"/><path d="M385.5 243.5 407.5 243.5" stroke="#000000" stroke-linejoin="round" stroke-miterlimit="10" fill="none" fill-rule="evenodd"/><path d="M407.5 195.5 407.5 243.5" stroke="#000000" stroke-linejoin="round" stroke-miterlimit="10" fill="none" fill-rule="evenodd"/><path d="M407.5 195.5 409.5 195.5" stroke="#000000" stroke-linejoin="round" stroke-miterlimit="10" fill="none" fill-rule="evenodd"/><path d="M409.5 141.5 409.5 147.5" stroke="#000000" stroke-linejoin="round" stroke-miterlimit="10" fill="none" fill-rule="evenodd"/><path d="M409.5 147.5 409.5 147.5" stroke="#000000" stroke-linejoin="round" stroke-miterlimit="10" fill="none" fill-rule="evenodd"/><path d="M409.5 147.5 409.5 159.5" stroke="#000000" stroke-linejoin="round" stroke-miterlimit="10" fill="none" fill-rule="evenodd"/><text font-family="Arial,Arial_MSFontService,sans-serif" font-weight="400" font-size="12" transform="translate(155.667 50)">+24V</text><path d="M171.5 56.5001C171.5 54.8432 172.843 53.5001 174.5 53.5001 176.157 53.5001 177.5 54.8432 177.5 56.5001 177.5 58.1569 176.157 59.5001 174.5 59.5001 172.843 59.5001 171.5 58.1569 171.5 56.5001Z" stroke="#000000" stroke-linejoin="round" stroke-miterlimit="10" fill="none" fill-rule="evenodd"/><path d="M177.5 56.5001 186.5 56.5002" stroke="#000000" stroke-linejoin="round" stroke-miterlimit="10" fill="none" fill-rule="evenodd"/><text font-family="Arial,Arial_MSFontService,sans-serif" font-weight="400" font-size="12" transform="translate(165.833 237)">0V</text><path d="M171.5 243.5C171.5 241.843 172.843 240.5 174.5 240.5 176.157 240.5 177.5 241.843 177.5 243.5 177.5 245.157 176.157 246.5 174.5 246.5 172.843 246.5 171.5 245.157 171.5 243.5Z" stroke="#000000" stroke-linejoin="round" stroke-miterlimit="10" fill="none" fill-rule="evenodd"/><path d="M177.5 243.5 186.5 243.5" stroke="#000000" stroke-linejoin="round" stroke-miterlimit="10" fill="none" fill-rule="evenodd"/><text fill="#31586C" font-family="Arial,Arial_MSFontService,sans-serif" font-weight="400" font-size="12" transform="translate(157.667 100)">PARO</text><path d="M0 0 6 13" stroke="#000000" stroke-linejoin="round" stroke-miterlimit="10" fill="none" fill-rule="evenodd" transform="matrix(-1 0 0 1 216.5 88.5001)"/><path d="M198.5 90.5001 198.5 99.5001" stroke="#000000" stroke-linejoin="round" stroke-miterlimit="10" fill="none" fill-rule="evenodd"/><path d="M198.5 95.5001 203.5 95.5002" stroke="#000000" stroke-linejoin="round" stroke-miterlimit="10" fill="none" fill-rule="evenodd"/><path d="M208.5 95.5001 213.5 95.5002" stroke="#000000" stroke-linejoin="round" stroke-miterlimit="10" fill="none" fill-rule="evenodd"/><path d="M210.5 95.5001 213.5 95.5002" stroke="#000000" stroke-linejoin="round" stroke-miterlimit="10" fill="none" fill-rule="evenodd"/><path d="M198.5 99.5001 201.5 99.5002" stroke="#000000" stroke-linejoin="round" stroke-miterlimit="10" fill="none" fill-rule="evenodd"/><path d="M210.5 101.5 210.5 110.5" stroke="#000000" stroke-linejoin="round" stroke-miterlimit="10" fill="none" fill-rule="evenodd"/><path d="M198.5 90.5001 201.5 90.5002" stroke="#000000" stroke-linejoin="round" stroke-miterlimit="10" fill="none" fill-rule="evenodd"/><path d="M210.5 80.5001 210.5 89.5001" stroke="#000000" stroke-linejoin="round" stroke-miterlimit="10" fill="none" fill-rule="evenodd"/><path d="M210.5 89.5001 217.5 89.5002" stroke="#000000" stroke-linejoin="round" stroke-miterlimit="10" fill="none" fill-rule="evenodd"/><text fill="#31586C" font-family="Arial,Arial_MSFontService,sans-serif" font-weight="400" font-size="12" transform="translate(120.667 161)">ARRANQUE</text><path d="M210.5 141.5 210.5 150.5" stroke="#000000" stroke-linejoin="round" stroke-miterlimit="10" fill="none" fill-rule="evenodd"/><path d="M204.5 149.5 210.5 162.5" stroke="#000000" stroke-linejoin="round" stroke-miterlimit="10" fill="none" fill-rule="evenodd"/><path d="M195.5 151.5 195.5 160.5" stroke="#000000" stroke-linejoin="round" stroke-miterlimit="10" fill="none" fill-rule="evenodd"/><path d="M210.5 162.5 210.5 171.5" stroke="#000000" stroke-linejoin="round" stroke-miterlimit="10" fill="none" fill-rule="evenodd"/><path d="M195.5 160.5 198.5 160.5" stroke="#000000" stroke-linejoin="round" stroke-miterlimit="10" fill="none" fill-rule="evenodd"/><path d="M195.5 156.5 200.5 156.5" stroke="#000000" stroke-linejoin="round" stroke-miterlimit="10" fill="none" fill-rule="evenodd"/><path d="M205.5 156.5 207.5 156.5" stroke="#000000" stroke-linejoin="round" stroke-miterlimit="10" fill="none" fill-rule="evenodd"/><path d="M204.5 156.5 207.5 156.5" stroke="#000000" stroke-linejoin="round" stroke-miterlimit="10" fill="none" fill-rule="evenodd"/><path d="M195.5 151.5 198.5 151.5" stroke="#000000" stroke-linejoin="round" stroke-miterlimit="10" fill="none" fill-rule="evenodd"/><text font-family="Arial,Arial_MSFontService,sans-serif" font-weight="400" font-size="12" transform="translate(276.5 162)">K2</text><path d="M307.5 162.5 300.5 150.5" stroke="#000000" stroke-linejoin="round" stroke-miterlimit="10" fill="none" fill-rule="evenodd"/><path d="M295.5 141.5 295.5 150.5" stroke="#000000" stroke-linejoin="round" stroke-miterlimit="10" fill="none" fill-rule="evenodd"/><path d="M295.5 150.5 302.5 150.5" stroke="#000000" stroke-linejoin="round" stroke-miterlimit="10" fill="none" fill-rule="evenodd"/><path d="M313.5 141.5 313.5 150.5" stroke="#000000" stroke-linejoin="round" stroke-miterlimit="10" fill="none" fill-rule="evenodd"/><path d="M307.5 162.5 307.5 171.5" stroke="#000000" stroke-linejoin="round" stroke-miterlimit="10" fill="none" fill-rule="evenodd"/><path d="M207.5 122.5C207.5 120.843 208.843 119.5 210.5 119.5 212.157 119.5 213.5 120.843 213.5 122.5 213.5 124.157 212.157 125.5 210.5 125.5 208.843 125.5 207.5 124.157 207.5 122.5Z" stroke="#000000" stroke-width="0" stroke-linejoin="round" stroke-miterlimit="10" fill-rule="evenodd"/><text font-family="Arial,Arial_MSFontService,sans-serif" font-weight="400" font-size="12" transform="translate(177.167 216)">K2</text><path d="M198.5 216.5 222.5 216.5" stroke="#000000" stroke-linejoin="round" stroke-miterlimit="10" fill="none" fill-rule="evenodd"/><path d="M198.5 204.5 222.5 204.5" stroke="#000000" stroke-linejoin="round" stroke-miterlimit="10" fill="none" fill-rule="evenodd"/><path d="M210.5 216.5 210.5 225.5" stroke="#000000" stroke-linejoin="round" stroke-miterlimit="10" fill="none" fill-rule="evenodd"/><path d="M198.5 204.5 198.5 216.5" stroke="#000000" stroke-linejoin="round" stroke-miterlimit="10" fill="none" fill-rule="evenodd"/><path d="M210.5 195.5 210.5 204.5" stroke="#000000" stroke-linejoin="round" stroke-miterlimit="10" fill="none" fill-rule="evenodd"/><path d="M222.5 204.5 222.5 216.5" stroke="#000000" stroke-linejoin="round" stroke-miterlimit="10" fill="none" fill-rule="evenodd"/><path d="M307.5 195.5 307.5 204.5" stroke="#000000" stroke-linejoin="round" stroke-miterlimit="10" fill="none" fill-rule="evenodd"/><path d="M301.5 210.5C301.5 207.186 304.186 204.5 307.5 204.5 310.814 204.5 313.5 207.186 313.5 210.5 313.5 213.814 310.814 216.5 307.5 216.5 304.186 216.5 301.5 213.814 301.5 210.5Z" stroke="#000000" stroke-linejoin="round" stroke-miterlimit="10" fill="none" fill-rule="evenodd"/><path d="M0 0 9 9" stroke="#000000" stroke-linejoin="round" stroke-miterlimit="10" fill="none" fill-rule="evenodd" transform="matrix(-1 0 0 1 311.5 205.5)"/><path d="M302.5 205.5 311.5 214.5" stroke="#000000" stroke-linejoin="round" stroke-miterlimit="10" fill="none" fill-rule="evenodd"/><path d="M307.5 216.5 307.5 225.5" stroke="#000000" stroke-linejoin="round" stroke-miterlimit="10" fill="none" fill-rule="evenodd"/><path d="M207.5 243.5C207.5 241.843 208.843 240.5 210.5 240.5 212.157 240.5 213.5 241.843 213.5 243.5 213.5 245.157 212.157 246.5 210.5 246.5 208.843 246.5 207.5 245.157 207.5 243.5Z" stroke="#000000" stroke-width="0" stroke-linejoin="round" stroke-miterlimit="10" fill-rule="evenodd"/><text font-family="Arial,Arial_MSFontService,sans-serif" font-weight="400" font-size="12" transform="translate(277.5 217)">H1</text><path d="M207.5 183.5C207.5 181.843 208.843 180.5 210.5 180.5 212.157 180.5 213.5 181.843 213.5 183.5 213.5 185.157 212.157 186.5 210.5 186.5 208.843 186.5 207.5 185.157 207.5 183.5Z" stroke="#000000" stroke-width="0" stroke-linejoin="round" stroke-miterlimit="10" fill-rule="evenodd"/><path d="M304.5 183.5C304.5 181.843 305.843 180.5 307.5 180.5 309.157 180.5 310.5 181.843 310.5 183.5 310.5 185.157 309.157 186.5 307.5 186.5 305.843 186.5 304.5 185.157 304.5 183.5Z" stroke="#000000" stroke-width="0" stroke-linejoin="round" stroke-miterlimit="10" fill-rule="evenodd"/><text font-family="Arial,Arial_MSFontService,sans-serif" font-weight="400" font-size="12" transform="translate(354.167 50)">+240V</text><path d="M370.5 56.5001C370.5 54.8432 371.843 53.5001 373.5 53.5001 375.157 53.5001 376.5 54.8432 376.5 56.5001 376.5 58.1569 375.157 59.5001 373.5 59.5001 371.843 59.5001 370.5 58.1569 370.5 56.5001Z" stroke="#000000" stroke-linejoin="round" stroke-miterlimit="10" fill="none" fill-rule="evenodd"/><path d="M376.5 56.5001 385.5 56.5002" stroke="#000000" stroke-linejoin="round" stroke-miterlimit="10" fill="none" fill-rule="evenodd"/><text font-family="Arial,Arial_MSFontService,sans-serif" font-weight="400" font-size="12" transform="translate(364.334 237)">0V</text><path d="M370.5 243.5C370.5 241.843 371.843 240.5 373.5 240.5 375.157 240.5 376.5 241.843 376.5 243.5 376.5 245.157 375.157 246.5 373.5 246.5 371.843 246.5 370.5 245.157 370.5 243.5Z" stroke="#000000" stroke-linejoin="round" stroke-miterlimit="10" fill="none" fill-rule="evenodd"/><path d="M376.5 243.5 385.5 243.5" stroke="#000000" stroke-linejoin="round" stroke-miterlimit="10" fill="none" fill-rule="evenodd"/><text font-family="Arial,Arial_MSFontService,sans-serif" font-weight="400" font-size="12" transform="translate(378.667 132)">K2</text><path d="M409.5 132.5 402.5 119.5" stroke="#000000" stroke-linejoin="round" stroke-miterlimit="10" fill="none" fill-rule="evenodd"/><path d="M397.5 110.5 397.5 119.5" stroke="#000000" stroke-linejoin="round" stroke-miterlimit="10" fill="none" fill-rule="evenodd"/><path d="M397.5 119.5 404.5 119.5" stroke="#000000" stroke-linejoin="round" stroke-miterlimit="10" fill="none" fill-rule="evenodd"/><path d="M415.5 110.5 415.5 119.5" stroke="#000000" stroke-linejoin="round" stroke-miterlimit="10" fill="none" fill-rule="evenodd"/><path d="M409.5 132.5 409.5 141.5" stroke="#000000" stroke-linejoin="round" stroke-miterlimit="10" fill="none" fill-rule="evenodd"/><path d="M397.5 177.5C397.5 170.873 402.873 165.5 409.5 165.5 416.127 165.5 421.5 170.873 421.5 177.5 421.5 184.127 416.127 189.5 409.5 189.5 402.873 189.5 397.5 184.127 397.5 177.5Z" stroke="#000000" stroke-linejoin="round" stroke-miterlimit="10" fill="none" fill-rule="evenodd"/><path d="M409.5 189.5 409.5 195.5" stroke="#000000" stroke-linejoin="round" stroke-miterlimit="10" fill="none" fill-rule="evenodd"/><path d="M409.5 159.5 409.5 165.5" stroke="#000000" stroke-linejoin="round" stroke-miterlimit="10" fill="none" fill-rule="evenodd"/><path d="M401.5 183.5 417.5 183.5" stroke="#000000" stroke-linejoin="round" stroke-miterlimit="10" fill="none" fill-rule="evenodd"/><text font-family="Arial,Arial_MSFontService,sans-serif" font-weight="400" font-size="12" transform="translate(401.334 182)">M</text><path d="M194.5 277.5 226.5 277.5" stroke="#000000" stroke-linejoin="round" stroke-miterlimit="10" fill="none" fill-rule="evenodd"/><path d="M220.5 252.5 220.5 259.5" stroke="#000000" stroke-linejoin="round" stroke-miterlimit="10" fill="none" fill-rule="evenodd"/><path d="M220.5 270.5 220.5 276.5" stroke="#000000" stroke-linejoin="round" stroke-miterlimit="10" fill="none" fill-rule="evenodd"/><path d="M214.5 258.5 220.5 270.5" stroke="#000000" stroke-linejoin="round" stroke-miterlimit="10" fill="none" fill-rule="evenodd"/><path d="M200.5 252.5 200.5 259.5" stroke="#000000" stroke-linejoin="round" stroke-miterlimit="10" fill="none" fill-rule="evenodd"/><path d="M200.5 270.5 200.5 276.5" stroke="#000000" stroke-linejoin="round" stroke-miterlimit="10" fill="none" fill-rule="evenodd"/><path d="M0 0 5 12" stroke="#000000" stroke-linejoin="round" stroke-miterlimit="10" fill="none" fill-rule="evenodd" transform="matrix(1 0 0 -1 200.5 270.5)"/><path d="M200.5 259.5 206.5 259.5" stroke="#000000" stroke-linejoin="round" stroke-miterlimit="10" fill="none" fill-rule="evenodd"/><text font-family="Arial,Arial_MSFontService,sans-serif" font-weight="400" font-size="12" transform="translate(213.167 293)">1<tspan font-size="12" x="0" y="12">7</tspan><tspan font-size="12" x="-17" y="0">1</tspan><tspan font-size="12" x="-17" y="12">7</tspan></text></g></svg>