<svg width="657" height="389" xmlns="http://www.w3.org/2000/svg" xmlns:xlink="http://www.w3.org/1999/xlink" overflow="hidden"><defs><clipPath id="clip0"><rect x="-30" y="21" width="657" height="389"/></clipPath></defs><g clip-path="url(#clip0)" transform="translate(30 -21)"><path d="M42.5001 48.5001 72.5001 48.5002" stroke="#000000" stroke-linejoin="round" stroke-miterlimit="10" fill="none" fill-rule="evenodd"/><path d="M72.5001 48.5001 72.5002 66.5001" stroke="#000000" stroke-linejoin="round" stroke-miterlimit="10" fill="none" fill-rule="evenodd"/><path d="M72.5001 66.5001 72.5002 66.5002" stroke="#000000" stroke-linejoin="round" stroke-miterlimit="10" fill="none" fill-rule="evenodd"/><path d="M42.5001 342.5 72.5001 342.5" stroke="#000000" stroke-linejoin="round" stroke-miterlimit="10" fill="none" fill-rule="evenodd"/><path d="M72.5001 342.5 72.5002 342.5" stroke="#000000" stroke-linejoin="round" stroke-miterlimit="10" fill="none" fill-rule="evenodd"/><path d="M72.5001 192.5 72.5002 258.5" stroke="#000000" stroke-linejoin="round" stroke-miterlimit="10" fill="none" fill-rule="evenodd"/><path d="M72.5001 258.5 72.5002 258.5" stroke="#000000" stroke-linejoin="round" stroke-miterlimit="10" fill="none" fill-rule="evenodd"/><path d="M144.5 270.5 144.5 282.5" stroke="#000000" stroke-linejoin="round" stroke-miterlimit="10" fill="none" fill-rule="evenodd"/><path d="M144.5 270.5 144.5 270.5" stroke="#000000" stroke-linejoin="round" stroke-miterlimit="10" fill="none" fill-rule="evenodd"/><path d="M144.5 258.5 144.5 270.5" stroke="#000000" stroke-linejoin="round" stroke-miterlimit="10" fill="none" fill-rule="evenodd"/><path d="M144.5 312.5 144.5 312.5" stroke="#000000" stroke-linejoin="round" stroke-miterlimit="10" fill="none" fill-rule="evenodd"/><path d="M144.5 312.5 144.5 342.5" stroke="#000000" stroke-linejoin="round" stroke-miterlimit="10" fill="none" fill-rule="evenodd"/><path d="M210.5 282.5 210.5 282.5" stroke="#000000" stroke-linejoin="round" stroke-miterlimit="10" fill="none" fill-rule="evenodd"/><path d="M210.5 258.5 210.5 282.5" stroke="#000000" stroke-linejoin="round" stroke-miterlimit="10" fill="none" fill-rule="evenodd"/><path d="M144.5 258.5 210.5 258.5" stroke="#000000" stroke-linejoin="round" stroke-miterlimit="10" fill="none" fill-rule="evenodd"/><path d="M210.5 312.5 210.5 312.5" stroke="#000000" stroke-linejoin="round" stroke-miterlimit="10" fill="none" fill-rule="evenodd"/><path d="M210.5 312.5 210.5 342.5" stroke="#000000" stroke-linejoin="round" stroke-miterlimit="10" fill="none" fill-rule="evenodd"/><path d="M144.5 168.5 144.5 180.5" stroke="#000000" stroke-linejoin="round" stroke-miterlimit="10" fill="none" fill-rule="evenodd"/><path d="M132.5 180.5 144.5 180.5" stroke="#000000" stroke-linejoin="round" stroke-miterlimit="10" fill="none" fill-rule="evenodd"/><path d="M132.5 180.5 132.5 210.5" stroke="#000000" stroke-linejoin="round" stroke-miterlimit="10" fill="none" fill-rule="evenodd"/><path d="M150.5 138.5 150.5 138.5" stroke="#000000" stroke-linejoin="round" stroke-miterlimit="10" fill="none" fill-rule="evenodd"/><path d="M150.5 120.5 150.5 138.5" stroke="#000000" stroke-linejoin="round" stroke-miterlimit="10" fill="none" fill-rule="evenodd"/><path d="M150.5 120.5 150.5 120.5" stroke="#000000" stroke-linejoin="round" stroke-miterlimit="10" fill="none" fill-rule="evenodd"/><path d="M144.5 240.5 144.5 246.5" stroke="#000000" stroke-linejoin="round" stroke-miterlimit="10" fill="none" fill-rule="evenodd"/><path d="M144.5 246.5 144.5 246.5" stroke="#000000" stroke-linejoin="round" stroke-miterlimit="10" fill="none" fill-rule="evenodd"/><path d="M144.5 246.5 144.5 258.5" stroke="#000000" stroke-linejoin="round" stroke-miterlimit="10" fill="none" fill-rule="evenodd"/><path d="M72.5001 108.5 72.5002 120.5" stroke="#000000" stroke-linejoin="round" stroke-miterlimit="10" fill="none" fill-rule="evenodd"/><path d="M72.5001 108.5 72.5002 108.5" stroke="#000000" stroke-linejoin="round" stroke-miterlimit="10" fill="none" fill-rule="evenodd"/><path d="M72.5001 96.5001 72.5002 108.5" stroke="#000000" stroke-linejoin="round" stroke-miterlimit="10" fill="none" fill-rule="evenodd"/><path d="M72.5001 120.5 72.5002 156.5" stroke="#000000" stroke-linejoin="round" stroke-miterlimit="10" fill="none" fill-rule="evenodd"/><path d="M72.5001 156.5 72.5002 156.5" stroke="#000000" stroke-linejoin="round" stroke-miterlimit="10" fill="none" fill-rule="evenodd"/><path d="M72.5001 156.5 72.5002 162.5" stroke="#000000" stroke-linejoin="round" stroke-miterlimit="10" fill="none" fill-rule="evenodd"/><path d="M72.5001 312.5 72.5002 342.5" stroke="#000000" stroke-linejoin="round" stroke-miterlimit="10" fill="none" fill-rule="evenodd"/><path d="M72.5001 312.5 72.5002 312.5" stroke="#000000" stroke-linejoin="round" stroke-miterlimit="10" fill="none" fill-rule="evenodd"/><path d="M144.5 342.5 144.5 342.5" stroke="#000000" stroke-linejoin="round" stroke-miterlimit="10" fill="none" fill-rule="evenodd"/><path d="M72.5001 342.5 144.5 342.5" stroke="#000000" stroke-linejoin="round" stroke-miterlimit="10" fill="none" fill-rule="evenodd"/><path d="M283.5 144.5 283.5 168.5" stroke="#000000" stroke-linejoin="round" stroke-miterlimit="10" fill="none" fill-rule="evenodd"/><path d="M283.5 144.5 283.5 144.5" stroke="#000000" stroke-linejoin="round" stroke-miterlimit="10" fill="none" fill-rule="evenodd"/><path d="M283.5 120.5 283.5 144.5" stroke="#000000" stroke-linejoin="round" stroke-miterlimit="10" fill="none" fill-rule="evenodd"/><path d="M283.5 198.5 283.5 234.5" stroke="#000000" stroke-linejoin="round" stroke-miterlimit="10" fill="none" fill-rule="evenodd"/><path d="M283.5 234.5 283.5 234.5" stroke="#000000" stroke-linejoin="round" stroke-miterlimit="10" fill="none" fill-rule="evenodd"/><path d="M283.5 234.5 283.5 258.5" stroke="#000000" stroke-linejoin="round" stroke-miterlimit="10" fill="none" fill-rule="evenodd"/><path d="M355.5 168.5 355.5 180.5" stroke="#000000" stroke-linejoin="round" stroke-miterlimit="10" fill="none" fill-rule="evenodd"/><path d="M343.5 180.5 355.5 180.5" stroke="#000000" stroke-linejoin="round" stroke-miterlimit="10" fill="none" fill-rule="evenodd"/><path d="M343.5 180.5 343.5 210.5" stroke="#000000" stroke-linejoin="round" stroke-miterlimit="10" fill="none" fill-rule="evenodd"/><path d="M361.5 138.5 361.5 138.5" stroke="#000000" stroke-linejoin="round" stroke-miterlimit="10" fill="none" fill-rule="evenodd"/><path d="M361.5 120.5 361.5 138.5" stroke="#000000" stroke-linejoin="round" stroke-miterlimit="10" fill="none" fill-rule="evenodd"/><path d="M283.5 120.5 361.5 120.5" stroke="#000000" stroke-linejoin="round" stroke-miterlimit="10" fill="none" fill-rule="evenodd"/><path d="M355.5 240.5 355.5 252.5" stroke="#000000" stroke-linejoin="round" stroke-miterlimit="10" fill="none" fill-rule="evenodd"/><path d="M355.5 252.5 355.5 252.5" stroke="#000000" stroke-linejoin="round" stroke-miterlimit="10" fill="none" fill-rule="evenodd"/><path d="M355.5 252.5 355.5 258.5" stroke="#000000" stroke-linejoin="round" stroke-miterlimit="10" fill="none" fill-rule="evenodd"/><path d="M72.5001 120.5 150.5 120.5" stroke="#000000" stroke-linejoin="round" stroke-miterlimit="10" fill="none" fill-rule="evenodd"/><path d="M72.5001 120.5 72.5002 120.5" stroke="#000000" stroke-linejoin="round" stroke-miterlimit="10" fill="none" fill-rule="evenodd"/><path d="M283.5 312.5 283.5 312.5" stroke="#000000" stroke-linejoin="round" stroke-miterlimit="10" fill="none" fill-rule="evenodd"/><path d="M283.5 312.5 283.5 342.5" stroke="#000000" stroke-linejoin="round" stroke-miterlimit="10" fill="none" fill-rule="evenodd"/><path d="M355.5 312.5 355.5 312.5" stroke="#000000" stroke-linejoin="round" stroke-miterlimit="10" fill="none" fill-rule="evenodd"/><path d="M355.5 312.5 355.5 342.5" stroke="#000000" stroke-linejoin="round" stroke-miterlimit="10" fill="none" fill-rule="evenodd"/><path d="M421.5 282.5 421.5 282.5" stroke="#000000" stroke-linejoin="round" stroke-miterlimit="10" fill="none" fill-rule="evenodd"/><path d="M421.5 258.5 421.5 282.5" stroke="#000000" stroke-linejoin="round" stroke-miterlimit="10" fill="none" fill-rule="evenodd"/><path d="M355.5 258.5 421.5 258.5" stroke="#000000" stroke-linejoin="round" stroke-miterlimit="10" fill="none" fill-rule="evenodd"/><path d="M421.5 312.5 421.5 312.5" stroke="#000000" stroke-linejoin="round" stroke-miterlimit="10" fill="none" fill-rule="evenodd"/><path d="M421.5 312.5 421.5 342.5" stroke="#000000" stroke-linejoin="round" stroke-miterlimit="10" fill="none" fill-rule="evenodd"/><path d="M355.5 342.5 421.5 342.5" stroke="#000000" stroke-linejoin="round" stroke-miterlimit="10" fill="none" fill-rule="evenodd"/><path d="M150.5 120.5 283.5 120.5" stroke="#000000" stroke-linejoin="round" stroke-miterlimit="10" fill="none" fill-rule="evenodd"/><path d="M150.5 120.5 150.5 120.5" stroke="#000000" stroke-linejoin="round" stroke-miterlimit="10" fill="none" fill-rule="evenodd"/><path d="M210.5 342.5 210.5 342.5" stroke="#000000" stroke-linejoin="round" stroke-miterlimit="10" fill="none" fill-rule="evenodd"/><path d="M144.5 342.5 210.5 342.5" stroke="#000000" stroke-linejoin="round" stroke-miterlimit="10" fill="none" fill-rule="evenodd"/><path d="M283.5 342.5 283.5 342.5" stroke="#000000" stroke-linejoin="round" stroke-miterlimit="10" fill="none" fill-rule="evenodd"/><path d="M210.5 342.5 283.5 342.5" stroke="#000000" stroke-linejoin="round" stroke-miterlimit="10" fill="none" fill-rule="evenodd"/><path d="M355.5 342.5 355.5 342.5" stroke="#000000" stroke-linejoin="round" stroke-miterlimit="10" fill="none" fill-rule="evenodd"/><path d="M283.5 342.5 355.5 342.5" stroke="#000000" stroke-linejoin="round" stroke-miterlimit="10" fill="none" fill-rule="evenodd"/><path d="M355.5 258.5 355.5 282.5" stroke="#000000" stroke-linejoin="round" stroke-miterlimit="10" fill="none" fill-rule="evenodd"/><path d="M355.5 282.5 355.5 282.5" stroke="#000000" stroke-linejoin="round" stroke-miterlimit="10" fill="none" fill-rule="evenodd"/><path d="M319.5 258.5 355.5 258.5" stroke="#000000" stroke-linejoin="round" stroke-miterlimit="10" fill="none" fill-rule="evenodd"/><path d="M319.5 258.5 319.5 258.5" stroke="#000000" stroke-linejoin="round" stroke-miterlimit="10" fill="none" fill-rule="evenodd"/><path d="M283.5 258.5 319.5 258.5" stroke="#000000" stroke-linejoin="round" stroke-miterlimit="10" fill="none" fill-rule="evenodd"/><path d="M283.5 258.5 283.5 282.5" stroke="#000000" stroke-linejoin="round" stroke-miterlimit="10" fill="none" fill-rule="evenodd"/><path d="M283.5 282.5 283.5 282.5" stroke="#000000" stroke-linejoin="round" stroke-miterlimit="10" fill="none" fill-rule="evenodd"/><path d="M493.5 48.5001 529.5 48.5002" stroke="#000000" stroke-linejoin="round" stroke-miterlimit="10" fill="none" fill-rule="evenodd"/><path d="M529.5 48.5001 529.5 48.5002" stroke="#000000" stroke-linejoin="round" stroke-miterlimit="10" fill="none" fill-rule="evenodd"/><path d="M493.5 342.5 523.5 342.5" stroke="#000000" stroke-linejoin="round" stroke-miterlimit="10" fill="none" fill-rule="evenodd"/><path d="M523.5 342.5 523.5 342.5" stroke="#000000" stroke-linejoin="round" stroke-miterlimit="10" fill="none" fill-rule="evenodd"/><path d="M523.5 156.5 523.5 180.5" stroke="#000000" stroke-linejoin="round" stroke-miterlimit="10" fill="none" fill-rule="evenodd"/><path d="M523.5 180.5 523.5 180.5" stroke="#000000" stroke-linejoin="round" stroke-miterlimit="10" fill="none" fill-rule="evenodd"/><path d="M523.5 180.5 523.5 210.5" stroke="#000000" stroke-linejoin="round" stroke-miterlimit="10" fill="none" fill-rule="evenodd"/><path d="M601.5 156.5 601.5 180.5" stroke="#000000" stroke-linejoin="round" stroke-miterlimit="10" fill="none" fill-rule="evenodd"/><path d="M601.5 180.5 601.5 180.5" stroke="#000000" stroke-linejoin="round" stroke-miterlimit="10" fill="none" fill-rule="evenodd"/><path d="M601.5 180.5 601.5 210.5" stroke="#000000" stroke-linejoin="round" stroke-miterlimit="10" fill="none" fill-rule="evenodd"/><path d="M607.5 126.5 607.5 126.5" stroke="#000000" stroke-linejoin="round" stroke-miterlimit="10" fill="none" fill-rule="evenodd"/><path d="M607.5 48.5001 607.5 126.5" stroke="#000000" stroke-linejoin="round" stroke-miterlimit="10" fill="none" fill-rule="evenodd"/><path d="M529.5 48.5001 607.5 48.5002" stroke="#000000" stroke-linejoin="round" stroke-miterlimit="10" fill="none" fill-rule="evenodd"/><path d="M601.5 246.5 601.5 246.5" stroke="#000000" stroke-linejoin="round" stroke-miterlimit="10" fill="none" fill-rule="evenodd"/><path d="M601.5 246.5 601.5 342.5" stroke="#000000" stroke-linejoin="round" stroke-miterlimit="10" fill="none" fill-rule="evenodd"/><path d="M523.5 342.5 601.5 342.5" stroke="#000000" stroke-linejoin="round" stroke-miterlimit="10" fill="none" fill-rule="evenodd"/><path d="M529.5 48.5001 529.5 126.5" stroke="#000000" stroke-linejoin="round" stroke-miterlimit="10" fill="none" fill-rule="evenodd"/><path d="M529.5 126.5 529.5 126.5" stroke="#000000" stroke-linejoin="round" stroke-miterlimit="10" fill="none" fill-rule="evenodd"/><path d="M523.5 342.5 523.5 342.5" stroke="#000000" stroke-linejoin="round" stroke-miterlimit="10" fill="none" fill-rule="evenodd"/><path d="M523.5 246.5 523.5 342.5" stroke="#000000" stroke-linejoin="round" stroke-miterlimit="10" fill="none" fill-rule="evenodd"/><path d="M523.5 246.5 523.5 246.5" stroke="#000000" stroke-linejoin="round" stroke-miterlimit="10" fill="none" fill-rule="evenodd"/><path d="M72.5001 258.5 72.5002 282.5" stroke="#000000" stroke-linejoin="round" stroke-miterlimit="10" fill="none" fill-rule="evenodd"/><path d="M72.5001 282.5 72.5002 282.5" stroke="#000000" stroke-linejoin="round" stroke-miterlimit="10" fill="none" fill-rule="evenodd"/><path d="M72.5001 258.5 144.5 258.5" stroke="#000000" stroke-linejoin="round" stroke-miterlimit="10" fill="none" fill-rule="evenodd"/><path d="M72.5001 258.5 72.5002 258.5" stroke="#000000" stroke-linejoin="round" stroke-miterlimit="10" fill="none" fill-rule="evenodd"/><text font-family="Arial,Arial_MSFontService,sans-serif" font-weight="400" font-size="12" transform="translate(11.5001 42)">+24V</text><path d="M27.5001 48.5001C27.5001 46.8432 28.8432 45.5001 30.5001 45.5001 32.1569 45.5001 33.5001 46.8432 33.5001 48.5001 33.5001 50.1569 32.1569 51.5001 30.5001 51.5001 28.8432 51.5001 27.5001 50.1569 27.5001 48.5001Z" stroke="#000000" stroke-linejoin="round" stroke-miterlimit="10" fill="none" fill-rule="evenodd"/><path d="M33.5001 48.5001 42.5001 48.5002" stroke="#000000" stroke-linejoin="round" stroke-miterlimit="10" fill="none" fill-rule="evenodd"/><text font-family="Arial,Arial_MSFontService,sans-serif" font-weight="400" font-size="12" transform="translate(21.6668 336)">0V</text><path d="M27.5001 342.5C27.5001 340.843 28.8432 339.5 30.5001 339.5 32.1569 339.5 33.5001 340.843 33.5001 342.5 33.5001 344.157 32.1569 345.5 30.5001 345.5 28.8432 345.5 27.5001 344.157 27.5001 342.5Z" stroke="#000000" stroke-linejoin="round" stroke-miterlimit="10" fill="none" fill-rule="evenodd"/><path d="M33.5001 342.5 42.5001 342.5" stroke="#000000" stroke-linejoin="round" stroke-miterlimit="10" fill="none" fill-rule="evenodd"/><text fill="#31586C" font-family="Arial,Arial_MSFontService,sans-serif" font-weight="400" font-size="12" transform="translate(36.0001 183)">S1</text><path d="M72.5001 162.5 72.5002 171.5" stroke="#000000" stroke-linejoin="round" stroke-miterlimit="10" fill="none" fill-rule="evenodd"/><path d="M66.5001 170.5 72.5001 183.5" stroke="#000000" stroke-linejoin="round" stroke-miterlimit="10" fill="none" fill-rule="evenodd"/><path d="M57.5001 172.5 57.5002 181.5" stroke="#000000" stroke-linejoin="round" stroke-miterlimit="10" fill="none" fill-rule="evenodd"/><path d="M72.5001 183.5 72.5002 192.5" stroke="#000000" stroke-linejoin="round" stroke-miterlimit="10" fill="none" fill-rule="evenodd"/><path d="M57.5001 181.5 60.5001 181.5" stroke="#000000" stroke-linejoin="round" stroke-miterlimit="10" fill="none" fill-rule="evenodd"/><path d="M57.5001 177.5 62.5001 177.5" stroke="#000000" stroke-linejoin="round" stroke-miterlimit="10" fill="none" fill-rule="evenodd"/><path d="M67.5001 177.5 69.5001 177.5" stroke="#000000" stroke-linejoin="round" stroke-miterlimit="10" fill="none" fill-rule="evenodd"/><path d="M66.5001 177.5 69.5001 177.5" stroke="#000000" stroke-linejoin="round" stroke-miterlimit="10" fill="none" fill-rule="evenodd"/><path d="M57.5001 172.5 60.5001 172.5" stroke="#000000" stroke-linejoin="round" stroke-miterlimit="10" fill="none" fill-rule="evenodd"/><text font-family="Arial,Arial_MSFontService,sans-serif" font-weight="400" font-size="9" transform="translate(77.1667 159)">3<tspan font-size="9" x="0" y="42">4</tspan><tspan font-size="12" x="-38.1666" y="144">K1</tspan></text><path d="M60.5001 303.5 84.5001 303.5" stroke="#000000" stroke-linejoin="round" stroke-miterlimit="10" fill="none" fill-rule="evenodd"/><path d="M60.5001 291.5 84.5001 291.5" stroke="#000000" stroke-linejoin="round" stroke-miterlimit="10" fill="none" fill-rule="evenodd"/><path d="M72.5001 303.5 72.5002 312.5" stroke="#000000" stroke-linejoin="round" stroke-miterlimit="10" fill="none" fill-rule="evenodd"/><path d="M60.5001 291.5 60.5002 303.5" stroke="#000000" stroke-linejoin="round" stroke-miterlimit="10" fill="none" fill-rule="evenodd"/><path d="M72.5001 282.5 72.5002 291.5" stroke="#000000" stroke-linejoin="round" stroke-miterlimit="10" fill="none" fill-rule="evenodd"/><path d="M84.5001 291.5 84.5002 303.5" stroke="#000000" stroke-linejoin="round" stroke-miterlimit="10" fill="none" fill-rule="evenodd"/><text font-family="Arial,Arial_MSFontService,sans-serif" font-weight="400" font-size="9" transform="translate(76.1667 279)">A1<tspan font-size="9" x="0" y="42">A2</tspan></text><path d="M144.5 282.5 144.5 291.5" stroke="#000000" stroke-linejoin="round" stroke-miterlimit="10" fill="none" fill-rule="evenodd"/><path d="M138.5 297.5C138.5 294.186 141.186 291.5 144.5 291.5 147.814 291.5 150.5 294.186 150.5 297.5 150.5 300.814 147.814 303.5 144.5 303.5 141.186 303.5 138.5 300.814 138.5 297.5Z" stroke="#000000" stroke-linejoin="round" stroke-miterlimit="10" fill="none" fill-rule="evenodd"/><path d="M0 0 9 9" stroke="#000000" stroke-linejoin="round" stroke-miterlimit="10" fill="none" fill-rule="evenodd" transform="matrix(-1 0 0 1 148.5 292.5)"/><path d="M139.5 292.5 148.5 301.5" stroke="#000000" stroke-linejoin="round" stroke-miterlimit="10" fill="none" fill-rule="evenodd"/><path d="M144.5 303.5 144.5 312.5" stroke="#000000" stroke-linejoin="round" stroke-miterlimit="10" fill="none" fill-rule="evenodd"/><text font-family="Arial,Arial_MSFontService,sans-serif" font-weight="400" font-size="12" transform="translate(177.333 303)">K3</text><path d="M198.5 303.5 222.5 303.5" stroke="#000000" stroke-linejoin="round" stroke-miterlimit="10" fill="none" fill-rule="evenodd"/><path d="M198.5 291.5 222.5 291.5" stroke="#000000" stroke-linejoin="round" stroke-miterlimit="10" fill="none" fill-rule="evenodd"/><path d="M210.5 303.5 210.5 312.5" stroke="#000000" stroke-linejoin="round" stroke-miterlimit="10" fill="none" fill-rule="evenodd"/><path d="M198.5 291.5 198.5 303.5" stroke="#000000" stroke-linejoin="round" stroke-miterlimit="10" fill="none" fill-rule="evenodd"/><path d="M210.5 282.5 210.5 291.5" stroke="#000000" stroke-linejoin="round" stroke-miterlimit="10" fill="none" fill-rule="evenodd"/><path d="M222.5 291.5 222.5 303.5" stroke="#000000" stroke-linejoin="round" stroke-miterlimit="10" fill="none" fill-rule="evenodd"/><text font-family="Arial,Arial_MSFontService,sans-serif" font-weight="400" font-size="9" transform="translate(214.333 279)">A1<tspan font-size="9" x="0" y="42">A2</tspan><tspan font-size="12" x="-100.167" y="-120">K1</tspan></text><path d="M144.5 159.5 137.5 147.5" stroke="#000000" stroke-linejoin="round" stroke-miterlimit="10" fill="none" fill-rule="evenodd"/><path d="M132.5 138.5 132.5 147.5" stroke="#000000" stroke-linejoin="round" stroke-miterlimit="10" fill="none" fill-rule="evenodd"/><path d="M132.5 147.5 139.5 147.5" stroke="#000000" stroke-linejoin="round" stroke-miterlimit="10" fill="none" fill-rule="evenodd"/><path d="M150.5 138.5 150.5 147.5" stroke="#000000" stroke-linejoin="round" stroke-miterlimit="10" fill="none" fill-rule="evenodd"/><path d="M144.5 159.5 144.5 168.5" stroke="#000000" stroke-linejoin="round" stroke-miterlimit="10" fill="none" fill-rule="evenodd"/><text font-family="Arial,Arial_MSFontService,sans-serif" font-weight="400" font-size="9" transform="translate(146.167 177)">11<tspan font-size="9" x="-33" y="-42">12</tspan><tspan font-size="9" x="6" y="-42">14</tspan><tspan font-size="12" x="-32" y="54">K2</tspan></text><path d="M144.5 231.5 137.5 219.5" stroke="#000000" stroke-linejoin="round" stroke-miterlimit="10" fill="none" fill-rule="evenodd"/><path d="M132.5 210.5 132.5 219.5" stroke="#000000" stroke-linejoin="round" stroke-miterlimit="10" fill="none" fill-rule="evenodd"/><path d="M132.5 219.5 139.5 219.5" stroke="#000000" stroke-linejoin="round" stroke-miterlimit="10" fill="none" fill-rule="evenodd"/><path d="M150.5 210.5 150.5 219.5" stroke="#000000" stroke-linejoin="round" stroke-miterlimit="10" fill="none" fill-rule="evenodd"/><path d="M144.5 231.5 144.5 240.5" stroke="#000000" stroke-linejoin="round" stroke-miterlimit="10" fill="none" fill-rule="evenodd"/><text font-family="Arial,Arial_MSFontService,sans-serif" font-weight="400" font-size="9" transform="translate(146.167 249)">11<tspan font-size="9" x="-33" y="-42">12</tspan><tspan font-size="9" x="6" y="-42">14</tspan></text><path d="M69.5001 120.5C69.5001 118.843 70.8432 117.5 72.5001 117.5 74.1569 117.5 75.5001 118.843 75.5001 120.5 75.5001 122.157 74.1569 123.5 72.5001 123.5 70.8432 123.5 69.5001 122.157 69.5001 120.5Z" stroke="#000000" stroke-width="0" stroke-linejoin="round" stroke-miterlimit="10" fill-rule="evenodd"/><path d="M69.5001 342.5C69.5001 340.843 70.8432 339.5 72.5001 339.5 74.1569 339.5 75.5001 340.843 75.5001 342.5 75.5001 344.157 74.1569 345.5 72.5001 345.5 70.8432 345.5 69.5001 344.157 69.5001 342.5Z" stroke="#000000" stroke-width="0" stroke-linejoin="round" stroke-miterlimit="10" fill-rule="evenodd"/><path d="M141.5 342.5C141.5 340.843 142.843 339.5 144.5 339.5 146.157 339.5 147.5 340.843 147.5 342.5 147.5 344.157 146.157 345.5 144.5 345.5 142.843 345.5 141.5 344.157 141.5 342.5Z" stroke="#000000" stroke-width="0" stroke-linejoin="round" stroke-miterlimit="10" fill-rule="evenodd"/><text fill="#31586C" font-family="Arial,Arial_MSFontService,sans-serif" font-weight="400" font-size="12" transform="translate(246.333 189)">S2</text><path d="M283.5 168.5 283.5 177.5" stroke="#000000" stroke-linejoin="round" stroke-miterlimit="10" fill="none" fill-rule="evenodd"/><path d="M277.5 176.5 283.5 189.5" stroke="#000000" stroke-linejoin="round" stroke-miterlimit="10" fill="none" fill-rule="evenodd"/><path d="M268.5 178.5 268.5 187.5" stroke="#000000" stroke-linejoin="round" stroke-miterlimit="10" fill="none" fill-rule="evenodd"/><path d="M283.5 189.5 283.5 198.5" stroke="#000000" stroke-linejoin="round" stroke-miterlimit="10" fill="none" fill-rule="evenodd"/><path d="M268.5 187.5 271.5 187.5" stroke="#000000" stroke-linejoin="round" stroke-miterlimit="10" fill="none" fill-rule="evenodd"/><path d="M268.5 183.5 273.5 183.5" stroke="#000000" stroke-linejoin="round" stroke-miterlimit="10" fill="none" fill-rule="evenodd"/><path d="M278.5 183.5 280.5 183.5" stroke="#000000" stroke-linejoin="round" stroke-miterlimit="10" fill="none" fill-rule="evenodd"/><path d="M277.5 183.5 280.5 183.5" stroke="#000000" stroke-linejoin="round" stroke-miterlimit="10" fill="none" fill-rule="evenodd"/><path d="M268.5 178.5 271.5 178.5" stroke="#000000" stroke-linejoin="round" stroke-miterlimit="10" fill="none" fill-rule="evenodd"/><text font-family="Arial,Arial_MSFontService,sans-serif" font-weight="400" font-size="9" transform="translate(287.5 165)">3<tspan font-size="9" x="0" y="42">4</tspan><tspan font-size="12" x="37" y="-6">K2</tspan></text><path d="M355.5 159.5 348.5 147.5" stroke="#000000" stroke-linejoin="round" stroke-miterlimit="10" fill="none" fill-rule="evenodd"/><path d="M343.5 138.5 343.5 147.5" stroke="#000000" stroke-linejoin="round" stroke-miterlimit="10" fill="none" fill-rule="evenodd"/><path d="M343.5 147.5 350.5 147.5" stroke="#000000" stroke-linejoin="round" stroke-miterlimit="10" fill="none" fill-rule="evenodd"/><path d="M361.5 138.5 361.5 147.5" stroke="#000000" stroke-linejoin="round" stroke-miterlimit="10" fill="none" fill-rule="evenodd"/><path d="M355.5 159.5 355.5 168.5" stroke="#000000" stroke-linejoin="round" stroke-miterlimit="10" fill="none" fill-rule="evenodd"/><text font-family="Arial,Arial_MSFontService,sans-serif" font-weight="400" font-size="9" transform="translate(356.667 177)">21<tspan font-size="9" x="-33.1667" y="-42">22</tspan><tspan font-size="9" x="6" y="-42">24</tspan><tspan font-size="12" x="-32.1667" y="54">K1</tspan></text><path d="M355.5 231.5 348.5 219.5" stroke="#000000" stroke-linejoin="round" stroke-miterlimit="10" fill="none" fill-rule="evenodd"/><path d="M343.5 210.5 343.5 219.5" stroke="#000000" stroke-linejoin="round" stroke-miterlimit="10" fill="none" fill-rule="evenodd"/><path d="M343.5 219.5 350.5 219.5" stroke="#000000" stroke-linejoin="round" stroke-miterlimit="10" fill="none" fill-rule="evenodd"/><path d="M361.5 210.5 361.5 219.5" stroke="#000000" stroke-linejoin="round" stroke-miterlimit="10" fill="none" fill-rule="evenodd"/><path d="M355.5 231.5 355.5 240.5" stroke="#000000" stroke-linejoin="round" stroke-miterlimit="10" fill="none" fill-rule="evenodd"/><text font-family="Arial,Arial_MSFontService,sans-serif" font-weight="400" font-size="9" transform="translate(356.667 249)">21<tspan font-size="9" x="-33.1667" y="-42">22</tspan><tspan font-size="9" x="6" y="-42">24</tspan></text><path d="M147.5 120.5C147.5 118.843 148.843 117.5 150.5 117.5 152.157 117.5 153.5 118.843 153.5 120.5 153.5 122.157 152.157 123.5 150.5 123.5 148.843 123.5 147.5 122.157 147.5 120.5Z" stroke="#000000" stroke-width="0" stroke-linejoin="round" stroke-miterlimit="10" fill-rule="evenodd"/><text font-family="Arial,Arial_MSFontService,sans-serif" font-weight="400" font-size="12" transform="translate(249.333 303)">K2</text><path d="M271.5 303.5 295.5 303.5" stroke="#000000" stroke-linejoin="round" stroke-miterlimit="10" fill="none" fill-rule="evenodd"/><path d="M271.5 291.5 295.5 291.5" stroke="#000000" stroke-linejoin="round" stroke-miterlimit="10" fill="none" fill-rule="evenodd"/><path d="M283.5 303.5 283.5 312.5" stroke="#000000" stroke-linejoin="round" stroke-miterlimit="10" fill="none" fill-rule="evenodd"/><path d="M271.5 291.5 271.5 303.5" stroke="#000000" stroke-linejoin="round" stroke-miterlimit="10" fill="none" fill-rule="evenodd"/><path d="M283.5 282.5 283.5 291.5" stroke="#000000" stroke-linejoin="round" stroke-miterlimit="10" fill="none" fill-rule="evenodd"/><path d="M295.5 291.5 295.5 303.5" stroke="#000000" stroke-linejoin="round" stroke-miterlimit="10" fill="none" fill-rule="evenodd"/><text font-family="Arial,Arial_MSFontService,sans-serif" font-weight="400" font-size="9" transform="translate(286.5 279)">A1<tspan font-size="9" x="0" y="42">A2</tspan></text><path d="M355.5 282.5 355.5 291.5" stroke="#000000" stroke-linejoin="round" stroke-miterlimit="10" fill="none" fill-rule="evenodd"/><path d="M349.5 297.5C349.5 294.186 352.186 291.5 355.5 291.5 358.814 291.5 361.5 294.186 361.5 297.5 361.5 300.814 358.814 303.5 355.5 303.5 352.186 303.5 349.5 300.814 349.5 297.5Z" stroke="#000000" stroke-linejoin="round" stroke-miterlimit="10" fill="none" fill-rule="evenodd"/><path d="M0 0 9 9" stroke="#000000" stroke-linejoin="round" stroke-miterlimit="10" fill="none" fill-rule="evenodd" transform="matrix(-1 0 0 1 359.5 292.5)"/><path d="M350.5 292.5 359.5 301.5" stroke="#000000" stroke-linejoin="round" stroke-miterlimit="10" fill="none" fill-rule="evenodd"/><path d="M355.5 303.5 355.5 312.5" stroke="#000000" stroke-linejoin="round" stroke-miterlimit="10" fill="none" fill-rule="evenodd"/><text font-family="Arial,Arial_MSFontService,sans-serif" font-weight="400" font-size="12" transform="translate(387.667 303)">K4</text><path d="M409.5 303.5 433.5 303.5" stroke="#000000" stroke-linejoin="round" stroke-miterlimit="10" fill="none" fill-rule="evenodd"/><path d="M409.5 291.5 433.5 291.5" stroke="#000000" stroke-linejoin="round" stroke-miterlimit="10" fill="none" fill-rule="evenodd"/><path d="M421.5 303.5 421.5 312.5" stroke="#000000" stroke-linejoin="round" stroke-miterlimit="10" fill="none" fill-rule="evenodd"/><path d="M409.5 291.5 409.5 303.5" stroke="#000000" stroke-linejoin="round" stroke-miterlimit="10" fill="none" fill-rule="evenodd"/><path d="M421.5 282.5 421.5 291.5" stroke="#000000" stroke-linejoin="round" stroke-miterlimit="10" fill="none" fill-rule="evenodd"/><path d="M433.5 291.5 433.5 303.5" stroke="#000000" stroke-linejoin="round" stroke-miterlimit="10" fill="none" fill-rule="evenodd"/><text font-family="Arial,Arial_MSFontService,sans-serif" font-weight="400" font-size="9" transform="translate(424.667 279)">A1<tspan font-size="9" x="0" y="42">A2</tspan></text><path d="M280.5 120.5C280.5 118.843 281.843 117.5 283.5 117.5 285.157 117.5 286.5 118.843 286.5 120.5 286.5 122.157 285.157 123.5 283.5 123.5 281.843 123.5 280.5 122.157 280.5 120.5Z" stroke="#000000" stroke-width="0" stroke-linejoin="round" stroke-miterlimit="10" fill-rule="evenodd"/><path d="M207.5 342.5C207.5 340.843 208.843 339.5 210.5 339.5 212.157 339.5 213.5 340.843 213.5 342.5 213.5 344.157 212.157 345.5 210.5 345.5 208.843 345.5 207.5 344.157 207.5 342.5Z" stroke="#000000" stroke-width="0" stroke-linejoin="round" stroke-miterlimit="10" fill-rule="evenodd"/><text font-family="Arial,Arial_MSFontService,sans-serif" font-weight="400" font-size="12" transform="translate(115.167 304)">H1<tspan font-size="12" x="211.333" y="0">H2</tspan></text><path d="M280.5 342.5C280.5 340.843 281.843 339.5 283.5 339.5 285.157 339.5 286.5 340.843 286.5 342.5 286.5 344.157 285.157 345.5 283.5 345.5 281.843 345.5 280.5 344.157 280.5 342.5Z" stroke="#000000" stroke-width="0" stroke-linejoin="round" stroke-miterlimit="10" fill-rule="evenodd"/><path d="M352.5 342.5C352.5 340.843 353.843 339.5 355.5 339.5 357.157 339.5 358.5 340.843 358.5 342.5 358.5 344.157 357.157 345.5 355.5 345.5 353.843 345.5 352.5 344.157 352.5 342.5Z" stroke="#000000" stroke-width="0" stroke-linejoin="round" stroke-miterlimit="10" fill-rule="evenodd"/><path d="M352.5 258.5C352.5 256.843 353.843 255.5 355.5 255.5 357.157 255.5 358.5 256.843 358.5 258.5 358.5 260.157 357.157 261.5 355.5 261.5 353.843 261.5 352.5 260.157 352.5 258.5Z" stroke="#000000" stroke-width="0" stroke-linejoin="round" stroke-miterlimit="10" fill-rule="evenodd"/><path d="M280.5 258.5C280.5 256.843 281.843 255.5 283.5 255.5 285.157 255.5 286.5 256.843 286.5 258.5 286.5 260.157 285.157 261.5 283.5 261.5 281.843 261.5 280.5 260.157 280.5 258.5Z" stroke="#000000" stroke-width="0" stroke-linejoin="round" stroke-miterlimit="10" fill-rule="evenodd"/><text font-family="Arial,Arial_MSFontService,sans-serif" font-weight="400" font-size="12" transform="translate(462.333 42)">+24V</text><path d="M478.5 48.5001C478.5 46.8432 479.843 45.5001 481.5 45.5001 483.157 45.5001 484.5 46.8432 484.5 48.5001 484.5 50.1569 483.157 51.5001 481.5 51.5001 479.843 51.5001 478.5 50.1569 478.5 48.5001Z" stroke="#000000" stroke-linejoin="round" stroke-miterlimit="10" fill="none" fill-rule="evenodd"/><path d="M484.5 48.5001 493.5 48.5002" stroke="#000000" stroke-linejoin="round" stroke-miterlimit="10" fill="none" fill-rule="evenodd"/><text font-family="Arial,Arial_MSFontService,sans-serif" font-weight="400" font-size="12" transform="translate(472.5 336)">0V</text><path d="M478.5 342.5C478.5 340.843 479.843 339.5 481.5 339.5 483.157 339.5 484.5 340.843 484.5 342.5 484.5 344.157 483.157 345.5 481.5 345.5 479.843 345.5 478.5 344.157 478.5 342.5Z" stroke="#000000" stroke-linejoin="round" stroke-miterlimit="10" fill="none" fill-rule="evenodd"/><path d="M484.5 342.5 493.5 342.5" stroke="#000000" stroke-linejoin="round" stroke-miterlimit="10" fill="none" fill-rule="evenodd"/><text font-family="Arial,Arial_MSFontService,sans-serif" font-weight="400" font-size="12" transform="translate(492.833 147)">K3</text><path d="M523.5 147.5 516.5 135.5" stroke="#000000" stroke-linejoin="round" stroke-miterlimit="10" fill="none" fill-rule="evenodd"/><path d="M511.5 126.5 511.5 135.5" stroke="#000000" stroke-linejoin="round" stroke-miterlimit="10" fill="none" fill-rule="evenodd"/><path d="M511.5 135.5 518.5 135.5" stroke="#000000" stroke-linejoin="round" stroke-miterlimit="10" fill="none" fill-rule="evenodd"/><path d="M529.5 126.5 529.5 135.5" stroke="#000000" stroke-linejoin="round" stroke-miterlimit="10" fill="none" fill-rule="evenodd"/><path d="M523.5 147.5 523.5 156.5" stroke="#000000" stroke-linejoin="round" stroke-miterlimit="10" fill="none" fill-rule="evenodd"/><text font-family="Arial,Arial_MSFontService,sans-serif" font-weight="400" font-size="9" transform="translate(524.833 165)">11<tspan font-size="9" x="-33" y="-42">12</tspan><tspan font-size="9" x="6" y="-42">14</tspan></text><path d="M511.5 228.5C511.5 221.873 516.873 216.5 523.5 216.5 530.128 216.5 535.5 221.873 535.5 228.5 535.5 235.127 530.128 240.5 523.5 240.5 516.873 240.5 511.5 235.127 511.5 228.5Z" stroke="#000000" stroke-linejoin="round" stroke-miterlimit="10" fill="none" fill-rule="evenodd"/><path d="M523.5 240.5 523.5 246.5" stroke="#000000" stroke-linejoin="round" stroke-miterlimit="10" fill="none" fill-rule="evenodd"/><path d="M523.5 210.5 523.5 216.5" stroke="#000000" stroke-linejoin="round" stroke-miterlimit="10" fill="none" fill-rule="evenodd"/><path d="M515.5 234.5 531.5 234.5" stroke="#000000" stroke-linejoin="round" stroke-miterlimit="10" fill="none" fill-rule="evenodd"/><text font-family="Arial,Arial_MSFontService,sans-serif" font-weight="400" font-size="12" transform="translate(515.333 233)">M<tspan font-size="12" x="-28" y="0">M1</tspan><tspan font-size="12" x="55.6667" y="-86">K4</tspan></text><path d="M601.5 147.5 594.5 135.5" stroke="#000000" stroke-linejoin="round" stroke-miterlimit="10" fill="none" fill-rule="evenodd"/><path d="M589.5 126.5 589.5 135.5" stroke="#000000" stroke-linejoin="round" stroke-miterlimit="10" fill="none" fill-rule="evenodd"/><path d="M589.5 135.5 596.5 135.5" stroke="#000000" stroke-linejoin="round" stroke-miterlimit="10" fill="none" fill-rule="evenodd"/><path d="M607.5 126.5 607.5 135.5" stroke="#000000" stroke-linejoin="round" stroke-miterlimit="10" fill="none" fill-rule="evenodd"/><path d="M601.5 147.5 601.5 156.5" stroke="#000000" stroke-linejoin="round" stroke-miterlimit="10" fill="none" fill-rule="evenodd"/><text font-family="Arial,Arial_MSFontService,sans-serif" font-weight="400" font-size="9" transform="translate(603 165)">11<tspan font-size="9" x="-33" y="-42">12</tspan><tspan font-size="9" x="6" y="-42">14</tspan></text><path d="M589.5 228.5C589.5 221.873 594.873 216.5 601.5 216.5 608.128 216.5 613.5 221.873 613.5 228.5 613.5 235.127 608.128 240.5 601.5 240.5 594.873 240.5 589.5 235.127 589.5 228.5Z" stroke="#000000" stroke-linejoin="round" stroke-miterlimit="10" fill="none" fill-rule="evenodd"/><path d="M601.5 240.5 601.5 246.5" stroke="#000000" stroke-linejoin="round" stroke-miterlimit="10" fill="none" fill-rule="evenodd"/><path d="M601.5 210.5 601.5 216.5" stroke="#000000" stroke-linejoin="round" stroke-miterlimit="10" fill="none" fill-rule="evenodd"/><path d="M593.5 234.5 609.5 234.5" stroke="#000000" stroke-linejoin="round" stroke-miterlimit="10" fill="none" fill-rule="evenodd"/><text font-family="Arial,Arial_MSFontService,sans-serif" font-weight="400" font-size="12" transform="translate(593.5 233)">M<tspan font-size="12" x="-31" y="1">M2</tspan></text><path d="M526.5 48.5001C526.5 46.8432 527.843 45.5001 529.5 45.5001 531.157 45.5001 532.5 46.8432 532.5 48.5001 532.5 50.1569 531.157 51.5001 529.5 51.5001 527.843 51.5001 526.5 50.1569 526.5 48.5001Z" stroke="#000000" stroke-width="0" stroke-linejoin="round" stroke-miterlimit="10" fill-rule="evenodd"/><path d="M520.5 342.5C520.5 340.843 521.843 339.5 523.5 339.5 525.157 339.5 526.5 340.843 526.5 342.5 526.5 344.157 525.157 345.5 523.5 345.5 521.843 345.5 520.5 344.157 520.5 342.5Z" stroke="#000000" stroke-width="0" stroke-linejoin="round" stroke-miterlimit="10" fill-rule="evenodd"/><path d="M69.5001 258.5C69.5001 256.843 70.8432 255.5 72.5001 255.5 74.1569 255.5 75.5001 256.843 75.5001 258.5 75.5001 260.157 74.1569 261.5 72.5001 261.5 70.8432 261.5 69.5001 260.157 69.5001 258.5Z" stroke="#000000" stroke-width="0" stroke-linejoin="round" stroke-miterlimit="10" fill-rule="evenodd"/><path d="M141.5 258.5C141.5 256.843 142.843 255.5 144.5 255.5 146.157 255.5 147.5 256.843 147.5 258.5 147.5 260.157 146.157 261.5 144.5 261.5 142.843 261.5 141.5 260.157 141.5 258.5Z" stroke="#000000" stroke-width="0" stroke-linejoin="round" stroke-miterlimit="10" fill-rule="evenodd"/><path d="M0 0 6 13" stroke="#000000" stroke-linejoin="round" stroke-miterlimit="10" fill="none" fill-rule="evenodd" transform="matrix(-1 0 0 1 78.5001 74.5001)"/><path d="M60.5001 76.5001 60.5002 85.5001" stroke="#000000" stroke-linejoin="round" stroke-miterlimit="10" fill="none" fill-rule="evenodd"/><path d="M60.5001 81.5001 65.5001 81.5002" stroke="#000000" stroke-linejoin="round" stroke-miterlimit="10" fill="none" fill-rule="evenodd"/><path d="M70.5001 81.5001 75.5001 81.5002" stroke="#000000" stroke-linejoin="round" stroke-miterlimit="10" fill="none" fill-rule="evenodd"/><path d="M72.5001 81.5001 75.5001 81.5002" stroke="#000000" stroke-linejoin="round" stroke-miterlimit="10" fill="none" fill-rule="evenodd"/><path d="M60.5001 85.5001 63.5001 85.5002" stroke="#000000" stroke-linejoin="round" stroke-miterlimit="10" fill="none" fill-rule="evenodd"/><path d="M72.5001 87.5001 72.5002 96.5001" stroke="#000000" stroke-linejoin="round" stroke-miterlimit="10" fill="none" fill-rule="evenodd"/><path d="M60.5001 76.5001 63.5001 76.5002" stroke="#000000" stroke-linejoin="round" stroke-miterlimit="10" fill="none" fill-rule="evenodd"/><path d="M72.5001 66.5001 72.5002 75.5001" stroke="#000000" stroke-linejoin="round" stroke-miterlimit="10" fill="none" fill-rule="evenodd"/><path d="M72.5001 75.5001 79.5001 75.5002" stroke="#000000" stroke-linejoin="round" stroke-miterlimit="10" fill="none" fill-rule="evenodd"/><text font-family="Arial,Arial_MSFontService,sans-serif" font-weight="400" font-size="9" transform="translate(77.1667 63)">1<tspan font-size="9" x="0" y="43">2</tspan><tspan font-size="9" x="-11" y="-26">1</tspan><tspan font-size="9" x="67" y="42">2</tspan><tspan font-size="9" x="199.333" y="42">4</tspan><tspan font-size="9" x="266.333" y="98">5</tspan><tspan font-size="9" x="445.667" y="-26">7</tspan></text><path d="M56.5001 376.5 88.5001 376.5" stroke="#000000" stroke-linejoin="round" stroke-miterlimit="10" fill="none" fill-rule="evenodd"/><path d="M82.5001 351.5 82.5002 358.5" stroke="#000000" stroke-linejoin="round" stroke-miterlimit="10" fill="none" fill-rule="evenodd"/><path d="M82.5001 369.5 82.5002 375.5" stroke="#000000" stroke-linejoin="round" stroke-miterlimit="10" fill="none" fill-rule="evenodd"/><path d="M76.5001 357.5 82.5001 369.5" stroke="#000000" stroke-linejoin="round" stroke-miterlimit="10" fill="none" fill-rule="evenodd"/><path d="M62.5001 351.5 62.5002 358.5" stroke="#000000" stroke-linejoin="round" stroke-miterlimit="10" fill="none" fill-rule="evenodd"/><path d="M62.5001 369.5 62.5002 375.5" stroke="#000000" stroke-linejoin="round" stroke-miterlimit="10" fill="none" fill-rule="evenodd"/><path d="M0 0 5 12" stroke="#000000" stroke-linejoin="round" stroke-miterlimit="10" fill="none" fill-rule="evenodd" transform="matrix(1 0 0 -1 62.5001 369.5)"/><path d="M62.5001 358.5 68.5001 358.5" stroke="#000000" stroke-linejoin="round" stroke-miterlimit="10" fill="none" fill-rule="evenodd"/><text font-family="Arial,Arial_MSFontService,sans-serif" font-weight="400" font-size="9" transform="translate(75.1667 389)">2<tspan font-size="9" x="0" y="12">5</tspan><tspan font-size="9" x="-17" y="0">2</tspan><tspan font-size="9" x="-17" y="12">5</tspan></text><path d="M72.5001 352.5 72.5002 404.5" stroke="#000000" stroke-linejoin="round" stroke-miterlimit="10" fill="none" fill-rule="evenodd"/><path d="M194.5 376.5 226.5 376.5" stroke="#000000" stroke-linejoin="round" stroke-miterlimit="10" fill="none" fill-rule="evenodd"/><path d="M220.5 351.5 220.5 358.5" stroke="#000000" stroke-linejoin="round" stroke-miterlimit="10" fill="none" fill-rule="evenodd"/><path d="M220.5 369.5 220.5 375.5" stroke="#000000" stroke-linejoin="round" stroke-miterlimit="10" fill="none" fill-rule="evenodd"/><path d="M214.5 357.5 220.5 369.5" stroke="#000000" stroke-linejoin="round" stroke-miterlimit="10" fill="none" fill-rule="evenodd"/><path d="M200.5 351.5 200.5 358.5" stroke="#000000" stroke-linejoin="round" stroke-miterlimit="10" fill="none" fill-rule="evenodd"/><path d="M200.5 369.5 200.5 375.5" stroke="#000000" stroke-linejoin="round" stroke-miterlimit="10" fill="none" fill-rule="evenodd"/><path d="M0 0 5 12" stroke="#000000" stroke-linejoin="round" stroke-miterlimit="10" fill="none" fill-rule="evenodd" transform="matrix(1 0 0 -1 200.5 369.5)"/><path d="M200.5 358.5 206.5 358.5" stroke="#000000" stroke-linejoin="round" stroke-miterlimit="10" fill="none" fill-rule="evenodd"/><text font-family="Arial,Arial_MSFontService,sans-serif" font-weight="400" font-size="9" transform="translate(213.333 389)">7<tspan font-size="9" x="-17" y="0">7</tspan></text><path d="M210.5 352.5 210.5 392.5" stroke="#000000" stroke-linejoin="round" stroke-miterlimit="10" fill="none" fill-rule="evenodd"/><path d="M267.5 376.5 299.5 376.5" stroke="#000000" stroke-linejoin="round" stroke-miterlimit="10" fill="none" fill-rule="evenodd"/><path d="M293.5 351.5 293.5 358.5" stroke="#000000" stroke-linejoin="round" stroke-miterlimit="10" fill="none" fill-rule="evenodd"/><path d="M293.5 369.5 293.5 375.5" stroke="#000000" stroke-linejoin="round" stroke-miterlimit="10" fill="none" fill-rule="evenodd"/><path d="M287.5 357.5 293.5 369.5" stroke="#000000" stroke-linejoin="round" stroke-miterlimit="10" fill="none" fill-rule="evenodd"/><path d="M273.5 351.5 273.5 358.5" stroke="#000000" stroke-linejoin="round" stroke-miterlimit="10" fill="none" fill-rule="evenodd"/><path d="M273.5 369.5 273.5 375.5" stroke="#000000" stroke-linejoin="round" stroke-miterlimit="10" fill="none" fill-rule="evenodd"/><path d="M0 0 5 12" stroke="#000000" stroke-linejoin="round" stroke-miterlimit="10" fill="none" fill-rule="evenodd" transform="matrix(1 0 0 -1 273.5 369.5)"/><path d="M273.5 358.5 279.5 358.5" stroke="#000000" stroke-linejoin="round" stroke-miterlimit="10" fill="none" fill-rule="evenodd"/><text font-family="Arial,Arial_MSFontService,sans-serif" font-weight="400" font-size="9" transform="translate(285.5 389)">2<tspan font-size="9" x="0" y="12">5</tspan><tspan font-size="9" x="-17" y="0">2</tspan><tspan font-size="9" x="-17" y="12">5</tspan></text><path d="M283.5 352.5 283.5 404.5" stroke="#000000" stroke-linejoin="round" stroke-miterlimit="10" fill="none" fill-rule="evenodd"/><path d="M405.5 376.5 437.5 376.5" stroke="#000000" stroke-linejoin="round" stroke-miterlimit="10" fill="none" fill-rule="evenodd"/><path d="M431.5 351.5 431.5 358.5" stroke="#000000" stroke-linejoin="round" stroke-miterlimit="10" fill="none" fill-rule="evenodd"/><path d="M431.5 369.5 431.5 375.5" stroke="#000000" stroke-linejoin="round" stroke-miterlimit="10" fill="none" fill-rule="evenodd"/><path d="M425.5 357.5 431.5 369.5" stroke="#000000" stroke-linejoin="round" stroke-miterlimit="10" fill="none" fill-rule="evenodd"/><path d="M411.5 351.5 411.5 358.5" stroke="#000000" stroke-linejoin="round" stroke-miterlimit="10" fill="none" fill-rule="evenodd"/><path d="M411.5 369.5 411.5 375.5" stroke="#000000" stroke-linejoin="round" stroke-miterlimit="10" fill="none" fill-rule="evenodd"/><path d="M0 0 5 12" stroke="#000000" stroke-linejoin="round" stroke-miterlimit="10" fill="none" fill-rule="evenodd" transform="matrix(1 0 0 -1 411.5 369.5)"/><path d="M411.5 358.5 417.5 358.5" stroke="#000000" stroke-linejoin="round" stroke-miterlimit="10" fill="none" fill-rule="evenodd"/><text font-family="Arial,Arial_MSFontService,sans-serif" font-weight="400" font-size="9" transform="translate(423.667 389)">7<tspan font-size="9" x="-17" y="0">7</tspan><tspan fill="#31586C" font-size="12" x="-445.691" y="-303">PARO_GRAL</tspan></text></g></svg>