<svg width="631" height="336" xmlns="http://www.w3.org/2000/svg" xmlns:xlink="http://www.w3.org/1999/xlink" overflow="hidden"><defs><clipPath id="clip0"><rect x="2" y="0" width="631" height="336"/></clipPath></defs><g clip-path="url(#clip0)" transform="translate(-2 0)"><rect x="58" y="23" width="562" height="263" fill="#FFFFFF"/><path d="M58.5001 286.5 620.5 286.5" stroke="#262626" stroke-width="0.500052" stroke-linejoin="round" stroke-miterlimit="10" fill="none" fill-rule="evenodd"/><path d="M58.5001 23.5001 620.5 23.5002" stroke="#262626" stroke-width="0.500052" stroke-linejoin="round" stroke-miterlimit="10" fill="none" fill-rule="evenodd"/><path d="M0 0 0.000104987 6" stroke="#262626" stroke-width="0.500052" stroke-linejoin="round" stroke-miterlimit="10" fill="none" fill-rule="evenodd" transform="matrix(1 0 0 -1 58.5001 286.5)"/><path d="M0 0 0.000104987 6" stroke="#262626" stroke-width="0.500052" stroke-linejoin="round" stroke-miterlimit="10" fill="none" fill-rule="evenodd" transform="matrix(1 0 0 -1 114.5 286.5)"/><path d="M0 0 0.000104987 6" stroke="#262626" stroke-width="0.500052" stroke-linejoin="round" stroke-miterlimit="10" fill="none" fill-rule="evenodd" transform="matrix(1 0 0 -1 170.5 286.5)"/><path d="M0 0 0.000104987 6" stroke="#262626" stroke-width="0.500052" stroke-linejoin="round" stroke-miterlimit="10" fill="none" fill-rule="evenodd" transform="matrix(1 0 0 -1 227.5 286.5)"/><path d="M0 0 0.000104987 6" stroke="#262626" stroke-width="0.500052" stroke-linejoin="round" stroke-miterlimit="10" fill="none" fill-rule="evenodd" transform="matrix(1 0 0 -1 283.5 286.5)"/><path d="M0 0 0.000104987 6" stroke="#262626" stroke-width="0.500052" stroke-linejoin="round" stroke-miterlimit="10" fill="none" fill-rule="evenodd" transform="matrix(1 0 0 -1 339.5 286.5)"/><path d="M0 0 0.000104987 6" stroke="#262626" stroke-width="0.500052" stroke-linejoin="round" stroke-miterlimit="10" fill="none" fill-rule="evenodd" transform="matrix(1 0 0 -1 395.5 286.5)"/><path d="M0 0 0.000104987 6" stroke="#262626" stroke-width="0.500052" stroke-linejoin="round" stroke-miterlimit="10" fill="none" fill-rule="evenodd" transform="matrix(1 0 0 -1 451.5 286.5)"/><path d="M0 0 0.000104987 6" stroke="#262626" stroke-width="0.500052" stroke-linejoin="round" stroke-miterlimit="10" fill="none" fill-rule="evenodd" transform="matrix(1 0 0 -1 507.5 286.5)"/><path d="M0 0 0.000104987 6" stroke="#262626" stroke-width="0.500052" stroke-linejoin="round" stroke-miterlimit="10" fill="none" fill-rule="evenodd" transform="matrix(1 0 0 -1 563.5 286.5)"/><path d="M0 0 0.000104987 6" stroke="#262626" stroke-width="0.500052" stroke-linejoin="round" stroke-miterlimit="10" fill="none" fill-rule="evenodd" transform="matrix(1 0 0 -1 620.5 286.5)"/><path d="M58.5001 23.5001 58.5002 29.5001" stroke="#262626" stroke-width="0.500052" stroke-linejoin="round" stroke-miterlimit="10" fill="none" fill-rule="evenodd"/><path d="M114.5 23.5001 114.5 29.5001" stroke="#262626" stroke-width="0.500052" stroke-linejoin="round" stroke-miterlimit="10" fill="none" fill-rule="evenodd"/><path d="M170.5 23.5001 170.5 29.5001" stroke="#262626" stroke-width="0.500052" stroke-linejoin="round" stroke-miterlimit="10" fill="none" fill-rule="evenodd"/><path d="M227.5 23.5001 227.5 29.5001" stroke="#262626" stroke-width="0.500052" stroke-linejoin="round" stroke-miterlimit="10" fill="none" fill-rule="evenodd"/><path d="M283.5 23.5001 283.5 29.5001" stroke="#262626" stroke-width="0.500052" stroke-linejoin="round" stroke-miterlimit="10" fill="none" fill-rule="evenodd"/><path d="M339.5 23.5001 339.5 29.5001" stroke="#262626" stroke-width="0.500052" stroke-linejoin="round" stroke-miterlimit="10" fill="none" fill-rule="evenodd"/><path d="M395.5 23.5001 395.5 29.5001" stroke="#262626" stroke-width="0.500052" stroke-linejoin="round" stroke-miterlimit="10" fill="none" fill-rule="evenodd"/><path d="M451.5 23.5001 451.5 29.5001" stroke="#262626" stroke-width="0.500052" stroke-linejoin="round" stroke-miterlimit="10" fill="none" fill-rule="evenodd"/><path d="M507.5 23.5001 507.5 29.5001" stroke="#262626" stroke-width="0.500052" stroke-linejoin="round" stroke-miterlimit="10" fill="none" fill-rule="evenodd"/><path d="M563.5 23.5001 563.5 29.5001" stroke="#262626" stroke-width="0.500052" stroke-linejoin="round" stroke-miterlimit="10" fill="none" fill-rule="evenodd"/><path d="M620.5 23.5001 620.5 29.5001" stroke="#262626" stroke-width="0.500052" stroke-linejoin="round" stroke-miterlimit="10" fill="none" fill-rule="evenodd"/><text fill="#262626" font-family="Arial,Arial_MSFontService,sans-serif" font-weight="400" font-size="11" transform="translate(54.2453 302)">0<tspan font-size="11" x="56.4151" y="0">1</tspan><tspan font-size="11" x="112.075" y="0">2</tspan><tspan font-size="11" x="168.491" y="0">3</tspan><tspan font-size="11" x="224.906" y="0">4</tspan><tspan font-size="11" x="281.321" y="0">5</tspan><tspan font-size="11" x="336.981" y="0">6</tspan><tspan font-size="11" x="393.396" y="0">7</tspan><tspan font-size="11" x="449.811" y="0">8</tspan><tspan font-size="11" x="505.472" y="0">9</tspan><tspan font-size="11" x="559.057" y="0">10</tspan><tspan font-family="Open Sans Light,Open Sans Light_MSFontService,sans-serif" font-weight="300" font-size="15" x="240" y="21">Time (seconds)</tspan></text><path d="M0 0 0.000104987 263" stroke="#262626" stroke-width="0.500052" stroke-linejoin="round" stroke-miterlimit="10" fill="none" fill-rule="evenodd" transform="matrix(1 0 0 -1 58.5001 286.5)"/><path d="M0 0 0.000104987 263" stroke="#262626" stroke-width="0.500052" stroke-linejoin="round" stroke-miterlimit="10" fill="none" fill-rule="evenodd" transform="matrix(1 0 0 -1 620.5 286.5)"/><path d="M58.5001 286.5 63.5001 286.5" stroke="#262626" stroke-width="0.500052" stroke-linejoin="round" stroke-miterlimit="10" fill="none" fill-rule="evenodd"/><path d="M58.5001 242.5 63.5001 242.5" stroke="#262626" stroke-width="0.500052" stroke-linejoin="round" stroke-miterlimit="10" fill="none" fill-rule="evenodd"/><path d="M58.5001 198.5 63.5001 198.5" stroke="#262626" stroke-width="0.500052" stroke-linejoin="round" stroke-miterlimit="10" fill="none" fill-rule="evenodd"/><path d="M58.5001 154.5 63.5001 154.5" stroke="#262626" stroke-width="0.500052" stroke-linejoin="round" stroke-miterlimit="10" fill="none" fill-rule="evenodd"/><path d="M58.5001 111.5 63.5001 111.5" stroke="#262626" stroke-width="0.500052" stroke-linejoin="round" stroke-miterlimit="10" fill="none" fill-rule="evenodd"/><path d="M58.5001 67.5001 63.5001 67.5002" stroke="#262626" stroke-width="0.500052" stroke-linejoin="round" stroke-miterlimit="10" fill="none" fill-rule="evenodd"/><path d="M58.5001 23.5001 63.5001 23.5002" stroke="#262626" stroke-width="0.500052" stroke-linejoin="round" stroke-miterlimit="10" fill="none" fill-rule="evenodd"/><path d="M0 0 6 0.000104987" stroke="#262626" stroke-width="0.500052" stroke-linejoin="round" stroke-miterlimit="10" fill="none" fill-rule="evenodd" transform="matrix(-1 0 0 1 620.5 286.5)"/><path d="M0 0 6 0.000104987" stroke="#262626" stroke-width="0.500052" stroke-linejoin="round" stroke-miterlimit="10" fill="none" fill-rule="evenodd" transform="matrix(-1 0 0 1 620.5 242.5)"/><path d="M0 0 6 0.000104987" stroke="#262626" stroke-width="0.500052" stroke-linejoin="round" stroke-miterlimit="10" fill="none" fill-rule="evenodd" transform="matrix(-1 0 0 1 620.5 198.5)"/><path d="M0 0 6 0.000104987" stroke="#262626" stroke-width="0.500052" stroke-linejoin="round" stroke-miterlimit="10" fill="none" fill-rule="evenodd" transform="matrix(-1 0 0 1 620.5 154.5)"/><path d="M0 0 6 0.000104987" stroke="#262626" stroke-width="0.500052" stroke-linejoin="round" stroke-miterlimit="10" fill="none" fill-rule="evenodd" transform="matrix(-1 0 0 1 620.5 111.5)"/><path d="M0 0 6 0.000104987" stroke="#262626" stroke-width="0.500052" stroke-linejoin="round" stroke-miterlimit="10" fill="none" fill-rule="evenodd" transform="matrix(-1 0 0 1 620.5 67.5001)"/><path d="M0 0 6 0.000104987" stroke="#262626" stroke-width="0.500052" stroke-linejoin="round" stroke-miterlimit="10" fill="none" fill-rule="evenodd" transform="matrix(-1 0 0 1 620.5 23.5001)"/><text fill="#262626" font-family="Arial,Arial_MSFontService,sans-serif" font-weight="400" font-size="11" transform="translate(45.7546 290)">0<tspan font-size="11" x="-10" y="-44">0.2</tspan><tspan font-size="11" x="-10" y="-88">0.4</tspan><tspan font-size="11" x="-10" y="-131">0.6</tspan><tspan font-size="11" x="-10" y="-175">0.8</tspan><tspan font-size="11" x="0" y="-219">1</tspan><tspan font-size="11" x="-10" y="-263">1.2</tspan></text><text fill="#262626" font-family="Open Sans Light,Open Sans Light_MSFontService,sans-serif" font-weight="300" font-size="15" transform="matrix(-1.83697e-16 -1 1 -1.83697e-16 21.5471 189)">ω<tspan font-size="15" x="14" y="2.57176e-15">(rad/s)</tspan></text><text font-family="Bahnschrift,Bahnschrift_MSFontService,sans-serif" font-weight="700" font-size="15" transform="translate(276.321 20)">Velocidad<tspan font-size="15" x="67.1667" y="0">motor CD</tspan></text><path d="M58 286 69.323 286 80.6461 286 91.7804 286 103.103 286 114.238 286 114.238 286 114.238 286 114.238 286 114.238 286 114.426 286 114.426 286 114.426 286 114.426 286 114.426 286 114.426 286 114.426 286 114.615 286 114.615 286 114.804 285.811 114.993 285.811 115.181 285.622 115.37 285.434 115.559 285.056 115.747 284.678 115.936 284.301 116.314 283.546 116.691 282.791 117.068 281.847 117.446 280.525 117.823 279.392 118.201 278.071 118.578 276.56 118.956 274.672 119.522 272.784 120.088 270.141 120.654 267.498 121.598 263.534 122.353 259.569 123.485 253.905 124.617 248.053 125.938 240.69 127.448 233.327 128.769 225.964 130.656 217.09 132.355 208.595 134.43 198.778 136.695 189.338 139.337 178.577 141.979 168.571 145.754 156.299 149.339 145.538 153.868 133.644 158.398 123.638 164.248 113.066 169.909 104.57 176.892 96.0741 184.063 89.6552 191.046 84.5578 198.028 80.5931 206.898 76.8172 215.956 74.1741 226.713 71.7198 237.47 70.2095 248.227 69.0767 258.984 68.5103 269.741 67.944 280.309 67.5664 291.066 67.3776 301.823 67.1888 312.58 67.1888 323.336 67 334.093 67 344.85 67 355.607 67 366.364 67 377.121 67 387.878 67 398.635 67 409.392 67 420.148 67 430.905 67 441.662 67 452.419 67 462.987 67 473.744 67 484.501 67 495.258 67 506.015 67 516.772 67 527.529 67 538.285 67 549.042 67 559.799 67 570.556 67 581.313 67 592.07 67 602.827 67 613.584 67 620 67" stroke="#0072BD" stroke-width="2.16672" stroke-linejoin="round" stroke-miterlimit="10" fill="none" fill-rule="evenodd"/><path d="M58 286 69.323 286 80.6461 286 91.7804 286 103.103 286 114.238 286 114.238 286 114.238 286 114.238 286 114.238 286 114.238 286 114.238 286 114.238 286 114.238 286 114.238 286 114.426 286 114.426 285.812 114.426 285.623 114.426 285.435 114.426 285.246 114.426 285.058 114.426 284.493 114.426 283.928 114.426 283.174 114.615 282.043 114.615 280.913 114.615 279.217 114.615 277.333 114.615 274.884 114.804 272.246 114.804 268.478 114.993 264.71 114.993 259.623 115.181 254.348 115.181 247.754 115.37 240.971 115.37 234.188 115.559 225.71 115.747 217.232 115.936 209.13 115.936 201.217 116.125 193.681 116.314 183.884 116.502 174.841 116.691 166.362 116.88 156.377 117.068 147.522 117.446 137.348 117.823 128.681 118.201 118.884 118.578 110.971 118.956 104.754 119.522 98.7246 120.088 94.2029 120.654 90.6232 121.22 87.7971 121.786 85.1594 122.353 82.8986 123.107 80.6377 124.051 78.942 124.995 76.8696 126.127 75.3623 127.637 73.2899 129.335 71.4058 131.788 69.3333 134.808 67.6377 138.394 66.3188 141.979 65.5652 146.508 65.1884 151.038 65 157.077 65.1884 163.116 65.5652 172.174 65.942 183.12 66.5072 194.254 66.6957 205.199 66.8841 216.334 67.0725 227.279 67.0725 238.414 67.0725 249.359 67.0725 260.494 67.0725 271.439 67.0725 282.574 67.0725 293.519 67.0725 304.653 67.0725 315.599 67.0725 326.733 67.0725 337.679 67.0725 348.813 67.0725 359.759 67.0725 370.893 67.0725 381.839 67.0725 392.973 67.0725 403.919 67.0725 415.053 67.0725 425.999 67.0725 437.133 67.0725 448.267 67.0725 459.213 67.0725 470.347 67.0725 481.293 67.0725 492.427 67.0725 503.373 67.0725 514.507 67.0725 525.453 67.0725 536.587 67.0725 547.533 67.0725 558.667 67.0725 569.612 67.0725 580.747 67.0725 591.692 67.0725 602.827 67.0725 613.772 67.0725 620 67.0725" stroke="#D95319" stroke-width="2.16672" stroke-linejoin="round" stroke-miterlimit="10" fill="none" fill-rule="evenodd"/><path d="M58 286 69.323 286 80.6461 286 91.7804 286 103.103 286 114.238 286 114.238 286 114.238 286 114.238 286 114.426 286 114.426 286 114.615 286 114.615 286 114.615 286 114.804 286 114.993 286 114.993 286 115.181 286 115.559 286 115.936 286 116.125 285.809 116.502 285.809 116.88 285.617 117.257 285.617 117.635 285.426 118.012 285.426 118.578 285.235 119.144 285.043 119.899 284.661 120.465 284.47 121.409 283.896 122.164 283.513 123.296 282.939 124.428 282.557 125.749 281.791 127.071 281.026 128.392 280.452 130.09 279.496 131.788 278.73 133.864 277.583 135.94 276.817 138.394 275.67 141.036 274.713 144.432 273.565 147.641 272.417 152.17 271.27 156.51 270.122 161.983 269.165 167.267 268.209 174.25 267.252 181.044 266.678 187.837 266.104 194.631 265.53 203.312 265.148 211.805 264.957 220.486 264.765 231.62 264.383 242.754 264.383 253.889 264.191 265.023 264.191 276.157 264.191 287.291 264 298.237 264 309.371 264 320.506 264 331.64 264 342.774 264 353.909 264 365.043 264 376.177 264 387.312 264 398.446 264 409.58 264 420.715 264 431.849 264 442.983 264 453.929 264 465.252 264 476.197 264 487.332 264 498.466 264 509.6 264 520.735 264 531.869 264 543.003 264 554.138 264 565.272 264 576.406 264 587.541 264 598.675 264 609.809 264 620 264" stroke="#EDB120" stroke-width="2.16672" stroke-linejoin="round" stroke-miterlimit="10" fill="none" fill-rule="evenodd"/><path d="M75.1773 287 80.6514 287 83.8604 287 83.8604 284.741 80.6514 284.741 75.1773 284.741 75.1773 287ZM92.3546 287 100.849 287 100.849 284.741 92.3546 284.741 92.3546 287ZM109.532 287 114.251 287 115.384 285.871 115.384 282.106 113.118 282.106 113.118 285.871 114.251 285.871 114.251 284.741 109.532 284.741 109.532 287ZM115.384 273.635 115.384 264.975 113.118 264.975 113.118 273.635 115.384 273.635ZM115.384 256.504 115.384 247.845 113.118 247.845 113.118 256.504 115.384 256.504ZM115.384 239.374 115.384 230.715 113.118 230.715 113.118 239.374 115.384 239.374ZM115.384 222.244 115.384 213.584 113.118 213.584 113.118 222.244 115.384 222.244ZM115.384 205.113 115.384 196.642 113.118 196.642 113.118 205.113 115.384 205.113ZM115.384 187.983 115.384 179.512 113.118 179.512 113.118 187.983 115.384 187.983ZM115.384 170.853 115.384 162.382 113.118 162.382 113.118 170.853 115.384 170.853ZM115.384 153.722 115.384 145.251 113.118 145.251 113.118 153.722 115.384 153.722ZM115.384 136.592 115.384 128.121 113.118 128.121 113.118 136.592 115.384 136.592ZM115.384 119.462 115.384 110.991 113.118 110.991 113.118 119.462 115.384 119.462ZM115.384 102.331 115.384 93.8603 113.118 93.8603 113.118 102.331 115.384 102.331ZM115.384 85.201 115.384 76.73 113.118 76.73 113.118 85.201 115.384 85.201ZM115.384 68.2589 115.384 67.1295 114.251 67.1295 114.251 68.2589 114.251 68.2589 114.251 68.2589 114.44 68.2589 114.44 68.2589 114.44 68.2589 114.44 68.2589 114.44 68.2589 114.44 68.2589 114.44 68.2589 114.629 68.2589 114.629 68.2589 114.817 68.2589 115.006 68.2589 115.195 68.2589 115.384 68.2589 115.572 68.2589 115.761 68.2589 115.95 68.2589 116.327 68.2589 116.705 68.2589 117.082 68.2589 117.46 68.2589 117.837 68.2589 118.215 68.2589 118.593 68.2589 118.97 68.2589 119.536 68.2589 120.103 68.2589 120.669 68.2589 121.613 68.2589 121.99 68.2589 121.99 66 121.613 66 120.669 66 120.103 66 119.536 66 118.97 66 118.593 66 118.215 66 117.837 66 117.46 66 117.082 66 116.705 66 116.327 66 115.95 66 115.761 66 115.572 66 115.384 66 115.195 66 115.006 66 114.817 66 114.629 66 114.629 66 114.44 66 114.44 66 114.44 66 114.44 66 114.44 66 114.44 66 114.44 66 114.251 66 114.251 66 114.251 66 113.118 67.1295 113.118 68.2589 115.384 68.2589ZM130.485 68.2589 130.673 68.2589 132.372 68.2589 134.449 68.2589 136.714 68.2589 138.979 68.2589 138.979 66 136.714 66 134.449 66 132.372 66 130.673 66 130.485 66 130.485 68.2589ZM147.662 68.2589 149.361 68.2589 153.891 68.2589 156.156 68.2589 156.156 66 153.891 66 149.361 66 147.662 66 147.662 68.2589ZM164.839 68.2589 169.936 68.2589 173.333 68.2589 173.333 66 169.936 66 164.839 66 164.839 68.2589ZM181.828 68.2589 184.093 68.2589 190.511 68.2589 190.511 66 184.093 66 181.828 66 181.828 68.2589ZM199.005 68.2589 206.933 68.2589 207.688 68.2589 207.688 66 206.933 66 199.005 66 199.005 68.2589ZM216.182 68.2589 224.677 68.2589 224.677 66 216.182 66 216.182 68.2589ZM233.36 68.2589 237.512 68.2589 241.854 68.2589 241.854 66 237.512 66 233.36 66 233.36 68.2589ZM250.537 68.2589 259.031 68.2589 259.031 66 250.537 66 250.537 68.2589ZM267.526 68.2589 269.791 68.2589 276.209 68.2589 276.209 66 269.791 66 267.526 66 267.526 68.2589ZM284.703 68.2589 291.121 68.2589 293.386 68.2589 293.386 66 291.121 66 284.703 66 284.703 68.2589ZM301.88 68.2589 301.88 68.2589 310.374 68.2589 310.374 66 301.88 66 301.88 66 301.88 68.2589ZM319.058 68.2589 323.399 68.2589 327.552 68.2589 327.552 66 323.399 66 319.058 66 319.058 68.2589ZM336.235 68.2589 344.729 68.2589 344.729 66 336.235 66 336.235 68.2589ZM353.223 68.2589 355.677 68.2589 361.906 68.2589 361.906 66 355.677 66 353.223 66 353.223 68.2589ZM370.401 68.2589 377.196 68.2589 379.084 68.2589 379.084 66 377.196 66 370.401 66 370.401 68.2589ZM387.578 68.2589 387.956 68.2589 396.072 68.2589 396.072 66 387.956 66 387.578 66 387.578 68.2589ZM404.755 68.2589 409.474 68.2589 413.25 68.2589 413.25 66 409.474 66 404.755 66 404.755 68.2589ZM421.933 68.2589 430.427 68.2589 430.427 66 421.933 66 421.933 68.2589ZM438.921 68.2589 441.753 68.2589 447.604 68.2589 447.604 66 441.753 66 438.921 66 438.921 68.2589ZM456.099 68.2589 463.083 68.2589 464.782 68.2589 464.782 66 463.083 66 456.099 66 456.099 68.2589ZM473.276 68.2589 473.842 68.2589 481.77 68.2589 481.77 66 473.842 66 473.276 66 473.276 68.2589ZM490.453 68.2589 495.361 68.2589 498.947 68.2589 498.947 66 495.361 66 490.453 66 490.453 68.2589ZM507.631 68.2589 516.125 68.2589 516.125 66 507.631 66 507.631 68.2589ZM524.619 68.2589 527.639 68.2589 533.302 68.2589 533.302 66 527.639 66 524.619 66 524.619 68.2589ZM541.796 68.2589 549.158 68.2589 550.479 68.2589 550.479 66 549.158 66 541.796 66 541.796 68.2589ZM558.974 68.2589 559.918 68.2589 567.468 68.2589 567.468 66 559.918 66 558.974 66 558.974 68.2589ZM576.151 68.2589 581.436 68.2589 584.645 68.2589 584.645 66 581.436 66 576.151 66 576.151 68.2589ZM593.328 68.2589 601.823 68.2589 601.823 66 593.328 66 593.328 68.2589ZM610.317 68.2589 613.715 68.2589 619 68.2589 619 66 613.715 66 610.317 66 610.317 68.2589ZM58 287 66.683 287 66.683 284.741 58 284.741 58 287Z" fill="#7E2F8E" fill-rule="evenodd"/><rect x="516" y="66" width="95" height="62" fill="#FFFFFF"/><text font-family="Arial,Arial_MSFontService,sans-serif" font-weight="400" font-size="15" transform="translate(542.736 83)">l. <tspan font-size="15" x="11.3333" y="0">abierto</tspan></text><path d="M504 75 540 75.0001" stroke="#0072BD" stroke-width="2.16672" stroke-linejoin="round" stroke-miterlimit="10" fill="none" fill-rule="evenodd"/><text font-family="Arial,Arial_MSFontService,sans-serif" font-weight="400" font-size="15" transform="translate(542.736 98)">l. cerrado</text><path d="M504 90 540 90.0001" stroke="#D95319" stroke-width="2.16672" stroke-linejoin="round" stroke-miterlimit="10" fill="none" fill-rule="evenodd"/><text font-family="Arial,Arial_MSFontService,sans-serif" font-weight="400" font-size="15" transform="translate(542.736 113)">sin control</text><path d="M504 104 540 104" stroke="#EDB120" stroke-width="2.16672" stroke-linejoin="round" stroke-miterlimit="10" fill="none" fill-rule="evenodd"/><text font-family="Arial,Arial_MSFontService,sans-serif" font-weight="400" font-size="15" transform="translate(542.736 127)">referencia</text><path d="M521.242 120 529.958 120 529.958 118 521.242 118 521.242 120ZM538.484 120 540 120 540 118 538.484 118 538.484 120ZM504 120 512.716 120 512.716 118 504 118 504 120Z" fill="#7E2F8E" fill-rule="evenodd"/><rect x="496.5" y="66.5001" width="116" height="65" stroke="#262626" stroke-width="0.500052" stroke-miterlimit="8" fill="none"/></g></svg>