<svg width="471" height="60" xmlns="http://www.w3.org/2000/svg" xmlns:xlink="http://www.w3.org/1999/xlink" overflow="hidden"><defs><clipPath id="clip0"><rect x="98" y="55" width="471" height="60"/></clipPath></defs><g clip-path="url(#clip0)" transform="translate(-98 -55)"><rect x="164.5" y="57.5001" width="200" height="56" stroke="#2C2C2C" stroke-width="1.33333" stroke-miterlimit="8" fill="none"/><text font-family="Cambria Math,Cambria Math_MSFontService,sans-serif" font-weight="400" font-size="15" transform="translate(241.251 79)">𝑠𝐽<tspan font-size="15" x="16.0467" y="0">+</tspan><tspan font-size="15" x="30.3067" y="0">𝐵</tspan></text><path d="M223.334 88.8031C224.76 89.1791 225.855 89.9909 226.619 91.2384 227.383 92.486 227.765 93.9911 227.765 95.7538 227.765 97.5214 227.384 99.0265 226.622 100.269 225.861 101.512 224.764 102.321 223.334 102.697L223.158 102.133C224.286 101.757 225.125 101.015 225.674 99.9066 226.223 98.7982 226.498 97.3895 226.498 95.6806 226.498 94.0302 226.224 92.6593 225.678 91.568 225.131 90.4767 224.283 89.7431 223.136 89.3671ZM182.154 88.8031 182.352 89.3671C181.209 89.7431 180.363 90.4767 179.814 91.568 179.264 92.6593 178.99 94.0302 178.99 95.6806 178.99 97.3895 179.264 98.7982 179.814 99.9066 180.363 101.015 181.202 101.757 182.33 102.133L182.154 102.697C180.723 102.321 179.627 101.512 178.865 100.269 178.104 99.0265 177.723 97.5214 177.723 95.7538 177.723 93.9911 178.105 92.486 178.869 91.2384 179.633 89.9909 180.728 89.1791 182.154 88.8031Z" fill-rule="evenodd"/><text font-family="Cambria Math,Cambria Math_MSFontService,sans-serif" font-weight="400" font-size="15" transform="translate(182.491 100)">𝑠𝐽<tspan font-size="15" x="16.0467" y="0">+</tspan><tspan font-size="15" x="30.3067" y="0">𝐵</tspan></text><path d="M292.14 88.8031C293.566 89.1791 294.661 89.9909 295.425 91.2384 296.19 92.486 296.572 93.9911 296.572 95.7538 296.572 97.5214 296.191 99.0265 295.429 100.269 294.667 101.512 293.571 102.321 292.14 102.697L291.965 102.133C293.093 101.757 293.931 101.015 294.481 99.9066 295.03 98.7982 295.305 97.3895 295.305 95.6806 295.305 94.0302 295.031 92.6593 294.484 91.568 293.937 90.4767 293.09 89.7431 291.943 89.3671ZM234.694 88.8031 234.892 89.3671C233.749 89.7431 232.903 90.4767 232.354 91.568 231.804 92.6593 231.53 94.0302 231.53 95.6806 231.53 97.3895 231.804 98.7982 232.354 99.9066 232.903 101.015 233.742 101.757 234.87 102.133L234.694 102.697C233.263 102.321 232.167 101.512 231.405 100.269 230.644 99.0265 230.263 97.5214 230.263 95.7538 230.263 93.9911 230.645 92.486 231.409 91.2384 232.173 89.9909 233.268 89.1791 234.694 88.8031Z" fill-rule="evenodd"/><text font-family="Cambria Math,Cambria Math_MSFontService,sans-serif" font-weight="400" font-size="15" transform="translate(235.031 100)">𝑅<tspan font-size="11" x="9.08" y="3">𝑎</tspan><tspan font-size="15" x="19.8733" y="0">+</tspan><tspan font-size="15" x="34.1333" y="0">𝑠</tspan><tspan font-size="15" x="41.2667" y="0">𝐿</tspan><tspan font-size="11" x="49.1" y="3">𝑎</tspan><tspan font-size="15" x="65.98" y="0">+</tspan><tspan font-size="15" x="80.24" y="0">𝐾</tspan><tspan font-size="11" x="89.2334" y="3">𝜏</tspan><tspan font-size="15" x="95.5667" y="0">𝐾</tspan><tspan font-size="11" x="104.56" y="3">𝑣</tspan></text><path d="M176.104 85.2066 218.604 85.2066 261.104 85.2066 303.604 85.2066 346.104 85.2066 346.104 86.2066 303.604 86.2066 261.104 86.2066 218.604 86.2066 176.104 86.2066Z" fill-rule="evenodd"/><rect x="428.5" y="57.5001" width="80" height="56" stroke="#2C2C2C" stroke-width="1.33333" stroke-miterlimit="8" fill="none"/><text font-family="Cambria Math,Cambria Math_MSFontService,sans-serif" font-weight="400" font-size="15" transform="translate(457.483 79)">𝐾<tspan font-size="11" x="8.99335" y="3">𝜏</tspan><tspan font-size="15" x="-12.52" y="21">𝑠𝐽</tspan><tspan font-size="15" x="3.52667" y="21">+</tspan><tspan font-size="15" x="17.7867" y="21">𝐵</tspan></text><path d="M444.817 85.3633 458.15 85.3633 471.483 85.3633 484.817 85.3633 484.817 86.3633 471.483 86.3633 458.15 86.3633 444.817 86.3633Z" fill-rule="evenodd"/><path d="M136.5 85.0001 157.688 85.0001 157.688 86.0001 136.5 86.0001ZM156.354 81.5001 164.354 85.5002 156.354 89.5001Z" fill="#3F3F3F"/><path d="M364.5 85.0001 421.542 85.0001 421.542 86.0001 364.5 86.0001ZM420.209 81.5001 428.209 85.5002 420.209 89.5001Z" fill="#3F3F3F"/><text font-family="Cambria Math,Cambria Math_MSFontService,sans-serif" font-weight="400" font-size="15" transform="translate(110.476 90)">𝑉<tspan font-size="11" x="5.72667" y="3">𝑎</tspan><tspan font-size="15" x="276.11" y="-16">𝐼</tspan><tspan font-size="11" x="280.75" y="-13">𝑎</tspan></text><path d="M391 85.5C391 84.1193 392.119 83 393.5 83 394.881 83 396 84.1193 396 85.5 396 86.8807 394.881 88 393.5 88 392.119 88 391 86.8807 391 85.5Z" fill-rule="evenodd"/><text font-family="Cambria Math,Cambria Math_MSFontService,sans-serif" font-weight="400" font-size="15" transform="translate(545.734 90)">Ω</text><path d="M508.5 85.0001 527.904 85.0001 527.904 86.0001 508.5 86.0001ZM526.571 81.5001 534.571 85.5002 526.571 89.5001Z" fill="#3F3F3F"/></g></svg>