<svg width="597" height="90" xmlns="http://www.w3.org/2000/svg" xmlns:xlink="http://www.w3.org/1999/xlink" overflow="hidden"><defs><clipPath id="clip0"><rect x="44" y="215" width="597" height="90"/></clipPath></defs><g clip-path="url(#clip0)" transform="translate(-44 -215)"><rect x="240.5" y="217.5" width="200" height="56" stroke="#2C2C2C" stroke-width="1.33333" stroke-miterlimit="8" fill="none"/><text font-family="Cambria Math,Cambria Math_MSFontService,sans-serif" font-weight="400" font-size="15" transform="translate(317.688 239)">𝑠𝐽<tspan font-size="15" x="16.0467" y="0">+</tspan><tspan font-size="15" x="30.3067" y="0">𝐵</tspan></text><path d="M299.77 248.803C301.196 249.179 302.291 249.991 303.055 251.238 303.819 252.486 304.201 253.991 304.201 255.754 304.201 257.521 303.821 259.027 303.059 260.269 302.297 261.512 301.201 262.321 299.77 262.697L299.595 262.133C300.722 261.757 301.561 261.015 302.11 259.907 302.66 258.798 302.934 257.39 302.934 255.681 302.934 254.03 302.661 252.659 302.114 251.568 301.567 250.477 300.72 249.743 299.573 249.367ZM258.59 248.803 258.788 249.367C257.646 249.743 256.8 250.477 256.25 251.568 255.701 252.659 255.426 254.03 255.426 255.681 255.426 257.39 255.701 258.798 256.25 259.907 256.8 261.015 257.638 261.757 258.766 262.133L258.59 262.697C257.16 262.321 256.064 261.512 255.302 260.269 254.54 259.027 254.159 257.521 254.159 255.754 254.159 253.991 254.541 252.486 255.305 251.238 256.07 249.991 257.165 249.179 258.59 248.803Z" fill-rule="evenodd"/><text font-family="Cambria Math,Cambria Math_MSFontService,sans-serif" font-weight="400" font-size="15" transform="translate(258.928 260)">𝑠𝐽<tspan font-size="15" x="16.0467" y="0">+</tspan><tspan font-size="15" x="30.3067" y="0">𝐵</tspan></text><path d="M368.577 248.803C370.003 249.179 371.098 249.991 371.862 251.238 372.626 252.486 373.008 253.991 373.008 255.754 373.008 257.521 372.627 259.027 371.866 260.269 371.104 261.512 370.008 262.321 368.577 262.697L368.401 262.133C369.529 261.757 370.368 261.015 370.917 259.907 371.466 258.798 371.741 257.39 371.741 255.681 371.741 254.03 371.468 252.659 370.921 251.568 370.374 250.477 369.527 249.743 368.379 249.367ZM311.13 248.803 311.328 249.367C310.186 249.743 309.34 250.477 308.79 251.568 308.241 252.659 307.966 254.03 307.966 255.681 307.966 257.39 308.241 258.798 308.79 259.907 309.34 261.015 310.178 261.757 311.306 262.133L311.13 262.697C309.7 262.321 308.604 261.512 307.842 260.269 307.08 259.027 306.699 257.521 306.699 255.754 306.699 253.991 307.081 252.486 307.845 251.238 308.61 249.991 309.705 249.179 311.13 248.803Z" fill-rule="evenodd"/><text font-family="Cambria Math,Cambria Math_MSFontService,sans-serif" font-weight="400" font-size="15" transform="translate(311.468 260)">𝑅<tspan font-size="11" x="9.07999" y="3">𝑎</tspan><tspan font-size="15" x="19.8733" y="0">+</tspan><tspan font-size="15" x="34.1333" y="0">𝑠</tspan><tspan font-size="15" x="41.2667" y="0">𝐿</tspan><tspan font-size="11" x="49.1" y="3">𝑎</tspan><tspan font-size="15" x="65.98" y="0">+</tspan><tspan font-size="15" x="80.24" y="0">𝐾</tspan><tspan font-size="11" x="89.2333" y="3">𝜏</tspan><tspan font-size="15" x="95.5667" y="0">𝐾</tspan><tspan font-size="11" x="104.56" y="3">𝑣</tspan></text><path d="M252.541 245.207 295.041 245.207 337.541 245.207 380.041 245.207 422.541 245.207 422.541 246.207 380.041 246.207 337.541 246.207 295.041 246.207 252.541 246.207Z" fill-rule="evenodd"/><rect x="504.5" y="217.5" width="80" height="56" stroke="#2C2C2C" stroke-width="1.33333" stroke-miterlimit="8" fill="none"/><text font-family="Cambria Math,Cambria Math_MSFontService,sans-serif" font-weight="400" font-size="15" transform="translate(533.92 239)">𝐾<tspan font-size="11" x="8.99335" y="3">𝜏</tspan><tspan font-size="15" x="-12.52" y="21">𝑠𝐽</tspan><tspan font-size="15" x="3.52667" y="21">+</tspan><tspan font-size="15" x="17.7867" y="21">𝐵</tspan></text><path d="M521.253 245.363 534.587 245.363 547.92 245.363 561.253 245.363 561.253 246.363 547.92 246.363 534.587 246.363 521.253 246.363Z" fill-rule="evenodd"/><path d="M104.5 245.5C104.5 236.663 111.663 229.5 120.5 229.5 129.337 229.5 136.5 236.663 136.5 245.5 136.5 254.337 129.337 261.5 120.5 261.5 111.663 261.5 104.5 254.337 104.5 245.5Z" stroke="#2C2C2C" stroke-width="1.33333" stroke-miterlimit="8" fill="none" fill-rule="evenodd"/><path d="M108.5 245.5 116.5 245.5" stroke="#3F3F3F" stroke-miterlimit="8" fill="none" fill-rule="evenodd"/><path d="M112.5 241.5 112.5 249.5" stroke="#3F3F3F" stroke-miterlimit="8" fill="none" fill-rule="evenodd"/><path d="M116.5 257.5 124.5 257.5" stroke="#3F3F3F" stroke-miterlimit="8" fill="none" fill-rule="evenodd"/><path d="M198.5 245 234.467 245 234.467 246 198.5 246ZM233.133 241.5 241.133 245.5 233.133 249.5Z" fill="#3F3F3F"/><path d="M440.5 245 497.542 245 497.542 246 440.5 246ZM496.209 241.5 504.209 245.5 496.209 249.5Z" fill="#3F3F3F"/><text font-family="Cambria Math,Cambria Math_MSFontService,sans-serif" font-weight="400" font-size="15" transform="translate(56.4241 250)">𝑅</text><path d="M78.5001 245 97.4192 245 97.4192 246 78.5001 246ZM96.0859 241.5 104.086 245.5 96.0859 249.5Z" fill="#3F3F3F"/><path d="M470.6 248.5 470.6 304.6 120 304.6 120 268.634 121 268.634 121 304.1 120.5 303.6 470.1 303.6 469.6 304.1 469.6 248.5ZM116.5 269.967 120.5 261.967 124.5 269.967Z" fill="#3F3F3F"/><text font-family="Cambria Math,Cambria Math_MSFontService,sans-serif" font-weight="400" font-size="15" transform="translate(463.023 234)">𝐼<tspan font-size="11" x="4.63998" y="3">𝑎</tspan></text><path d="M467 245.5C467 244.119 468.119 243 469.5 243 470.881 243 472 244.119 472 245.5 472 246.881 470.881 248 469.5 248 468.119 248 467 246.881 467 245.5Z" fill-rule="evenodd"/><text font-family="Cambria Math,Cambria Math_MSFontService,sans-serif" font-weight="400" font-size="15" transform="translate(617.734 250)">Ω</text><path d="M584.5 245 599.468 245 599.468 246 584.5 246ZM598.134 241.5 606.134 245.5 598.134 249.5Z" fill="#3F3F3F"/><rect x="160.5" y="229.5" width="38" height="32" stroke="#2C2C2C" stroke-width="1.33333" stroke-miterlimit="8" fill="none"/><text font-family="Cambria Math,Cambria Math_MSFontService,sans-serif" font-weight="400" font-size="15" transform="translate(168.845 250)">𝑃𝐼</text><path d="M136.5 245 153.833 245 153.833 246 136.5 246ZM152.5 241.5 160.5 245.5 152.5 249.5Z" fill="#3F3F3F"/><text font-family="Cambria Math,Cambria Math_MSFontService,sans-serif" font-weight="400" font-size="15" transform="translate(212.37 234)">𝑉<tspan font-size="11" x="5.72667" y="3">𝑎</tspan></text></g></svg>