<svg width="491" height="386" xmlns="http://www.w3.org/2000/svg" xmlns:xlink="http://www.w3.org/1999/xlink" overflow="hidden"><defs><clipPath id="clip0"><rect x="84" y="25" width="491" height="386"/></clipPath></defs><g clip-path="url(#clip0)" transform="translate(-84 -25)"><rect x="125" y="117" width="120" height="40" fill="#ADB9CA"/><path d="M245.5 137 270.833 137 270.833 138 245.5 138ZM269.5 133.5 277.5 137.5 269.5 141.5Z" fill="#3F3F3F"/><path d="M1.64042e-06-0.5 25.3333-0.499917 25.3333 0.500083-1.64042e-06 0.5ZM24-3.99992 32 0.000104987 24 4.00008Z" fill="#3F3F3F" transform="matrix(-1 0 0 1 125.5 137.5)"/><path d="M0.5-3.85981e-07 0.5001 129.333-0.4999 129.333-0.5 3.85981e-07ZM4.0001 128 0.000104987 136-3.9999 128Z" fill="#3F3F3F" transform="matrix(1 0 0 -1 338.5 205.5)"/><path d="M338.5 141 540.999 141 540.999 142 338.5 142ZM539.666 137.5 547.666 141.5 539.666 145.5Z" fill="#3F3F3F"/><path d="M338.5 166.5C346.478 142.071 354.457 117.641 361.175 117.5 367.894 117.359 372.933 165.514 378.812 165.655 384.69 165.796 390.429 118.345 396.448 118.345 402.467 118.345 409.045 165.655 414.924 165.655 420.803 165.655 426.122 118.345 431.721 118.345 437.32 118.345 442.639 165.655 448.517 165.655 454.396 165.655 461.675 118.204 466.994 118.345 472.312 118.486 475.112 166.5 480.431 166.5 485.75 166.5 493.028 118.486 498.907 118.345 504.786 118.204 510.105 165.796 515.703 165.655 521.302 165.514 526.901 141.507 532.5 117.5" stroke="#2C2C2C" stroke-width="1.33333" stroke-miterlimit="8" fill="none" fill-rule="evenodd"/><text font-family="LM Roman 12,LM Roman 12_MSFontService,sans-serif" font-weight="400" font-size="15" transform="translate(250.737 45)">Totalmente reversible<tspan font-size="15" x="34.5844" y="205">Fluctuante</tspan></text><rect x="125" y="322" width="120" height="40" fill="#ADB9CA"/><path d="M245.5 342 270.833 342 270.833 343 245.5 343ZM269.5 338.5 277.5 342.5 269.5 346.5Z" fill="#3F3F3F"/><path d="M1.64042e-06-0.5 25.3333-0.499917 25.3333 0.500083-1.64042e-06 0.5ZM24-3.99992 32 0.000104987 24 4.00008Z" fill="#3F3F3F" transform="matrix(-1 0 0 1 125.5 342.5)"/><path d="M0.5-3.85981e-07 0.5001 129.333-0.4999 129.333-0.5 3.85981e-07ZM4.0001 128 0.000104987 136-3.9999 128Z" fill="#3F3F3F" transform="matrix(1 0 0 -1 338.5 410.5)"/><path d="M338.5 346 540.999 346 540.999 347 338.5 347ZM539.666 342.5 547.666 346.5 539.666 350.5Z" fill="#3F3F3F"/><text font-family="Cambria Math,Cambria Math_MSFontService,sans-serif" font-weight="400" font-size="15" transform="translate(316.956 75)">ğœ<tspan font-size="15" x="238.872" y="85">ğ‘¡</tspan><tspan font-size="15" x="239.131" y="277">ğ‘¡</tspan><tspan font-size="15" x="-0.156433" y="211">ğœ</tspan></text><path d="M337.5 309.5 544.171 309.5" stroke="#3F3F3F" stroke-miterlimit="8" fill="none" fill-rule="evenodd"/><path d="M336.5 358.5 543.171 358.5" stroke="#3F3F3F" stroke-miterlimit="8" fill="none" fill-rule="evenodd"/><text font-family="Cambria Math,Cambria Math_MSFontService,sans-serif" font-weight="400" font-size="15" transform="translate(296.381 358)">ğœ<tspan font-size="11" x="7.5" y="3">ğ‘šğ‘–ğ‘›</tspan><tspan font-size="15" x="-1.65878" y="-49">ğœ</tspan><tspan font-size="11" x="5.84122" y="-46">ğ‘šğ‘ğ‘¥</tspan></text><path d="M339.5 358.5C347.52 334.071 355.539 309.641 362.292 309.5 369.045 309.359 374.11 357.514 380.02 357.655 385.929 357.796 391.697 310.345 397.747 310.345 403.797 310.345 410.409 357.655 416.318 357.655 422.227 357.655 427.574 310.345 433.201 310.345 438.829 310.345 444.175 357.655 450.084 357.655 455.993 357.655 463.31 310.204 468.656 310.345 474.002 310.486 476.816 358.5 482.162 358.5 487.509 358.5 494.825 310.486 500.734 310.345 506.643 310.204 511.989 357.796 517.617 357.655 523.245 357.514 528.872 333.507 534.5 309.5" stroke="#2C2C2C" stroke-width="1.33333" stroke-miterlimit="8" fill="none" fill-rule="evenodd"/></g></svg>