<svg width="491" height="386" xmlns="http://www.w3.org/2000/svg" xmlns:xlink="http://www.w3.org/1999/xlink" overflow="hidden"><defs><clipPath id="clip0"><rect x="84" y="25" width="491" height="386"/></clipPath></defs><g clip-path="url(#clip0)" transform="translate(-84 -25)"><rect x="125" y="117" width="120" height="40" fill="#ADB9CA"/><path d="M245.5 137 270.833 137 270.833 138 245.5 138ZM269.5 133.5 277.5 137.5 269.5 141.5Z" fill="#3F3F3F"/><path d="M1.64042e-06-0.5 25.3333-0.499917 25.3333 0.500083-1.64042e-06 0.5ZM24-3.99992 32 0.000104987 24 4.00008Z" fill="#3F3F3F" transform="matrix(-1 0 0 1 125.5 137.5)"/><path d="M0.5-3.85981e-07 0.5001 129.333-0.4999 129.333-0.5 3.85981e-07ZM4.0001 128 0.000104987 136-3.9999 128Z" fill="#3F3F3F" transform="matrix(1 0 0 -1 338.5 205.5)"/><path d="M338.5 141 540.999 141 540.999 142 338.5 142ZM539.666 137.5 547.666 141.5 539.666 145.5Z" fill="#3F3F3F"/><path d="M338.5 158.5C346.478 134.071 354.457 109.641 361.175 109.5 367.894 109.359 372.933 157.514 378.812 157.655 384.69 157.796 390.429 110.345 396.448 110.345 402.467 110.345 409.045 157.655 414.924 157.655 420.803 157.655 426.122 110.345 431.721 110.345 437.32 110.345 442.639 157.655 448.517 157.655 454.396 157.655 461.675 110.204 466.994 110.345 472.312 110.486 475.112 158.5 480.431 158.5 485.75 158.5 493.028 110.486 498.907 110.345 504.786 110.204 510.105 157.796 515.703 157.655 521.302 157.514 526.901 133.507 532.5 109.5" stroke="#2C2C2C" stroke-width="1.33333" stroke-miterlimit="8" fill="none" fill-rule="evenodd"/><text font-family="LM Roman 12,LM Roman 12_MSFontService,sans-serif" font-weight="400" font-size="15" transform="translate(285.322 45)">Fluctuante<tspan font-size="15" x="6.90005" y="205">Variante</tspan></text><rect x="125" y="322" width="120" height="40" fill="#ADB9CA"/><path d="M245.5 342 270.833 342 270.833 343 245.5 343ZM269.5 338.5 277.5 342.5 269.5 346.5Z" fill="#3F3F3F"/><path d="M1.64042e-06-0.5 25.3333-0.499917 25.3333 0.500083-1.64042e-06 0.5ZM24-3.99992 32 0.000104987 24 4.00008Z" fill="#3F3F3F" transform="matrix(-1 0 0 1 125.5 342.5)"/><path d="M0.5-3.85981e-07 0.5001 129.333-0.4999 129.333-0.5 3.85981e-07ZM4.0001 128 0.000104987 136-3.9999 128Z" fill="#3F3F3F" transform="matrix(1 0 0 -1 338.5 410.5)"/><path d="M338.5 346 540.999 346 540.999 347 338.5 347ZM539.666 342.5 547.666 346.5 539.666 350.5Z" fill="#3F3F3F"/><text font-family="Cambria Math,Cambria Math_MSFontService,sans-serif" font-weight="400" font-size="15" transform="translate(316.956 75)">ğœ<tspan font-size="15" x="238.872" y="85">ğ‘¡</tspan><tspan font-size="15" x="239.131" y="277">ğ‘¡</tspan><tspan font-size="15" x="-0.156433" y="211">ğœ</tspan></text><path d="M336.5 358.5 543.171 358.5" stroke="#3F3F3F" stroke-miterlimit="8" fill="none" fill-rule="evenodd"/><text font-family="Cambria Math,Cambria Math_MSFontService,sans-serif" font-weight="400" font-size="15" transform="translate(296.381 358)">ğœ<tspan font-size="11" x="7.5" y="3">ğ‘šğ‘–ğ‘›</tspan></text><path d="M339.5 358.525C347.495 334.198 355.49 309.871 362.222 309.731 368.954 309.591 374.004 355.945 379.894 357.684 385.785 359.423 391.536 320.163 397.567 320.163 403.598 320.163 410.324 363.412 416.081 357.684 421.839 351.956 426.236 280.336 432.113 285.797 437.99 291.258 445.185 388.054 451.342 390.452 457.5 392.849 463.994 305.504 469.057 300.183 474.12 294.862 476.659 357.859 481.722 358.525 486.786 359.191 493.546 304.319 499.437 304.179 505.328 304.039 511.457 357.824 517.067 357.684 522.678 357.544 525.89 349.622 531.5 325.715" stroke="#2C2C2C" stroke-width="1.33333" stroke-miterlimit="8" fill="none" fill-rule="evenodd"/></g></svg>