<svg width="470" height="283" xmlns="http://www.w3.org/2000/svg" xmlns:xlink="http://www.w3.org/1999/xlink" overflow="hidden"><defs><clipPath id="clip0"><rect x="63" y="49" width="470" height="283"/></clipPath></defs><g clip-path="url(#clip0)" transform="translate(-63 -49)"><text font-family="Cambria Math,Cambria Math_MSFontService,sans-serif" font-weight="400" font-size="16" transform="translate(513.872 219)">𝑡<tspan font-size="16" x="-403.707" y="-149">𝜎</tspan></text><path d="M0.5-2.0975e-07 0.500102 243.6-0.499898 243.6-0.5 2.0975e-07ZM4.0001 242.267 0.000104987 250.267-3.9999 242.267Z" fill="#3F3F3F" transform="matrix(1 0 0 -1 115.5 331.767)"/><path d="M115.5 213 493.741 213 493.741 214 115.5 214ZM492.407 209.5 500.407 213.5 492.407 217.5Z" fill="#3F3F3F"/><path d="M115.5 235.462C142.608 190.978 167.775 145.757 190.603 145.501 213.43 145.244 232.644 233.801 252.467 233.923 272.289 234.046 289.312 145.975 309.536 146.237 329.76 146.5 350.65 235.365 373.81 235.5 396.971 235.635 429.251 147.308 448.5 147.045" stroke="#2C2C2C" stroke-width="1.33333" stroke-miterlimit="8" fill="none" fill-rule="evenodd"/><path d="M113.5 145.5 493.817 145.5" stroke="#3F3F3F" stroke-miterlimit="8" stroke-dasharray="8 3" fill="none" fill-rule="evenodd"/><path d="M112.5 235.5 492.817 235.5" stroke="#3F3F3F" stroke-miterlimit="8" stroke-dasharray="8 3" fill="none" fill-rule="evenodd"/><path d="M112.5 189.5 492.817 189.5" stroke="#3F3F3F" stroke-miterlimit="8" stroke-dasharray="8 3" fill="none" fill-rule="evenodd"/><text font-family="Cambria Math,Cambria Math_MSFontService,sans-serif" font-weight="400" font-size="16" transform="translate(76.1805 236)">𝜎<tspan font-size="12" x="8.24" y="3">𝑚𝑖𝑛</tspan><tspan font-size="16" x="-2.34888" y="-92">𝜎</tspan><tspan font-size="12" x="5.89113" y="-88">𝑚𝑎𝑥</tspan><tspan font-size="16" x="11.7999" y="-44">𝜎</tspan><tspan font-size="12" x="20.0399" y="-41">𝑚</tspan></text><path d="M253 198.167 253 227.475 252 227.475 252 198.167ZM248.5 199.5 252.5 191.5 256.5 199.5ZM256.5 226.142 252.5 234.142 248.5 226.142Z" fill="#3F3F3F"/><path d="M309 152.167 309 181.475 308 181.475 308 152.167ZM304.5 153.5 308.5 145.5 312.5 153.5ZM312.5 180.142 308.5 188.142 304.5 180.142Z" fill="#3F3F3F"/><text font-family="Cambria Math,Cambria Math_MSFontService,sans-serif" font-weight="400" font-size="16" transform="translate(311.734 174)">𝜎<tspan font-size="12" x="8.23999" y="4">𝑎</tspan><tspan font-size="16" x="-79.0752" y="31">𝜎</tspan><tspan font-size="12" x="-70.8352" y="35">𝑎</tspan></text></g></svg>