<svg width="434" height="142" xmlns="http://www.w3.org/2000/svg" xmlns:xlink="http://www.w3.org/1999/xlink" overflow="hidden"><defs><clipPath id="clip0"><rect x="63" y="180" width="434" height="142"/></clipPath></defs><g clip-path="url(#clip0)" transform="translate(-63 -180)"><path d="M160.5 205.5 184.5 181.5 432.5 181.5 432.5 253.5 408.5 277.5 160.5 277.5ZM160.5 205.5 408.5 205.5 432.5 181.5M408.5 205.5 408.5 277.5" stroke="#2C2C2C" stroke-width="1.33333" stroke-miterlimit="8" fill="none" fill-rule="evenodd"/><path d="M456 234 486 234 486 229 496 239 486 249 486 244 456 244Z" fill-rule="evenodd"/><path d="M0 5 30 5 30 0 40 10 30 20 30 15 0 15Z" fill-rule="evenodd" transform="matrix(-1 0 0 1 104 229)"/><path d="M5.0676 4.36049 19.6395 18.9324 18.9324 19.6395 4.36049 5.0676ZM2.82843 8.48528 0 0 8.48528 2.82843ZM21.1716 15.5147 24 24 15.5147 21.1716Z" fill="#3F3F3F" transform="matrix(1 0 0 -1 408.5 285.5)"/><path d="M167.167 285 402.254 285 402.254 286 167.167 286ZM168.5 289.5 160.5 285.5 168.5 281.5ZM400.921 281.5 408.921 285.5 400.921 289.5Z" fill="#3F3F3F"/><path d="M0.50001 6.66666 0.500095 64.997-0.499905 64.997-0.49999 6.66666ZM-3.99999 8.00001 0 0 4.00001 7.99999ZM4.00009 63.6636 0.000104987 71.6636-3.99991 63.6636Z" fill="#3F3F3F" transform="matrix(1 0 0 -1 152.5 278.164)"/><text font-family="LM Roman 12,LM Roman 12_MSFontService,sans-serif" font-weight="400" font-size="15" transform="translate(267.96 308)">10 in<tspan font-size="15" x="153.597" y="-14">1 in</tspan><tspan font-size="15" x="-147.202" y="-62">2</tspan><tspan font-size="15" x="-135.202" y="-62">in</tspan></text></g></svg>