<svg width="316" height="285" xmlns="http://www.w3.org/2000/svg" xmlns:xlink="http://www.w3.org/1999/xlink" overflow="hidden"><defs><clipPath id="clip0"><rect x="135" y="43" width="316" height="285"/></clipPath></defs><g clip-path="url(#clip0)" transform="translate(-135 -43)"><path d="M8 0 40 0C44.4183-7.10543e-15 48 7.16344 48 16 48 24.8366 44.4183 32 40 32L8 32C3.58172 32 0 24.8366 0 16 0 7.16344 3.58172 7.10543e-15 8 2.36848e-15Z" fill="#E4EEF3" fill-rule="evenodd" transform="matrix(-1 0 0 1 448.5 181.5)"/><path d="M40 32C35.5817 32 32 24.8366 32 16 32 7.16344 35.5817 7.10543e-15 40 2.36848e-15" stroke="#2C2C2C" stroke-width="1.33333" stroke-miterlimit="8" fill="none" fill-rule="evenodd" transform="matrix(-1 0 0 1 448.5 181.5)"/><path d="M8 0 40 0C44.4183-7.10543e-15 48 7.16344 48 16 48 24.8366 44.4183 32 40 32L8 32C3.58172 32 0 24.8366 0 16 0 7.16344 3.58172 7.10543e-15 8 2.36848e-15Z" stroke="#2C2C2C" stroke-width="1.33333" stroke-miterlimit="8" fill="none" fill-rule="evenodd" transform="matrix(-1 0 0 1 448.5 181.5)"/><path d="M28 0 140 0C155.464-2.13163e-14 168 21.4903 168 48 168 74.5097 155.464 96 140 96L28 96C12.536 96 0 74.5097 0 48 0 21.4903 12.536 2.13163e-14 28 7.10543e-15Z" fill="#E4EEF3" fill-rule="evenodd" transform="matrix(-1 0 0 1 424.5 149.5)"/><path d="M140 96C124.536 96 112 74.5097 112 48 112 21.4903 124.536 2.13163e-14 140 7.10543e-15" stroke="#2C2C2C" stroke-width="1.33333" stroke-miterlimit="8" fill="none" fill-rule="evenodd" transform="matrix(-1 0 0 1 424.5 149.5)"/><path d="M28 0 140 0C155.464-2.13163e-14 168 21.4903 168 48 168 74.5097 155.464 96 140 96L28 96C12.536 96 0 74.5097 0 48 0 21.4903 12.536 2.13163e-14 28 7.10543e-15Z" stroke="#2C2C2C" stroke-width="1.33333" stroke-miterlimit="8" fill="none" fill-rule="evenodd" transform="matrix(-1 0 0 1 424.5 149.5)"/><path d="M25.3333 0 126.667 0C140.658-1.77636e-14 152 17.9086 152 40 152 62.0914 140.658 80 126.667 80L25.3333 80C11.3421 80 0 62.0914 0 40 0 17.9086 11.3421 1.77636e-14 25.3333 5.92119e-15Z" fill="#E4EEF3" fill-rule="evenodd" transform="matrix(-1 0 0 1 304.5 157.5)"/><path d="M126.667 80C112.675 80 101.333 62.0914 101.333 40 101.333 17.9086 112.675 1.77636e-14 126.667 5.92119e-15" stroke="#2C2C2C" stroke-width="1.33333" stroke-miterlimit="8" fill="none" fill-rule="evenodd" transform="matrix(-1 0 0 1 304.5 157.5)"/><path d="M25.3333 0 126.667 0C140.658-1.77636e-14 152 17.9086 152 40 152 62.0914 140.658 80 126.667 80L25.3333 80C11.3421 80 0 62.0914 0 40 0 17.9086 11.3421 1.77636e-14 25.3333 5.92119e-15Z" stroke="#2C2C2C" stroke-width="1.33333" stroke-miterlimit="8" fill="none" fill-rule="evenodd" transform="matrix(-1 0 0 1 304.5 157.5)"/><path d="M8 0 40 0C44.4183-7.10543e-15 48 7.16344 48 16 48 24.8366 44.4183 32 40 32L8 32C3.58172 32 0 24.8366 0 16 0 7.16344 3.58172 7.10543e-15 8 2.36848e-15Z" fill="#E4EEF3" fill-rule="evenodd" transform="matrix(-1 0 0 1 184.5 181.5)"/><path d="M40 32C35.5817 32 32 24.8366 32 16 32 7.16344 35.5817 7.10543e-15 40 2.36848e-15" stroke="#2C2C2C" stroke-width="1.33333" stroke-miterlimit="8" fill="none" fill-rule="evenodd" transform="matrix(-1 0 0 1 184.5 181.5)"/><path d="M8 0 40 0C44.4183-7.10543e-15 48 7.16344 48 16 48 24.8366 44.4183 32 40 32L8 32C3.58172 32 0 24.8366 0 16 0 7.16344 3.58172 7.10543e-15 8 2.36848e-15Z" stroke="#2C2C2C" stroke-width="1.33333" stroke-miterlimit="8" fill="none" fill-rule="evenodd" transform="matrix(-1 0 0 1 184.5 181.5)"/><path d="M2-2.62467e-06 2.00009 70-1.99991 70-2 2.62467e-06ZM6.00009 68 0.000104987 80-5.99991 68Z" fill="#3F3F3F" transform="matrix(1 0 0 -1 432 293)"/><path d="M2-2.62467e-06 2.00009 70-1.99991 70-2 2.62467e-06ZM6.00009 68 0.000104987 80-5.99991 68Z" fill="#3F3F3F" transform="matrix(1 0 0 -1 152 293)"/><path d="M159.167 269 280.654 269 280.654 270 159.167 270ZM160.5 273.5 152.5 269.5 160.5 265.5ZM279.32 265.5 287.32 269.5 279.32 273.5Z" fill="#3F3F3F"/><path d="M294.167 269 426.013 269 426.013 270 294.167 270ZM295.5 273.5 287.5 269.5 295.5 265.5ZM424.68 265.5 432.68 269.5 424.68 273.5Z" fill="#3F3F3F"/><text font-family="LM Roman 12,LM Roman 12_MSFontService,sans-serif" font-weight="400" font-size="15" transform="translate(212.139 293)">10 in<tspan font-size="15" x="136" y="0">10 in</tspan></text><path d="M0.500009 6.66666 0.500096 73.3333-0.499904 73.3333-0.499991 6.66666ZM-3.99999 8 0 0 4.00001 7.99999ZM4.00009 72 0.000104987 80-3.99991 72Z" fill="#3F3F3F" transform="matrix(1 0 0 -1 228.5 237.5)"/><text font-family="LM Roman 12,LM Roman 12_MSFontService,sans-serif" font-weight="400" font-size="15" transform="translate(237.635 202)">1 in</text><path d="M0.500007 6.6666 0.500098 89.3333-0.499902 89.3333-0.499993 6.6666ZM-3.99999 8 0 0 4.00001 8ZM4.0001 88 0.000104987 96-3.9999 88Z" fill="#3F3F3F" transform="matrix(1 0 0 -1 340.5 245.5)"/><text font-family="LM Roman 12,LM Roman 12_MSFontService,sans-serif" font-weight="400" font-size="15" transform="translate(349.6 202)">1.5 in</text><path d="M330.167 117 425.684 117 425.684 118 330.167 118ZM331.5 121.5 323.5 117.5 331.5 113.5ZM424.35 113.5 432.35 117.5 424.35 121.5Z" fill="#3F3F3F"/><path d="M325 69 325 139 321 139 321 69ZM329 137 323 149 317 137Z" fill="#3F3F3F"/><text font-family="Cambria Math,Cambria Math_MSFontService,sans-serif" font-weight="400" font-size="16" transform="translate(151.484 318)">ğ‘…<tspan font-size="11" x="10.1667" y="3">1</tspan><tspan font-size="16" x="271.071" y="0">ğ‘…</tspan><tspan font-size="11" x="281.238" y="3">2</tspan><tspan font-family="LM Roman 12,LM Roman 12_MSFontService,sans-serif" font-size="15" x="150.685" y="-256">500 </tspan><tspan font-family="LM Roman 12,LM Roman 12_MSFontService,sans-serif" font-size="15" x="177.018" y="-256">lbf</tspan><tspan font-family="LM Roman 12,LM Roman 12_MSFontService,sans-serif" font-size="15" x="129.773" y="-182">A</tspan></text><path d="M432.5 93.5001 432.5 181.5" stroke="#3F3F3F" stroke-miterlimit="8" fill="none" fill-rule="evenodd"/><text font-family="LM Roman 12,LM Roman 12_MSFontService,sans-serif" font-weight="400" font-size="15" transform="translate(365.364 106)">8 in</text></g></svg>