<svg width="271" height="83" xmlns="http://www.w3.org/2000/svg" xmlns:xlink="http://www.w3.org/1999/xlink" overflow="hidden"><defs><clipPath id="clip0"><rect x="79" y="140" width="271" height="83"/></clipPath></defs><g clip-path="url(#clip0)" transform="translate(-79 -140)"><path d="M80.5001 141.5 280.5 141.5 280.5 221.5 80.5001 221.5 80.5001 141.5ZM180.5 157.5C167.245 157.5 156.5 168.245 156.5 181.5 156.5 194.755 167.245 205.5 180.5 205.5 193.755 205.5 204.5 194.755 204.5 181.5 204.5 168.245 193.755 157.5 180.5 157.5Z" stroke="#2C2C2C" stroke-width="1.33333" stroke-miterlimit="8" fill="#F2DEEB" fill-rule="evenodd"/><path d="M86.5001 149.887C110.378 150.418 134.255 150.949 149.818 149.887 165.381 148.826 171.564 143.836 179.878 143.518 188.193 143.199 185.101 147.233 199.705 147.976 214.309 148.72 240.904 148.348 267.5 147.976" stroke="#AE3434" stroke-width="1.33333" stroke-miterlimit="8" fill="none" fill-rule="evenodd"/><path d="M85.5001 163.396C109.378 163.933 131.23 162.323 146.899 160.177 162.569 158.031 168.432 150.949 179.518 150.52 190.604 150.09 198.812 156.851 213.415 157.602 228.019 158.353 239.904 159.265 266.5 158.889" stroke="#AE3434" stroke-width="1.33333" stroke-miterlimit="8" fill="none" fill-rule="evenodd"/><path d="M89.5001 176.415C113.356 176.929 127.52 175.077 142.536 172.092 157.552 169.107 167.563 158.815 179.598 158.506 191.632 158.198 200.152 169.519 214.742 170.239 235.083 174.665 239.929 173.687 266.5 173.327" stroke="#AE3434" stroke-width="1.33333" stroke-miterlimit="8" fill="none" fill-rule="evenodd"/><path d="M0 6.3872C23.8775 6.91798 47.755 7.44876 63.318 6.3872 78.881 5.32565 85.0636 0.336333 93.3781 0.0178667 101.693-0.3006 98.6013 3.73331 113.205 4.4764 127.809 5.21949 154.404 4.84795 181 4.4764" stroke="#AE3434" stroke-width="1.33333" stroke-miterlimit="8" fill="none" fill-rule="evenodd" transform="matrix(1 0 0 -1 86.5001 221.5)"/><path d="M0 12.8961C23.8775 13.4326 45.7297 11.823 61.3993 9.67694 77.0689 7.53085 82.9317 0.448757 94.0177 0.0195387 105.104-0.409679 113.312 6.3505 127.915 7.10163 142.519 7.85276 154.404 8.76485 181 8.38929" stroke="#AE3434" stroke-width="1.33333" stroke-miterlimit="8" fill="none" fill-rule="evenodd" transform="matrix(1 0 0 -1 85.5001 214.5)"/><path d="M0 18.9098C23.8556 19.4529 38.0199 17.4974 53.0361 14.3469 68.0523 11.1964 78.0632 0.332545 90.0975 0.00662952 102.132-0.319286 110.652 11.631 125.242 12.3914 145.583 17.0629 150.429 16.0308 177 15.6506" stroke="#AE3434" stroke-width="1.33333" stroke-miterlimit="8" fill="none" fill-rule="evenodd" transform="matrix(1 0 0 -1 89.5001 207.5)"/><path d="M284.5 177 339.5 177 339.5 172.5 348.5 181.5 339.5 190.5 339.5 186 284.5 186Z" stroke="#2C2C2C" stroke-width="1.33333" stroke-miterlimit="8" fill="none" fill-rule="evenodd"/></g></svg>