<svg width="435" height="283" xmlns="http://www.w3.org/2000/svg" xmlns:xlink="http://www.w3.org/1999/xlink" overflow="hidden"><defs><clipPath id="clip0"><rect x="98" y="49" width="435" height="283"/></clipPath></defs><g clip-path="url(#clip0)" transform="translate(-98 -49)"><text font-family="Cambria Math,Cambria Math_MSFontService,sans-serif" font-weight="400" font-size="16" transform="translate(513.872 219)">𝑡<tspan font-size="16" x="-403.707" y="-149">𝜎</tspan></text><path d="M0.5-2.0975e-07 0.500102 243.6-0.499898 243.6-0.5 2.0975e-07ZM4.0001 242.267 0.000104987 250.267-3.9999 242.267Z" fill="#3F3F3F" transform="matrix(1 0 0 -1 115.5 331.767)"/><path d="M115.5 213 493.741 213 493.741 214 115.5 214ZM492.407 209.5 500.407 213.5 492.407 217.5Z" fill="#3F3F3F"/><path d="M116.5 214.126C126.281 188.01 136.062 161.893 143.004 167.638 149.945 173.382 150.419 248.458 158.149 248.591 165.879 248.725 181.655 158.955 189.386 168.439 197.116 177.924 195.696 305.098 204.531 305.499 213.365 305.9 232.454 181.531 242.393 170.844 252.332 160.157 257.538 241.378 264.164 241.378 270.79 241.378 275.365 171.245 282.149 170.844 288.933 170.443 296.19 251.53 304.866 238.973 313.543 226.416 325.691 95.1001 334.21 95.5009 342.729 95.9017 347.935 228.553 355.981 241.378 364.027 254.202 375.07 172.58 382.485 172.447 389.9 172.313 393.213 244.984 400.47 240.576 407.727 236.168 418.77 140.386 426.027 145.997 433.284 151.607 436.912 274.106 444.012 274.24 451.111 274.373 461.207 147.867 468.622 146.798 476.037 145.729 482.268 206.779 488.5 267.828" stroke="#2C2C2C" stroke-width="1.33333" stroke-miterlimit="8" fill="none" fill-rule="evenodd"/></g></svg>