<svg width="435" height="283" xmlns="http://www.w3.org/2000/svg" xmlns:xlink="http://www.w3.org/1999/xlink" overflow="hidden"><defs><clipPath id="clip0"><rect x="98" y="49" width="435" height="283"/></clipPath></defs><g clip-path="url(#clip0)" transform="translate(-98 -49)"><text font-family="Cambria Math,Cambria Math_MSFontService,sans-serif" font-weight="400" font-size="16" transform="translate(513.872 219)">𝑡<tspan font-size="16" x="-403.707" y="-149">𝜎</tspan></text><path d="M0.5-2.0975e-07 0.500102 243.6-0.499898 243.6-0.5 2.0975e-07ZM4.0001 242.267 0.000104987 250.267-3.9999 242.267Z" fill="#3F3F3F" transform="matrix(1 0 0 -1 115.5 331.767)"/><path d="M115.5 213 493.741 213 493.741 214 115.5 214ZM492.407 209.5 500.407 213.5 492.407 217.5Z" fill="#3F3F3F"/><path d="M115.5 212.62C124.732 186.234 133.964 159.849 141.065 166.478 148.167 173.108 149.942 253.06 158.109 252.397 166.275 251.734 180.833 162.235 190.065 162.501 199.297 162.766 204.446 262.473 213.5 253.988" stroke="#CF8E59" stroke-width="1.33333" stroke-miterlimit="8" fill="none" fill-rule="evenodd"/><path d="M213.5 253.265C222.543 244.727 234.777 100.111 244.351 109.983 253.926 119.855 263.145 311.965 270.947 312.499 278.748 313.033 284.067 113.318 291.16 113.185 298.252 113.051 305.344 305.428 313.5 311.699" stroke="#CF5F5F" stroke-width="1.33333" stroke-miterlimit="8" fill="none" fill-rule="evenodd"/><path d="M313.5 311.322C321.742 317.581 333.925 156.98 340.375 150.721 346.825 144.462 344.675 273.236 352.2 273.768 359.725 274.301 377.642 155.515 385.525 153.917 393.408 152.319 393.229 255.924 399.5 264.18" stroke="#65C976" stroke-width="1.33333" stroke-miterlimit="8" fill="none" fill-rule="evenodd"/><path d="M399.5 263.744C405.681 272.077 416.629 208.906 422.81 202.454 428.99 196.002 431.992 224.363 436.583 225.035 441.175 225.707 446.472 206.217 450.357 206.486 454.242 206.755 456.008 227.051 459.893 226.647 463.778 226.244 468.899 204.201 473.667 204.067 478.435 203.933 483.467 214.887 488.5 225.841" stroke="#BE5A9D" stroke-width="1.33333" stroke-miterlimit="8" fill="none" fill-rule="evenodd"/><text fill="#CF8E59" font-family="LM Roman 12,LM Roman 12_MSFontService,sans-serif" font-weight="400" font-size="15" transform="translate(158.633 133)">A<tspan fill="#CF5F5F" font-size="15" x="99.0587" y="-39">B</tspan><tspan fill="#65C976" font-size="15" x="206.889" y="-12">C</tspan><tspan fill="#BE5A9D" font-size="15" x="285.63" y="48">D</tspan></text></g></svg>