<svg width="330" height="225" xmlns="http://www.w3.org/2000/svg" xmlns:xlink="http://www.w3.org/1999/xlink" overflow="hidden"><defs><clipPath id="clip0"><rect x="154" y="77" width="330" height="225"/></clipPath></defs><g clip-path="url(#clip0)" transform="translate(-154 -77)"><text font-family="LM Roman 12,LM Roman 12_MSFontService,sans-serif" font-weight="400" font-size="15" transform="translate(164.288 96)">J</text><path d="M184.5 277.291C228.851 278.696 258.886 273.356 287.237 251.153 315.588 228.95 303.658 162.34 329.342 133.953 355.026 105.567 389.763 107.534 424.5 109.502" stroke="#44546A" stroke-width="1.33333" stroke-miterlimit="8" fill="none" fill-rule="evenodd"/><text font-family="LM Roman 12,LM Roman 12_MSFontService,sans-serif" font-weight="400" font-size="15" transform="translate(196 240)">Frági<tspan font-size="15" x="33.3333" y="0">l</tspan><tspan font-size="15" x="177.455" y="-88">Dúctil</tspan></text><path d="M185.5 278.5C199.953 278.346 211.289 278.238 217.916 277.621 224.543 277.004 246.652 273.58 245.453 272.5" stroke="#AE3434" stroke-width="3" stroke-miterlimit="8" fill="none" fill-rule="evenodd"/><path d="M364.5 112.5C380.266 108.682 390.062 109.292 396.735 108.61 403.408 107.927 424.658 110.704 423.451 109.51" stroke="#AE3434" stroke-width="3" stroke-miterlimit="8" fill="none" fill-rule="evenodd"/><path d="M0.496521-0.0588814 2.63637 17.9855 1.64333 18.1033-0.496521 0.0588814ZM5.955 16.2493 2.92493 24.6647-1.98934 17.1914Z" fill="#3F3F3F" transform="matrix(1 0 0 -1 393.5 134.165)"/><path d="M215.998 249.457 217.834 270.885 216.838 270.97 215.002 249.543ZM221.207 269.257 217.905 277.57 213.237 269.94Z" fill="#3F3F3F"/><path d="M0.333333-1.90194e-07 0.333435 177.334-0.333232 177.334-0.333333 1.90194e-07ZM4.0001 176 0.000104987 184-3.9999 176Z" fill="#3F3F3F" transform="matrix(1 0 0 -1 168.5 292.5)"/><path d="M160.5 284.167 449.833 284.167 449.833 284.833 160.5 284.833ZM448.5 280.5 456.5 284.5 448.5 288.5Z" fill="#3F3F3F"/><text font-family="LM Roman 12,LM Roman 12_MSFontService,sans-serif" font-weight="400" font-size="15" transform="translate(462.564 289)">T</text></g></svg>