<svg width="352" height="334" xmlns="http://www.w3.org/2000/svg" xmlns:xlink="http://www.w3.org/1999/xlink" overflow="hidden"><defs><clipPath id="clip0"><rect x="87" y="60" width="352" height="334"/></clipPath></defs><g clip-path="url(#clip0)" transform="translate(-87 -60)"><rect x="168" y="101" width="224" height="163" fill="#F5DFDF"/><path d="M168 334 168 253 392 334Z" fill="#D6DCE5" fill-rule="evenodd"/><path d="M392 253 392 334 168 253Z" fill="#F5DFDF" fill-rule="evenodd"/><path d="M0.5-1.98413e-07 0.500102 257.901-0.499898 257.901-0.5 1.98413e-07ZM4.0001 256.567 0.000104987 264.567-3.9999 256.567Z" fill="#3F3F3F" transform="matrix(1 0 0 -1 168.5 334.067)"/><path d="M168.5 334 424.166 334 424.166 335 168.5 335ZM422.832 330.5 430.832 334.5 422.832 338.5Z" fill="#3F3F3F"/><text font-family="LM Roman 12,LM Roman 12_MSFontService,sans-serif" font-weight="400" font-size="15" transform="matrix(-1.83697e-16 -1 1 -1.83697e-16 106.8 273)">Esfuerzo alternante <tspan font-family="Cambria Math,Cambria Math_MSFontService,sans-serif" font-size="15" x="127" y="2.33295e-14">ğœ</tspan><tspan font-family="Cambria Math,Cambria Math_MSFontService,sans-serif" font-size="11" x="134" y="2.99333">ğ‘</tspan></text><text font-family="LM Roman 12,LM Roman 12_MSFontService,sans-serif" font-weight="400" font-size="15" transform="translate(241.334 381)">Esfuerzo medio <tspan font-family="Cambria Math,Cambria Math_MSFontService,sans-serif" font-size="15" x="100.5" y="0">ğœ</tspan><tspan font-family="Cambria Math,Cambria Math_MSFontService,sans-serif" font-size="11" x="108" y="2">ğ‘š</tspan></text><path d="M168.669 253.03 392.669 333.597 392.331 334.538 168.331 253.971ZM167.146 257.264C165.067 256.516 163.988 254.225 164.736 252.146 165.484 250.067 167.775 248.988 169.854 249.736 171.933 250.484 173.012 252.775 172.264 254.854 171.516 256.933 169.225 258.012 167.146 257.264ZM393.854 330.303C395.933 331.051 397.012 333.342 396.264 335.421 395.516 337.5 393.225 338.579 391.146 337.831 389.067 337.084 387.988 334.792 388.736 332.714 389.484 330.635 391.775 329.556 393.854 330.303Z" fill="#595959"/><text font-family="Cambria Math,Cambria Math_MSFontService,sans-serif" font-weight="400" font-size="15" transform="translate(380.945 353)">ğ‘†<tspan font-size="11" x="7.18668" y="3">ğ‘¢ğ‘¡</tspan><tspan font-size="11" x="19.14" y="3"> </tspan><tspan font-size="15" x="-232.738" y="-95">ğ‘†</tspan><tspan font-size="11" x="-225.552" y="-92">ğ‘’</tspan><tspan font-size="11" x="-219.398" y="-92"> </tspan></text><path d="M189 229.5 189 237.5 188 237.5 188 229.5ZM189 240.5 189 248.5 188 248.5 188 240.5ZM189 251.5 189 259.5 188 259.5 188 251.5ZM189 262.5 189 270.5 188 270.5 188 262.5ZM189 273.5 189 281.5 188 281.5 188 273.5ZM189 284.5 189 292.5 188 292.5 188 284.5ZM189 295.5 189 303.5 188 303.5 188 295.5ZM189 306.5 189 314.5 188 314.5 188 306.5ZM189 317.5 189 325.5 188 325.5 188 317.5ZM189 328.5 189 334.569 188 334.569 188 328.5ZM184.5 229.5C184.5 227.291 186.291 225.5 188.5 225.5 190.709 225.5 192.5 227.291 192.5 229.5 192.5 231.709 190.709 233.5 188.5 233.5 186.291 233.5 184.5 231.709 184.5 229.5ZM192.5 334.569C192.5 336.778 190.709 338.569 188.5 338.569 186.291 338.569 184.5 336.778 184.5 334.569 184.5 332.36 186.291 330.569 188.5 330.569 190.709 330.569 192.5 332.36 192.5 334.569Z" fill="#595959"/><path d="M168.5 229 176.5 229 176.5 230 168.5 230ZM179.5 229 187.5 229 187.5 230 179.5 230ZM168.5 233.5C166.291 233.5 164.5 231.709 164.5 229.5 164.5 227.291 166.291 225.5 168.5 225.5 170.709 225.5 172.5 227.291 172.5 229.5 172.5 231.709 170.709 233.5 168.5 233.5ZM188.726 225.5C190.935 225.5 192.726 227.291 192.726 229.5 192.726 231.709 190.935 233.5 188.726 233.5 186.517 233.5 184.726 231.709 184.726 229.5 184.726 227.291 186.517 225.5 188.726 225.5Z" fill="#595959"/><path d="M392.501 333.797 168.5 217.5" stroke="#277034" stroke-miterlimit="8" fill="none" fill-rule="evenodd"/><text font-family="Cambria Math,Cambria Math_MSFontService,sans-serif" font-weight="400" font-size="15" transform="translate(177.806 353)">ğœ<tspan font-size="11" x="7.5" y="3">ğ‘š</tspan><tspan font-size="15" x="-31.3856" y="-122">ğœ</tspan><tspan font-size="11" x="-23.8856" y="-119">ğ‘</tspan><tspan fill="#277034" font-size="15" x="-55.8814" y="-137">ğœ</tspan><tspan fill="#277034" font-size="11" x="-48.3814" y="-134">ğ‘Ÿğ‘’ğ‘£</tspan><tspan fill="#277034" font-size="11" x="-30.608" y="-134">_</tspan><tspan fill="#277034" font-size="11" x="-26.608" y="-134">ğ‘’ğ‘</tspan></text></g></svg>