<svg width="503" height="381" xmlns="http://www.w3.org/2000/svg" xmlns:xlink="http://www.w3.org/1999/xlink" overflow="hidden"><defs><clipPath id="clip0"><rect x="66" y="31" width="503" height="381"/></clipPath></defs><g clip-path="url(#clip0)" transform="translate(-66 -31)"><path d="M110 379 551 379 551 32 110 32Z" fill="#FFFFFF" fill-rule="evenodd"/><path d="M110.5 379.5 551.5 379.5" stroke="#262626" stroke-width="0.676115" stroke-linecap="square" stroke-linejoin="round" stroke-miterlimit="10" fill="none" fill-rule="evenodd"/><path d="M110.5 32.5001 551.5 32.5001" stroke="#262626" stroke-width="0.676115" stroke-linecap="square" stroke-linejoin="round" stroke-miterlimit="10" fill="none" fill-rule="evenodd"/><path d="M110.5 379.5 110.5 375.5" stroke="#262626" stroke-width="0.676115" stroke-linecap="square" stroke-linejoin="round" stroke-miterlimit="10" fill="none" fill-rule="evenodd"/><path d="M154.5 379.5 154.5 375.5" stroke="#262626" stroke-width="0.676115" stroke-linecap="square" stroke-linejoin="round" stroke-miterlimit="10" fill="none" fill-rule="evenodd"/><path d="M198.5 379.5 198.5 375.5" stroke="#262626" stroke-width="0.676115" stroke-linecap="square" stroke-linejoin="round" stroke-miterlimit="10" fill="none" fill-rule="evenodd"/><path d="M242.5 379.5 242.5 375.5" stroke="#262626" stroke-width="0.676115" stroke-linecap="square" stroke-linejoin="round" stroke-miterlimit="10" fill="none" fill-rule="evenodd"/><path d="M286.5 379.5 286.5 375.5" stroke="#262626" stroke-width="0.676115" stroke-linecap="square" stroke-linejoin="round" stroke-miterlimit="10" fill="none" fill-rule="evenodd"/><path d="M330.5 379.5 330.5 375.5" stroke="#262626" stroke-width="0.676115" stroke-linecap="square" stroke-linejoin="round" stroke-miterlimit="10" fill="none" fill-rule="evenodd"/><path d="M374.5 379.5 374.5 375.5" stroke="#262626" stroke-width="0.676115" stroke-linecap="square" stroke-linejoin="round" stroke-miterlimit="10" fill="none" fill-rule="evenodd"/><path d="M418.5 379.5 418.5 375.5" stroke="#262626" stroke-width="0.676115" stroke-linecap="square" stroke-linejoin="round" stroke-miterlimit="10" fill="none" fill-rule="evenodd"/><path d="M462.5 379.5 462.5 375.5" stroke="#262626" stroke-width="0.676115" stroke-linecap="square" stroke-linejoin="round" stroke-miterlimit="10" fill="none" fill-rule="evenodd"/><path d="M507.5 379.5 507.5 375.5" stroke="#262626" stroke-width="0.676115" stroke-linecap="square" stroke-linejoin="round" stroke-miterlimit="10" fill="none" fill-rule="evenodd"/><path d="M551.5 379.5 551.5 375.5" stroke="#262626" stroke-width="0.676115" stroke-linecap="square" stroke-linejoin="round" stroke-miterlimit="10" fill="none" fill-rule="evenodd"/><path d="M110.5 32.5001 110.5 36.5001" stroke="#262626" stroke-width="0.676115" stroke-linecap="square" stroke-linejoin="round" stroke-miterlimit="10" fill="none" fill-rule="evenodd"/><path d="M154.5 32.5001 154.5 36.5001" stroke="#262626" stroke-width="0.676115" stroke-linecap="square" stroke-linejoin="round" stroke-miterlimit="10" fill="none" fill-rule="evenodd"/><path d="M198.5 32.5001 198.5 36.5001" stroke="#262626" stroke-width="0.676115" stroke-linecap="square" stroke-linejoin="round" stroke-miterlimit="10" fill="none" fill-rule="evenodd"/><path d="M242.5 32.5001 242.5 36.5001" stroke="#262626" stroke-width="0.676115" stroke-linecap="square" stroke-linejoin="round" stroke-miterlimit="10" fill="none" fill-rule="evenodd"/><path d="M286.5 32.5001 286.5 36.5001" stroke="#262626" stroke-width="0.676115" stroke-linecap="square" stroke-linejoin="round" stroke-miterlimit="10" fill="none" fill-rule="evenodd"/><path d="M330.5 32.5001 330.5 36.5001" stroke="#262626" stroke-width="0.676115" stroke-linecap="square" stroke-linejoin="round" stroke-miterlimit="10" fill="none" fill-rule="evenodd"/><path d="M374.5 32.5001 374.5 36.5001" stroke="#262626" stroke-width="0.676115" stroke-linecap="square" stroke-linejoin="round" stroke-miterlimit="10" fill="none" fill-rule="evenodd"/><path d="M418.5 32.5001 418.5 36.5001" stroke="#262626" stroke-width="0.676115" stroke-linecap="square" stroke-linejoin="round" stroke-miterlimit="10" fill="none" fill-rule="evenodd"/><path d="M462.5 32.5001 462.5 36.5001" stroke="#262626" stroke-width="0.676115" stroke-linecap="square" stroke-linejoin="round" stroke-miterlimit="10" fill="none" fill-rule="evenodd"/><path d="M507.5 32.5001 507.5 36.5001" stroke="#262626" stroke-width="0.676115" stroke-linecap="square" stroke-linejoin="round" stroke-miterlimit="10" fill="none" fill-rule="evenodd"/><path d="M551.5 32.5001 551.5 36.5001" stroke="#262626" stroke-width="0.676115" stroke-linecap="square" stroke-linejoin="round" stroke-miterlimit="10" fill="none" fill-rule="evenodd"/><text fill="#262626" font-family="LM Roman 12,LM Roman 12_MSFontService,sans-serif" font-weight="400" font-size="14" transform="translate(105.615 399)">0<tspan font-size="14" x="34.7563" y="0">0.01</tspan><tspan font-size="14" x="78.8513" y="0">0.02</tspan><tspan font-size="14" x="122.946" y="0">0.03</tspan><tspan font-size="14" x="167.041" y="0">0.04</tspan><tspan font-size="14" x="211.136" y="0">0.05</tspan><tspan font-size="14" x="255.232" y="0">0.06</tspan><tspan font-size="14" x="299.327" y="0">0.07</tspan><tspan font-size="14" x="343.422" y="0">0.08</tspan><tspan font-size="14" x="387.517" y="0">0.09</tspan><tspan font-size="14" x="435.266" y="0">0.1</tspan></text><path d="M110.5 379.5 110.5 32.5001" stroke="#262626" stroke-width="0.676115" stroke-linecap="square" stroke-linejoin="round" stroke-miterlimit="10" fill="none" fill-rule="evenodd"/><path d="M551.5 379.5 551.5 32.5001" stroke="#262626" stroke-width="0.676115" stroke-linecap="square" stroke-linejoin="round" stroke-miterlimit="10" fill="none" fill-rule="evenodd"/><path d="M110.5 374.5 114.5 374.5" stroke="#262626" stroke-width="0.676115" stroke-linecap="square" stroke-linejoin="round" stroke-miterlimit="10" fill="none" fill-rule="evenodd"/><path d="M110.5 339.5 114.5 339.5" stroke="#262626" stroke-width="0.676115" stroke-linecap="square" stroke-linejoin="round" stroke-miterlimit="10" fill="none" fill-rule="evenodd"/><path d="M110.5 304.5 114.5 304.5" stroke="#262626" stroke-width="0.676115" stroke-linecap="square" stroke-linejoin="round" stroke-miterlimit="10" fill="none" fill-rule="evenodd"/><path d="M110.5 269.5 114.5 269.5" stroke="#262626" stroke-width="0.676115" stroke-linecap="square" stroke-linejoin="round" stroke-miterlimit="10" fill="none" fill-rule="evenodd"/><path d="M110.5 234.5 114.5 234.5" stroke="#262626" stroke-width="0.676115" stroke-linecap="square" stroke-linejoin="round" stroke-miterlimit="10" fill="none" fill-rule="evenodd"/><path d="M110.5 199.5 114.5 199.5" stroke="#262626" stroke-width="0.676115" stroke-linecap="square" stroke-linejoin="round" stroke-miterlimit="10" fill="none" fill-rule="evenodd"/><path d="M110.5 164.5 114.5 164.5" stroke="#262626" stroke-width="0.676115" stroke-linecap="square" stroke-linejoin="round" stroke-miterlimit="10" fill="none" fill-rule="evenodd"/><path d="M110.5 129.5 114.5 129.5" stroke="#262626" stroke-width="0.676115" stroke-linecap="square" stroke-linejoin="round" stroke-miterlimit="10" fill="none" fill-rule="evenodd"/><path d="M110.5 94.5001 114.5 94.5001" stroke="#262626" stroke-width="0.676115" stroke-linecap="square" stroke-linejoin="round" stroke-miterlimit="10" fill="none" fill-rule="evenodd"/><path d="M110.5 59.5001 114.5 59.5001" stroke="#262626" stroke-width="0.676115" stroke-linecap="square" stroke-linejoin="round" stroke-miterlimit="10" fill="none" fill-rule="evenodd"/><path d="M551.5 374.5 546.5 374.5" stroke="#262626" stroke-width="0.676115" stroke-linecap="square" stroke-linejoin="round" stroke-miterlimit="10" fill="none" fill-rule="evenodd"/><path d="M551.5 339.5 546.5 339.5" stroke="#262626" stroke-width="0.676115" stroke-linecap="square" stroke-linejoin="round" stroke-miterlimit="10" fill="none" fill-rule="evenodd"/><path d="M551.5 304.5 546.5 304.5" stroke="#262626" stroke-width="0.676115" stroke-linecap="square" stroke-linejoin="round" stroke-miterlimit="10" fill="none" fill-rule="evenodd"/><path d="M551.5 269.5 546.5 269.5" stroke="#262626" stroke-width="0.676115" stroke-linecap="square" stroke-linejoin="round" stroke-miterlimit="10" fill="none" fill-rule="evenodd"/><path d="M551.5 234.5 546.5 234.5" stroke="#262626" stroke-width="0.676115" stroke-linecap="square" stroke-linejoin="round" stroke-miterlimit="10" fill="none" fill-rule="evenodd"/><path d="M551.5 199.5 546.5 199.5" stroke="#262626" stroke-width="0.676115" stroke-linecap="square" stroke-linejoin="round" stroke-miterlimit="10" fill="none" fill-rule="evenodd"/><path d="M551.5 164.5 546.5 164.5" stroke="#262626" stroke-width="0.676115" stroke-linecap="square" stroke-linejoin="round" stroke-miterlimit="10" fill="none" fill-rule="evenodd"/><path d="M551.5 129.5 546.5 129.5" stroke="#262626" stroke-width="0.676115" stroke-linecap="square" stroke-linejoin="round" stroke-miterlimit="10" fill="none" fill-rule="evenodd"/><path d="M551.5 94.5001 546.5 94.5001" stroke="#262626" stroke-width="0.676115" stroke-linecap="square" stroke-linejoin="round" stroke-miterlimit="10" fill="none" fill-rule="evenodd"/><path d="M551.5 59.5001 546.5 59.5001" stroke="#262626" stroke-width="0.676115" stroke-linecap="square" stroke-linejoin="round" stroke-miterlimit="10" fill="none" fill-rule="evenodd"/><text fill="#262626" font-family="LM Roman 12,LM Roman 12_MSFontService,sans-serif" font-weight="400" font-size="14" transform="translate(76.6516 380)">-500<tspan font-size="14" x="0" y="-35">-</tspan>400<tspan font-size="14" x="0" y="-70">-</tspan>300<tspan font-size="14" x="0" y="-105">-</tspan>200<tspan font-size="14" x="0" y="-140">-</tspan>100<tspan font-size="14" x="19.4894" y="-175">0</tspan><tspan font-size="14" x="4.87234" y="-210">100</tspan><tspan font-size="14" x="4.87234" y="-245">200</tspan><tspan font-size="14" x="4.87234" y="-280">300</tspan><tspan font-size="14" x="4.87234" y="-315">400</tspan></text><path d="M110.5 199.622 110.5 199.622 110.702 199.622 110.703 199.622 110.726 199.622 110.726 199.622 110.903 199.622 110.905 199.622 110.92 199.622 110.921 199.622 111.106 199.622 111.107 199.622 111.236 199.622 111.237 199.622 111.306 199.622 111.313 199.622 111.499 199.622 111.507 199.622 111.515 199.622 111.704 199.622 111.71 199.622 111.715 199.622 111.768 199.622 111.769 199.622 111.912 199.622 111.918 199.622 112.116 199.622 112.117 199.622 112.118 199.622 112.119 199.622 112.119 199.622 112.315 199.622 112.323 199.622 112.51 199.622 112.518 199.622 112.525 199.622 112.65 199.622 112.651 199.622 112.713 199.622 112.726 199.622 112.893 199.622 112.926 199.622 112.96 199.622 113.042 199.622 113.084 199.622 113.134 199.622 113.233 199.622 113.283 199.622 113.333 199.622 113.483 199.622 113.533 199.622 113.583 199.622 113.683 199.622 113.733 199.622 113.782 199.622 113.882 199.622 113.932 199.622 113.982 199.622 114.082 199.622 114.132 199.622 114.182 199.622 114.282 199.622 114.332 199.622 114.382 199.622 114.481 199.622 114.531 199.622 114.581 199.622 114.681 199.622 114.731 199.622 114.781 199.622 114.893 199.782 114.893 169.015 114.944 171.725 114.949 171.708 115.101 170.825 115.202 170.22 115.519 168.348 116.137 164.749 117.195 158.835 118.252 153.259 119.672 146.381 121.093 140.296 122.513 135.096 124.543 129.349 126.572 125.737 129.039 124.375 131.506 126.384 133.972 131.676 136.439 140.013 138.906 151.024 141.372 164.216 143.839 178.999 146.306 194.712 146.88 198.423 147.053 199.528 147.087 199.181 147.098 199.709 147.105 199.627 147.106 199.663 147.108 199.611 147.109 199.674 147.247 199.642 147.545 199.642 147.976 199.642 149.087 199.642 150.197 199.642 151.307 199.642 151.499 199.642 151.501 196.714 151.503 202.5 151.555 199.655 151.555 199.592 151.66 199.583 151.662 199.661 151.756 199.622 151.758 199.622 151.84 199.621 151.885 199.623 151.995 199.621 152.071 199.623 152.146 199.621 152.226 199.623 152.306 199.621 152.392 199.623 152.479 199.621 152.553 199.623 152.626 199.621 152.695 199.623 152.764 199.621 152.826 199.623 152.888 199.621 152.945 199.623 153.003 199.621 153.109 199.621 153.158 199.623 153.207 199.621 153.299 199.621 153.342 199.623 153.385 199.621 153.537 199.621 153.571 199.623 153.605 199.621 153.75 199.623 153.775 199.621 153.798 199.623 153.96 199.621 153.972 199.623 153.984 199.621 154.077 199.617 154.078 199.627 154.181 199.624 154.187 199.62 154.211 199.626 154.211 199.618 154.375 199.622 154.519 199.622 154.702 199.622 155.085 199.622 155.793 199.622 156.829 199.622 157.866 199.622 158.57 199.622 159.275 199.622 161.37 199.622 163.464 199.622 165.559 199.622 165.748 199.622 165.936 199.622 166.25 199.622 166.563 199.622 166.94 199.622 167.127 200.051 167.127 199.18 167.127 200.022 167.127 200.051 167.243 200.221 167.243 199.033 167.33 199.435 167.33 199.47 167.33 199.807 167.33 199.438 167.527 199.627 167.56 199.617 167.653 199.617 167.719 199.627 167.802 199.617 167.907 199.627 168.039 199.617 168.206 199.628 168.415 199.617 168.677 199.628 169.006 199.617 169.419 199.628 169.94 199.617 170.584 199.628 171.228 199.617 171.871 199.628 172.95 199.617 174.029 199.628 176.036 199.617 177.471 199.628 179.289 199.617 181.108 199.628 182.926 199.617 184.744 199.628 186.562 199.617 188.105 199.624 188.105 199.775 188.105 160.197 188.156 171.721 188.163 171.698 188.286 170.985 188.366 170.506 188.55 169.412 188.877 167.484 189.512 163.816 190.709 157.203 192.392 148.677 194.075 141.218 195.758 134.982 197.442 130.098 199.69 125.855 201.938 124.361 204.186 125.67 206.435 129.734 210.354 142.901 213.11 156.104 214.752 165.181 215.807 171.388 216.862 177.829 217.687 182.993 219.094 191.977 220.5 201.065 220.5 32.5001" stroke="#0072BD" stroke-width="0.676115" stroke-linejoin="round" stroke-miterlimit="10" fill="none" fill-rule="evenodd"/><path d="M220.5 32.5001 220.5 379.5" stroke="#0072BD" stroke-width="0.676115" stroke-linejoin="round" stroke-miterlimit="10" fill="none" fill-rule="evenodd"/><path d="M220.5 379.5 220.5 32.5001" stroke="#0072BD" stroke-width="0.676115" stroke-linejoin="round" stroke-miterlimit="10" fill="none" fill-rule="evenodd"/><path d="M220.5 32.5001 220.5 130.524 220.5 379.5" stroke="#0072BD" stroke-width="0.676115" stroke-linejoin="round" stroke-miterlimit="10" fill="none" fill-rule="evenodd"/><path d="M220.5 379.5 220.5 32.5001" stroke="#0072BD" stroke-width="0.676115" stroke-linejoin="round" stroke-miterlimit="10" fill="none" fill-rule="evenodd"/><path d="M220.5 32.5001 220.5 379.5" stroke="#0072BD" stroke-width="0.676115" stroke-linejoin="round" stroke-miterlimit="10" fill="none" fill-rule="evenodd"/><path d="M220.5 379.5 220.5 258.758 220.5 32.5001" stroke="#0072BD" stroke-width="0.676115" stroke-linejoin="round" stroke-miterlimit="10" fill="none" fill-rule="evenodd"/><path d="M220.5 32.5001 220.5 272.86 220.5 379.5" stroke="#0072BD" stroke-width="0.676115" stroke-linejoin="round" stroke-miterlimit="10" fill="none" fill-rule="evenodd"/><path d="M220.5 379.5 220.5 197.824 220.5 42.3102 220.5 32.5001" stroke="#0072BD" stroke-width="0.676115" stroke-linejoin="round" stroke-miterlimit="10" fill="none" fill-rule="evenodd"/><path d="M220.5 32.5001 220.5 200.585 220.507 79.9144 220.518 201.217 220.519 201.214 220.52 156.176 220.624 199.474 220.721 199.556 220.909 199.475 221.271 199.556 221.972 199.475 222.919 199.556 224.24 199.475 224.707 199.443 224.708 195.984 224.712 203.5 224.754 199.492 224.788 199.499 224.868 199.492 225.071 199.499 225.133 198.807 225.134 200.09 225.168 199.462 225.169 199.528 225.171 199.463 225.368 199.495 225.387 199.495 225.502 199.495 225.557 199.495 225.573 199.495 225.59 199.495 225.645 199.495 225.759 199.495 225.796 199.495 225.808 199.495 225.841 199.495 225.955 199.495 225.978 199.495 226.097 199.495 226.179 199.495 226.184 199.495 226.354 199.495 226.37 199.495 226.395 199.495 226.419 199.495 226.492 199.495 226.674 199.495 226.686 199.495 226.686 199.495 226.778 199.495 226.787 199.495 226.796 199.495 226.807 199.495 226.944 199.495 227.038 199.495 227.296 199.495 227.331 199.495 227.342 199.495 227.399 199.495 227.434 199.495 227.519 199.495 227.653 199.495 227.653 199.495 227.685 199.495 227.793 199.495 227.883 199.495 227.958 199.495 227.967 199.495 228.011 199.495 228.067 199.495 228.106 199.495 228.179 199.495 228.206 199.495 228.243 199.495 228.32 199.495 228.577 199.495 228.641 199.495 228.65 199.495 228.66 199.495 228.775 199.495 228.847 199.495 228.905 199.495 228.979 199.495 229.008 199.495 229.027 199.495 229.095 199.495 229.124 199.495 229.27 199.495 229.34 199.495 229.345 199.495 229.375 199.495 229.503 199.495 229.507 199.495 229.51 199.495 229.608 199.495 229.634 199.495 229.742 199.495 229.755 199.495 229.82 199.495 229.971 199.495 230.004 199.495 230.037 199.495 230.213 199.495 230.219 199.495 230.224 199.495 230.387 199.495 230.924 199.495 230.982 199.495 231.003 199.495 231.056 199.495 231.112 199.495 231.227 199.495 231.234 199.495 231.245 199.495 231.395 199.495 231.517 199.495 231.563 199.495 231.563 199.495 231.685 199.495 231.758 199.495 231.831 199.495 231.847 199.495 231.897 199.495 232.011 199.495 232.142 199.495 232.19 199.495 232.213 199.495 232.245 199.495 232.245 199.496 232.245 199.495 232.438 199.496 232.467 199.495 232.585 199.494 232.586 199.496 232.599 199.495 232.654 199.495 232.774 199.495 232.792 199.495 232.884 199.495 232.884 199.495 232.977 199.495 233.049 199.495 233.066 199.495 233.174 199.495 233.199 199.495 233.324 199.495 233.37 199.495 233.415 199.495 233.484 199.495 233.552 199.495 233.894 199.495 234.13 199.495 234.13 199.495 234.233 199.495 234.294 199.495 234.374 199.495 234.392 199.495 234.485 199.495 234.837 199.495 234.943 199.495 235.049 199.495 235.059 199.495 235.068 199.495 235.116 199.495 235.164 199.495 235.402 199.495 235.991 199.495 236.286 199.495 236.33 199.495 236.374 199.495 236.419 199.495 236.64 199.495 236.762 199.495 236.762 199.495 236.762 199.496 236.891 199.496 237.248 199.495 237.606 199.496 237.965 199.495 239.76 199.496 240.227 199.497 240.228 199.494 240.271 199.495 240.442 199.495 240.833 199.495 241.987 199.495 243.14 199.495 244.294 199.495 245.447 199.495 246.601 199.495 247.755 199.495 250.297 199.495 252.84 199.495 255.383 199.495 257.333 199.495 259.283 199.495 261.233 199.495 261.299 199.654 261.299 160.162 261.354 171.613 261.363 171.574 261.537 170.545 261.711 169.509 261.885 168.472 261.885 168.479 261.934 168.194 261.985 167.893 262.086 167.303 262.28 166.17 262.648 164.055 263.328 160.233 264.564 153.646 265.8 147.577 267.529 140.089 269.257 133.912 271.402 128.274 273.546 125.052 275.69 124.356 277.834 126.207 281.588 135.348 284.345 146.369 286.067 154.808 287.17 160.742 288.273 167.026 289.111 171.994 290.176 178.52 291.81 188.848 293.443 199.381 293.5 199.724 293.5 32.5001" stroke="#0072BD" stroke-width="0.676115" stroke-linejoin="round" stroke-miterlimit="10" fill="none" fill-rule="evenodd"/><path d="M293.5 32.5001 293.5 199.211 293.5 199.81 293.5 199.812 293.523 89.2262 293.555 199.975 293.65 199.432 293.779 199.372 294.117 199.432 294.869 199.372 296.006 199.432 297.934 199.392 297.935 196.293 297.939 204.5 297.969 199.384 297.995 199.381 298.056 199.383 298.208 199.381 298.289 200.005 298.29 198.619 298.388 199.381 298.408 199.383 298.413 199.381 298.598 199.383 298.624 199.381 298.684 199.869 298.685 198.657 298.761 199.388 298.807 199.376 298.93 199.388 298.986 199.376 299.042 199.388 299.204 199.389 299.206 199.375 299.215 199.375 299.216 199.389 299.24 199.485 299.24 199.304 299.419 199.384 299.446 199.389 299.446 199.389 299.596 199.382 299.658 199.382 299.719 199.382 299.76 199.382 299.829 199.382 299.888 199.382 300.019 199.382 300.032 199.382 300.163 199.381 300.2 199.383 300.238 199.381 300.293 199.383 300.438 199.382 300.463 199.382 300.562 199.382 300.661 199.382 300.721 199.382 300.75 199.382 300.825 199.382 300.925 199.382 300.934 199.382 301.047 199.382 301.062 199.382 301.062 199.382 301.168 199.382 301.25 199.382 301.296 199.382 301.426 199.382 301.459 199.382 301.513 199.382 301.513 199.382 301.596 199.382 301.663 199.382 301.674 199.382 301.741 199.382 301.843 199.382 301.885 199.382 301.999 199.382 302.063 199.382 302.101 199.382 302.192 199.382 302.222 199.382 302.269 199.382 302.314 199.382 302.359 199.382 302.582 199.382 302.722 199.382 302.855 199.383 302.885 199.381 302.914 199.383 302.997 199.383 303.062 199.381 303.256 199.383 303.314 199.381 303.377 199.381 303.417 199.383 303.456 199.381 303.652 199.383 303.683 199.381 303.692 199.383 303.701 199.381 303.71 199.383 303.755 199.381 303.889 199.382 303.926 199.382 303.942 199.382 303.959 199.382 304.1 199.382 304.285 199.382 304.302 199.382 304.318 199.382 304.414 199.382 304.478 199.382 304.519 199.382 304.554 199.382 304.712 199.379 304.713 199.383 304.724 199.382 304.77 199.382 304.876 199.382 304.888 199.382 304.945 199.382 304.962 199.382 305.073 199.382 305.202 199.382 305.215 199.382 305.327 199.382 305.342 199.382 305.358 199.382 305.534 199.382 305.554 199.382 305.563 199.382 305.733 199.382 305.753 199.382 305.759 199.382 305.827 199.382 305.982 199.382 306.028 199.382 306.127 199.382 306.283 199.382 306.334 199.382 306.38 199.382 306.381 199.381 306.381 199.383 306.553 199.382 306.563 199.382 306.591 199.382 306.639 199.382 306.877 199.382 306.917 199.382 306.949 199.382 307.11 199.382 307.586 199.382 307.637 199.382 307.702 199.382 308.023 199.382 308.149 199.382 308.178 199.382 308.198 199.382 308.285 199.382 308.372 199.382 308.459 199.382 308.478 199.382 308.493 199.382 308.581 199.382 308.691 199.382 308.801 199.382 308.834 199.382 308.867 199.382 309.031 199.382 309.091 199.382 309.203 199.382 309.427 199.382 309.449 199.382 309.47 199.382 309.579 199.382 309.688 199.382 310.234 199.382 310.283 199.382 310.381 199.382 310.43 199.382 310.675 199.382 310.749 199.382 310.822 199.382 311.19 199.382 311.28 199.382 311.369 199.382 311.816 199.382 312.819 199.382 313.28 199.382 313.28 199.382 313.284 199.382 313.299 199.382 313.373 199.382 313.651 199.382 314.109 199.382 315.083 199.382 318.977 199.382 321.98 199.382 323.687 199.382 324.863 199.382 326.039 199.382 326.922 199.382 327.805 199.382 329.705 199.382 331.605 199.382 333.505 199.382 334.871 199.382 334.872 199.534 334.873 160.453 334.928 171.511 334.938 171.471 335.081 170.636 335.137 170.3 335.305 169.314 335.425 168.61 335.576 167.727 335.766 166.627 336.003 165.268 336.296 163.609 336.588 161.972 337.009 159.66 337.429 157.399 337.995 154.444 338.56 151.594 339.32 147.941 340.08 144.504 341.081 140.329 342.082 136.583 343.383 132.399 344.685 129.038 346.355 125.997 348.025 124.439 350.14 124.642 352.255 127.264 354.901 133.818 357.018 141.471 359.607 153.358 362.195 167.481 364.784 183.154 366.738 195.55 367.324 199.296 367.5 200.404 367.5 32.5001" stroke="#0072BD" stroke-width="0.676115" stroke-linejoin="round" stroke-miterlimit="10" fill="none" fill-rule="evenodd"/><path d="M367.5 32.5001 367.5 140.69 367.5 379.5" stroke="#0072BD" stroke-width="0.676115" stroke-linejoin="round" stroke-miterlimit="10" fill="none" fill-rule="evenodd"/><path d="M367.5 379.5 367.5 150.796 367.5 32.5001" stroke="#0072BD" stroke-width="0.676115" stroke-linejoin="round" stroke-miterlimit="10" fill="none" fill-rule="evenodd"/><path d="M367.5 32.5001 367.5 91.1111 367.5 379.5" stroke="#0072BD" stroke-width="0.676115" stroke-linejoin="round" stroke-miterlimit="10" fill="none" fill-rule="evenodd"/><path d="M367.5 379.5 367.5 118.138 367.5 32.5001" stroke="#0072BD" stroke-width="0.676115" stroke-linejoin="round" stroke-miterlimit="10" fill="none" fill-rule="evenodd"/><path d="M367.5 32.5001 367.5 268.5 367.569 199.731 367.614 199.733 367.703 199.73 367.878 199.734 368.219 199.729 368.889 199.734 370.204 199.729 371.519 199.734 371.811 199.735 371.812 196.359 371.815 203.386 371.863 199.226 371.886 200.197 371.922 199.226 372.055 199.226 372.175 200.196 372.269 200.44 372.269 199.383 372.275 199.689 372.278 199.734 372.467 199.009 372.467 200.258 372.479 199.712 372.48 199.693 372.484 200.375 372.524 198.94 372.683 199.711 372.7 199.711 372.881 199.711 372.886 199.711 372.914 199.711 373.016 199.715 373.016 199.707 373.042 199.712 373.102 199.711 373.165 199.713 373.287 199.711 373.373 199.711 373.401 199.711 373.409 199.711 373.469 199.711 373.511 199.711 373.687 199.71 373.687 199.712 373.698 199.711 373.737 199.711 373.76 199.711 373.901 199.711 373.98 199.711 374.003 199.711 374.088 199.711 374.198 199.711 374.279 199.711 374.313 199.711 374.328 199.711 374.352 199.711 374.498 199.711 374.612 199.711 374.726 199.711 374.879 199.711 374.899 199.711 374.995 199.711 375.105 199.711 375.149 199.711 375.27 199.711 375.335 199.711 375.347 199.711 375.473 199.709 375.473 199.714 375.496 199.709 375.558 199.714 375.606 198.943 375.606 200.734 375.735 199.71 375.763 199.713 375.812 199.713 375.854 199.707 375.928 199.711 375.955 199.711 376.013 199.711 376.027 199.711 376.097 199.711 376.167 199.711 376.351 199.711 376.482 199.711 376.549 199.711 376.561 199.711 376.621 199.711 376.681 199.711 376.831 199.711 376.893 199.711 376.908 199.711 376.983 199.711 377.005 199.711 377.026 199.711 377.162 199.711 377.185 199.711 377.299 199.711 377.787 199.711 377.919 199.711 377.986 199.711 378.034 199.711 378.045 199.711 378.055 199.711 378.185 199.711 378.195 199.711 378.248 199.711 378.248 199.712 378.383 199.711 378.441 199.712 378.465 199.711 378.58 199.712 378.823 199.711 378.834 199.712 378.94 199.712 379.059 199.711 379.076 199.712 379.172 199.712 379.527 199.712 379.527 199.712 379.623 199.711 379.659 199.711 379.686 199.711 379.71 199.711 379.818 199.711 379.833 199.711 379.896 199.712 379.925 199.711 380.06 199.712 380.146 199.711 380.208 199.712 380.301 199.711 380.393 199.712 380.545 199.714 380.545 199.714 380.603 199.711 380.72 199.711 380.733 199.711 380.839 199.711 380.887 199.711 380.887 199.711 380.896 199.712 380.926 199.711 381.059 199.712 381.218 199.712 381.252 199.711 381.268 199.712 381.298 199.712 381.375 199.711 381.742 199.712 381.795 199.711 381.848 199.712 381.888 199.711 381.952 199.712 382.012 199.711 382.275 199.712 382.538 199.711 382.567 199.711 382.641 199.712 382.709 199.711 382.85 199.711 382.864 199.712 382.933 199.711 383.229 199.712 383.325 199.711 383.473 199.713 383.473 199.709 383.482 199.713 383.506 199.71 383.592 199.713 383.901 199.71 383.96 199.713 384.05 199.714 384.052 199.71 384.104 199.711 384.295 199.711 384.514 199.711 384.579 199.711 384.674 199.711 384.704 199.711 384.748 199.711 384.792 199.711 385.014 199.711 385.669 199.711 386.174 199.712 386.176 199.711 386.176 199.712 386.229 199.711 386.437 199.711 386.912 199.711 389.284 199.711 392.721 199.711 395.177 199.711 397.633 199.711 399.433 199.711 401.233 199.711 402.757 199.711 404.282 199.711 406.418 199.711 408.553 199.711 408.751 199.711 408.753 199.88 408.753 160.822 408.803 171.801 408.812 171.775 408.944 171.01 409.035 170.47 409.28 169.027 409.739 166.361 410.709 160.898 412.647 150.816 414.179 143.779 415.71 137.694 417.242 132.663 419.154 127.992 420.673 125.629 423.28 124.474 425.887 127.016 428.494 133.13 431.101 142.517 433.709 154.717 436.316 169.133 438.923 185.056 440.905 197.692 441.5 201.497 441.5 32.5001" stroke="#0072BD" stroke-width="0.676115" stroke-linejoin="round" stroke-miterlimit="10" fill="none" fill-rule="evenodd"/><path d="M441.5 32.5001 441.5 379.5" stroke="#0072BD" stroke-width="0.676115" stroke-linejoin="round" stroke-miterlimit="10" fill="none" fill-rule="evenodd"/><path d="M441.5 379.5 441.5 32.5001" stroke="#0072BD" stroke-width="0.676115" stroke-linejoin="round" stroke-miterlimit="10" fill="none" fill-rule="evenodd"/><path d="M441.5 32.5001 441.5 379.5" stroke="#0072BD" stroke-width="0.676115" stroke-linejoin="round" stroke-miterlimit="10" fill="none" fill-rule="evenodd"/><path d="M441.5 379.5 441.5 32.5001" stroke="#0072BD" stroke-width="0.676115" stroke-linejoin="round" stroke-miterlimit="10" fill="none" fill-rule="evenodd"/><path d="M441.5 32.5001 441.5 379.5" stroke="#0072BD" stroke-width="0.676115" stroke-linejoin="round" stroke-miterlimit="10" fill="none" fill-rule="evenodd"/><path d="M441.5 379.5 441.5 32.5001" stroke="#0072BD" stroke-width="0.676115" stroke-linejoin="round" stroke-miterlimit="10" fill="none" fill-rule="evenodd"/><path d="M441.5 32.5001 441.5 129.989 441.5 379.5" stroke="#0072BD" stroke-width="0.676115" stroke-linejoin="round" stroke-miterlimit="10" fill="none" fill-rule="evenodd"/><path d="M441.5 379.5 441.5 32.5001" stroke="#0072BD" stroke-width="0.676115" stroke-linejoin="round" stroke-miterlimit="10" fill="none" fill-rule="evenodd"/><path d="M441.5 32.5001 441.5 268.458 441.5 379.5" stroke="#0072BD" stroke-width="0.676115" stroke-linejoin="round" stroke-miterlimit="10" fill="none" fill-rule="evenodd"/><path d="M441.5 379.5 441.5 32.5001" stroke="#0072BD" stroke-width="0.676115" stroke-linejoin="round" stroke-miterlimit="10" fill="none" fill-rule="evenodd"/><path d="M441.5 32.5001 441.5 143.343 441.5 379.5" stroke="#0072BD" stroke-width="0.676115" stroke-linejoin="round" stroke-miterlimit="10" fill="none" fill-rule="evenodd"/><path d="M441.5 379.5 441.5 261.313 441.501 180.237 441.616 199.996 441.705 199.84 441.862 199.995 442.146 199.84 442.653 199.994 443.561 199.84 444.992 199.994 445.648 200.046 445.656 193.68 445.656 203.695 445.701 199.507 445.729 200.287 445.774 199.507 445.847 200.288 445.961 199.582 446.009 200.59 446.009 199.154 446.079 199.903 446.125 199.891 446.154 199.891 446.162 199.917 446.288 199.897 446.41 199.897 446.508 199.897 446.515 199.897 446.552 199.897 446.645 199.897 446.7 199.897 446.729 199.897 446.759 199.897 446.788 199.897 446.817 199.897 446.962 199.897 447.079 199.905 447.079 199.889 447.098 199.892 447.14 199.902 447.206 199.902 447.226 199.892 447.325 199.902 447.506 199.878 447.506 199.912 447.522 199.896 447.551 199.899 447.619 199.899 447.659 199.895 447.768 199.899 447.891 200.463 447.891 199.109 447.927 199.994 447.953 200.001 447.953 200.005 447.953 199.79 448.132 199.893 448.138 199.901 448.154 199.892 448.157 199.902 448.333 199.897 448.348 199.897 448.423 199.897 448.532 199.897 448.565 199.897 448.616 199.897 448.672 199.897 448.758 199.897 448.787 199.897 448.906 199.897 448.929 199.897 449.044 199.897 449.159 199.897 449.25 199.897 449.279 199.897 449.422 199.897 449.435 199.897 449.499 199.897 449.564 199.897 449.571 199.897 449.571 199.897 449.72 199.897 449.76 199.897 449.816 199.897 449.852 199.897 449.94 199.897 449.956 199.897 449.961 199.897 450.114 199.897 450.15 199.897 450.221 199.897 450.249 199.897 450.299 199.897 450.299 199.897 450.399 199.897 450.52 199.897 450.821 199.897 450.86 199.897 450.905 199.897 451.129 199.897 451.236 199.897 451.236 199.897 451.36 199.897 451.369 199.897 451.387 199.897 451.44 199.897 451.565 199.897 451.571 199.897 451.625 199.897 451.763 199.897 451.771 199.897 451.821 199.897 451.955 199.897 452.03 199.897 452.107 199.897 452.139 199.897 452.273 199.897 452.752 199.897 452.872 199.897 452.91 199.897 452.937 199.897 453.072 199.897 453.251 199.897 453.337 199.897 453.377 199.897 453.579 199.897 453.64 199.897 453.7 199.897 453.852 199.897 453.919 199.897 453.929 199.897 453.95 199.897 454 199.897 454.254 199.897 454.507 199.897 454.583 199.897 454.659 199.897 454.705 199.897 454.79 199.897 454.839 199.897 454.839 199.897 454.904 199.897 455.032 199.897 455.18 199.897 455.208 199.897 455.266 199.897 455.308 199.897 455.391 199.897 455.446 199.897 455.548 199.897 455.599 199.897 455.599 199.897 455.721 199.897 455.794 199.897 455.816 199.897 455.995 199.897 456.028 199.897 456.194 199.897 456.361 199.897 456.436 199.897 456.511 199.897 456.826 199.897 456.826 199.897 457.176 199.897 457.221 199.897 457.335 199.897 457.449 199.897 458.019 199.897 458.589 199.897 458.874 199.897 458.959 199.897 459.045 199.897 459.472 199.897 460.476 199.897 460.934 199.897 460.934 199.896 460.976 199.899 461.107 199.896 461.614 199.899 462.249 199.896 463.426 199.899 464.902 199.896 466.856 199.899 469.654 199.896 472.451 199.899 475.249 199.896 477.218 199.899 479.187 199.896 481.156 199.899 482.226 199.898 482.226 200.058 482.226 160.577 482.279 171.943 482.288 171.909 482.44 171.011 482.563 170.272 483.181 166.633 484.953 156.736 486.725 147.843 488.498 140.161 490.27 133.867 492.407 128.328 494.544 125.204 496.681 124.598 498.818 126.531 502.529 135.686 505.288 146.78 507.029 155.362 508.158 161.476 509.287 167.955 510.139 173.042 510.99 178.273 512.898 190.378 514.332 199.662 514.5 200.74 514.5 32.5001" stroke="#0072BD" stroke-width="0.676115" stroke-linejoin="round" stroke-miterlimit="10" fill="none" fill-rule="evenodd"/><path d="M514.5 32.5001 514.5 379.5" stroke="#0072BD" stroke-width="0.676115" stroke-linejoin="round" stroke-miterlimit="10" fill="none" fill-rule="evenodd"/><path d="M514.5 379.5 514.5 175.658 514.5 32.5001" stroke="#0072BD" stroke-width="0.676115" stroke-linejoin="round" stroke-miterlimit="10" fill="none" fill-rule="evenodd"/><path d="M514.5 32.5001 514.5 83.1356 514.5 379.5" stroke="#0072BD" stroke-width="0.676115" stroke-linejoin="round" stroke-miterlimit="10" fill="none" fill-rule="evenodd"/><path d="M514.5 379.5 514.5 267.144 514.508 118.5 514.573 200.018 514.627 199.714 514.733 200.019 514.939 199.713 515.333 200.019 516.064 199.713 516.954 200.019 517.843 199.713 518.86 199.622 518.865 141.698 518.865 203.978 518.889 199.843 518.916 199.849 518.973 199.843 519.107 199.849 519.274 199.856 519.275 199.732 519.275 199.946 519.319 199.832 519.348 199.859 519.47 199.923 519.487 199.767 519.528 199.838 519.535 199.854 519.57 199.834 519.711 199.846 519.762 199.846 519.813 199.846 519.851 199.846 519.938 199.846 520.065 199.846 520.266 199.846 520.35 199.846 520.365 199.846 520.397 199.846 520.51 199.846 520.544 199.846 520.557 199.846 520.561 199.846 520.564 199.846 520.698 199.846 521.118 199.846 521.136 199.846 521.155 199.846 521.164 199.846 521.172 199.846 521.181 199.846 521.223 199.846 521.403 199.846 521.487 199.846 521.669 199.846 521.783 199.846 521.832 199.846 522.079 199.846 522.107 199.846 522.176 199.846 522.236 199.846 522.393 199.845 522.399 199.847 522.421 199.845 522.55 199.845 522.58 199.847 522.725 199.845 522.769 199.847 522.813 199.845 522.821 199.845 522.879 199.853 523.007 199.846 523.039 199.846 523.201 199.846 523.216 199.846 523.223 199.846 523.256 199.846 523.288 199.846 523.452 199.846 523.501 199.846 523.551 199.846 523.624 199.846 523.652 199.846 523.753 199.846 523.771 199.846 523.865 199.846 524.331 199.846 524.422 199.846 524.433 199.846 524.485 199.846 524.748 199.846 524.807 199.846 524.818 199.846 524.871 199.846 525.001 199.846 525.047 199.846 525.082 199.846 525.262 199.846 525.278 199.846 525.324 199.841 525.324 199.85 525.471 199.849 525.475 199.843 525.533 199.825 525.533 199.872 525.67 199.848 525.68 199.843 525.736 200.491 525.736 199.107 525.882 199.844 525.915 199.848 525.924 199.844 526.002 199.844 526.134 199.844 526.276 199.846 526.318 199.846 526.359 199.846 526.447 199.846 526.53 199.846 526.695 199.846 526.705 199.846 526.725 199.846 526.775 199.846 527.027 199.846 527.103 199.846 527.178 199.846 527.261 199.846 527.321 199.846 527.371 199.846 527.519 199.846 527.546 199.846 527.602 199.846 527.642 199.846 527.843 199.846 527.866 199.846 527.866 199.846 528.067 199.846 528.127 199.846 528.157 199.846 528.187 199.846 528.338 199.846 528.383 199.846 528.428 199.846 528.504 199.846 528.594 199.846 528.713 199.846 528.739 199.846 528.835 199.846 528.841 199.846 528.865 199.845 528.986 199.846 529.122 199.846 529.144 199.845 529.251 199.846 529.359 199.845 529.399 199.846 529.561 199.845 529.579 199.846 529.625 199.846 529.652 199.845 529.788 199.846 529.925 199.845 530.129 199.846 530.16 199.845 530.19 199.846 530.218 199.846 530.287 199.845 530.632 199.846 530.912 199.848 530.912 199.848 530.948 199.844 531.051 199.848 531.424 199.844 531.492 199.848 531.559 199.844 531.627 199.848 531.637 199.849 531.637 199.849 531.975 199.846 532.65 199.846 533.325 199.846 534.28 199.846 534.28 199.846 534.28 199.846 534.281 199.846 534.288 199.846 534.32 199.846 534.481 199.846 534.906 199.846 536.098 199.846 538.331 199.846 540.563 199.846 542.796 199.846 545.028 199.846 547.26 199.846 549.493 199.846 551.5 199.846" stroke="#0072BD" stroke-width="0.676115" stroke-linejoin="round" stroke-miterlimit="10" fill="none" fill-rule="evenodd"/><path d="M110.5 199.5 110.703 198.044 110.703 198.04 110.905 196.596 110.906 196.583 111.109 195.13 111.109 195.126 111.309 193.697 111.317 193.641 111.511 192.25 111.519 192.194 111.715 190.794 111.72 190.759 111.918 189.346 111.923 189.304 112.124 187.875 112.125 187.869 112.322 186.467 112.33 186.413 112.526 185.026 112.533 184.973 112.722 183.639 112.735 183.549 112.936 182.134 112.969 181.899 113.094 181.027 113.144 180.676 113.294 179.625 113.344 179.276 113.545 177.881 113.595 177.534 113.745 176.494 113.795 176.148 113.946 175.112 113.996 174.768 114.146 173.739 114.196 173.396 114.347 172.372 114.397 172.032 114.547 171.014 114.597 170.676 114.748 169.664 114.798 169.328 114.961 168.235 114.967 168.197 115.119 167.184 115.221 166.512 115.538 164.429 116.16 160.425 117.221 153.848 118.283 147.646 119.709 139.995 121.134 133.228 122.56 127.443 124.598 121.051 126.636 117.033 129.112 115.515 131.589 117.748 134.065 123.631 136.541 132.901 139.018 145.145 141.494 159.815 143.971 176.258 146.447 193.738 147.024 197.876 147.197 199.119 147.25 199.499 147.251 199.504 147.392 200.521 147.691 202.666 148.124 205.772 149.239 213.713 150.354 221.526 151.468 229.139 151.661 230.431 151.661 230.428 151.717 230.802 151.717 230.805 151.919 232.142 151.921 232.157 152.049 233.001 152.159 233.723 152.31 234.714 152.39 235.236 152.471 235.756 152.558 236.319 152.718 237.353 152.792 237.825 152.93 238.705 152.993 239.101 153.113 239.859 153.17 240.222 153.326 241.198 153.376 241.507 153.511 242.343 153.554 242.607 153.741 243.755 153.775 243.962 153.946 245 153.969 245.141 154.143 246.185 154.155 246.257 154.354 247.433 154.359 247.466 154.548 248.571 154.693 249.412 154.876 250.466 155.261 252.635 155.972 256.486 157.012 261.744 158.053 266.509 158.76 269.447 159.467 272.129 161.57 278.506 163.673 282.335 165.776 283.495 165.965 283.466 166.155 283.416 166.469 283.283 166.784 283.09 167.163 282.777 167.351 282.589 167.351 282.589 167.554 282.363 167.554 282.363 167.752 282.117 167.785 282.074 167.945 281.856 168.028 281.735 168.134 281.578 168.266 281.37 168.433 281.093 168.643 280.722 168.906 280.219 169.237 279.529 169.651 278.575 170.175 277.228 170.821 275.351 171.467 273.242 172.114 270.908 173.197 266.512 174.279 261.542 176.295 250.915 177.736 242.366 179.561 230.619 181.386 218.115 183.211 205.159 185.037 192.066 186.862 179.153 188.411 168.579 188.462 168.231 188.469 168.182 188.592 167.362 188.673 166.829 188.858 165.612 189.186 163.468 189.824 159.388 191.025 152.032 192.715 142.55 194.405 134.253 196.095 127.316 197.785 121.883 200.042 117.164 202.299 115.5 204.556 116.954 206.813 121.472 210.748 136.113 213.515 150.795 215.163 160.89 216.222 167.793 217.282 174.956 218.11 180.702 219.522 190.697 220.934 200.821 220.953 200.957 220.953 200.96 221.059 201.722 221.156 202.418 221.345 203.773 221.709 206.377 222.413 211.4 223.364 218.114 224.69 227.263 225.16 230.426 225.16 230.424 225.206 230.732 225.241 230.963 225.321 231.497 225.525 232.847 225.623 233.489 225.624 233.497 225.823 234.798 225.842 234.924 226.013 236.032 226.03 236.139 226.216 237.339 226.254 237.58 226.413 238.594 226.436 238.745 226.638 240.017 226.643 240.047 226.83 241.223 226.855 241.374 226.952 241.979 227.135 243.106 227.239 243.745 227.249 243.802 227.406 244.759 227.501 245.332 227.76 246.879 227.806 247.152 227.864 247.491 227.984 248.2 228.118 248.98 228.259 249.793 228.35 250.315 228.433 250.791 228.478 251.043 228.647 251.996 228.674 252.15 228.788 252.786 229.046 254.203 229.11 254.553 229.246 255.283 229.318 255.671 229.479 256.526 229.499 256.628 229.596 257.138 229.742 257.896 229.848 258.443 229.977 259.097 230.082 259.627 230.108 259.757 230.229 260.362 230.295 260.687 230.479 261.585 230.513 261.746 230.695 262.618 230.701 262.643 230.864 263.41 231.404 265.858 231.483 266.204 231.536 266.435 231.707 267.172 231.715 267.203 231.877 267.885 231.999 268.391 232.045 268.581 232.167 269.077 232.314 269.662 232.331 269.727 232.495 270.367 232.627 270.872 232.699 271.141 232.73 271.259 232.924 271.973 232.953 272.078 233.086 272.555 233.141 272.75 233.28 273.231 233.372 273.547 233.538 274.101 233.555 274.156 233.689 274.592 233.814 274.992 233.906 275.278 233.974 275.489 234.043 275.698 234.386 276.702 234.623 277.359 234.726 277.633 234.788 277.795 234.887 278.049 234.979 278.282 235.334 279.129 235.44 279.369 235.566 279.643 235.614 279.746 235.661 279.847 235.901 280.331 236.493 281.384 236.789 281.832 236.833 281.895 236.922 282.016 237.144 282.3 237.267 282.444 237.396 282.586 237.754 282.926 238.115 283.189 238.475 283.372 240.277 283.095 240.747 282.697 240.791 282.652 240.963 282.467 241.355 281.98 242.514 280.002 243.672 277.235 244.831 273.706 245.99 269.449 247.148 264.508 248.307 258.929 250.861 244.659 253.414 228.245 255.968 210.467 257.927 196.437 259.885 182.492 261.843 169.023 261.965 168.213 261.974 168.15 262.149 166.99 262.324 165.836 262.499 164.689 262.547 164.372 262.598 164.038 262.7 163.38 262.895 162.119 263.264 159.764 263.948 155.51 265.189 148.178 266.43 141.423 268.166 133.088 269.902 126.212 272.056 119.936 274.209 116.349 276.363 115.571 278.516 117.63 282.286 127.801 285.055 140.065 286.785 149.457 287.892 156.061 289 163.054 289.841 168.584 290.911 175.849 292.552 187.347 294.192 199.084 294.25 199.5 294.25 199.501 294.398 200.565 294.528 201.493 294.863 203.903 295.612 209.256 296.743 217.265 298.661 230.421 298.696 230.662 298.722 230.836 298.782 231.238 298.933 232.238 299.113 233.422 299.132 233.549 299.321 234.787 299.347 234.955 299.483 235.839 299.529 236.135 299.707 237.282 299.763 237.639 299.935 238.735 299.937 238.747 300.138 240.019 300.165 240.189 300.315 241.127 300.376 241.506 300.478 242.139 300.546 242.562 300.736 243.722 300.749 243.802 300.916 244.817 300.953 245.041 301.152 246.236 301.178 246.389 301.276 246.973 301.374 247.555 301.537 248.51 301.637 249.089 301.758 249.788 301.773 249.873 301.773 249.873 301.96 250.941 302.006 251.204 302.168 252.116 302.221 252.413 302.371 253.246 302.382 253.302 302.55 254.223 302.592 254.451 302.769 255.407 302.806 255.609 302.974 256.5 303.019 256.734 303.063 256.967 303.285 258.121 303.425 258.834 303.586 259.649 303.615 259.794 303.763 260.527 303.956 261.472 304.014 261.752 304.155 262.426 304.35 263.348 304.398 263.571 304.407 263.613 304.586 264.433 304.622 264.599 304.796 265.379 304.98 266.191 304.996 266.263 305.013 266.335 305.212 267.192 305.247 267.342 305.417 268.052 305.462 268.24 305.579 268.72 305.636 268.952 305.763 269.46 305.892 269.966 306.016 270.449 306.032 270.508 306.222 271.229 306.242 271.304 306.42 271.958 306.44 272.032 306.514 272.298 306.668 272.842 306.812 273.341 306.967 273.867 307.018 274.037 307.064 274.188 307.236 274.746 307.246 274.776 307.321 275.015 307.558 275.743 307.63 275.96 307.79 276.428 308.264 277.731 308.379 278.028 308.699 278.815 308.852 279.171 308.873 279.218 309.046 279.6 309.132 279.785 309.254 280.037 309.363 280.256 309.472 280.469 309.505 280.531 309.538 280.593 309.702 280.892 309.872 281.187 310.095 281.545 310.247 281.772 310.355 281.926 310.898 282.588 310.947 282.639 311.093 282.783 311.337 282.993 311.484 283.102 311.85 283.317 311.939 283.357 312.027 283.392 312.472 283.495 313.47 283.283 313.929 282.981 313.932 282.978 313.947 282.966 314.021 282.904 314.297 282.645 314.753 282.116 315.723 280.574 319.596 269.022 322.584 254.853 324.283 245.131 325.452 237.861 326.622 230.209 327.501 224.255 328.379 218.162 330.27 204.742 332.16 191.186 334.05 177.846 335.41 168.589 335.466 168.203 335.476 168.14 335.618 167.195 335.674 166.821 335.841 165.722 335.96 164.938 336.111 163.955 336.3 162.729 336.536 161.216 336.827 159.367 337.118 157.544 337.536 154.968 337.955 152.45 338.517 149.159 339.08 145.984 339.836 141.915 340.591 138.087 341.587 133.436 342.583 129.264 343.878 124.603 345.173 120.859 346.835 117.471 348.496 115.735 350.6 115.959 352.704 118.878 355.337 126.174 357.443 134.696 360.018 147.934 362.594 163.663 365.17 181.121 367.114 194.932 367.697 199.117 367.872 200.373 367.941 200.869 367.986 201.192 368.074 201.823 368.247 203.071 368.587 205.504 369.253 210.266 370.562 219.497 371.87 228.478 372.161 230.429 372.161 230.426 372.212 230.768 372.235 230.925 372.403 232.037 372.522 232.826 372.622 233.484 372.625 233.502 372.825 234.812 372.826 234.818 373.028 236.13 373.045 236.234 373.23 237.429 373.258 237.606 373.385 238.42 373.445 238.797 373.629 239.96 373.714 240.497 373.809 241.092 373.851 241.354 374.037 242.506 374.076 242.747 374.239 243.746 374.318 244.224 374.425 244.875 374.535 245.539 374.65 246.223 374.665 246.312 374.834 247.316 374.947 247.982 375.06 248.644 375.232 249.639 375.328 250.188 375.438 250.816 375.481 251.063 375.666 252.102 375.678 252.173 375.827 252.998 375.888 253.336 376.064 254.304 376.092 254.452 376.256 255.337 376.283 255.485 376.424 256.236 376.494 256.604 376.677 257.56 376.808 258.235 376.886 258.637 376.946 258.94 377.005 259.242 377.154 259.989 377.231 260.368 377.306 260.737 377.484 261.605 377.506 261.715 377.62 262.26 378.105 264.521 378.303 265.414 378.351 265.625 378.501 266.283 378.512 266.331 378.698 267.132 378.756 267.377 378.894 267.959 379.137 268.952 379.253 269.417 379.371 269.886 379.483 270.322 379.837 271.654 379.932 272.002 379.968 272.131 380.126 272.695 380.141 272.749 380.233 273.069 380.367 273.529 380.514 274.022 380.606 274.325 380.698 274.622 380.849 275.102 380.907 275.282 381.023 275.637 381.141 275.993 381.189 276.135 381.228 276.249 381.36 276.63 381.553 277.166 381.568 277.208 381.675 277.496 382.04 278.432 382.146 278.688 382.185 278.783 382.308 279.07 382.57 279.652 382.832 280.195 382.934 280.396 383.002 280.526 383.156 280.811 383.225 280.933 383.519 281.426 383.615 281.575 383.771 281.806 383.795 281.841 383.88 281.96 384.188 282.353 384.247 282.421 384.389 282.579 384.579 282.77 384.797 282.961 384.862 283.013 384.986 283.104 385.03 283.134 385.074 283.163 385.295 283.29 385.946 283.492 386.449 283.47 386.503 283.458 386.711 283.397 387.183 283.159 389.542 279.943 392.962 269.558 395.405 258.425 397.849 244.732 399.639 233.411 401.429 221.298 402.946 210.626 404.463 199.767 406.587 184.591 408.712 169.905 408.909 168.577 408.909 168.588 408.961 168.24 408.969 168.184 409.101 167.307 409.192 166.707 409.435 165.103 409.892 162.139 410.857 156.066 412.785 144.858 414.308 137.035 415.832 130.27 417.355 124.678 419.257 119.484 420.768 116.857 423.362 115.571 425.956 118.394 428.549 125.188 431.143 135.62 433.736 149.18 436.33 165.203 438.924 182.905 440.896 196.957 441.487 201.205 441.605 202.047 441.694 202.685 441.852 203.823 442.137 205.862 442.647 209.505 443.56 215.977 444.997 225.946 445.656 230.397 445.656 230.397 445.709 230.752 445.737 230.937 445.856 231.726 445.971 232.488 446.089 233.266 446.136 233.571 446.299 234.643 446.422 235.439 446.528 236.126 446.565 236.366 446.714 237.323 446.743 237.51 446.831 238.071 446.977 239 447.113 239.86 447.156 240.13 447.242 240.671 447.341 241.291 447.539 242.516 447.568 242.695 447.677 243.364 447.787 244.036 447.946 244.999 447.972 245.157 448.152 246.239 448.158 246.274 448.354 247.438 448.37 247.526 448.554 248.607 448.588 248.804 448.695 249.426 448.781 249.919 448.953 250.903 449.069 251.558 449.185 252.207 449.305 252.876 449.448 253.67 449.526 254.095 449.591 254.447 449.748 255.298 449.788 255.509 449.969 256.474 449.985 256.558 450.18 257.574 450.252 257.946 450.329 258.346 450.43 258.862 450.552 259.475 450.855 260.978 450.939 261.387 451.164 262.468 451.271 262.978 451.396 263.561 451.405 263.603 451.602 264.507 451.608 264.532 451.801 265.402 451.809 265.44 451.809 265.44 451.994 266.255 452.069 266.58 452.179 267.052 452.313 267.62 452.795 269.585 452.915 270.058 452.98 270.31 453.116 270.829 453.296 271.504 453.423 271.97 453.626 272.695 453.687 272.909 453.748 273.12 453.9 273.64 453.998 273.97 454.049 274.138 454.304 274.959 454.558 275.744 454.635 275.973 454.711 276.198 454.843 276.579 454.892 276.72 454.957 276.901 455.085 277.256 455.234 277.654 455.262 277.728 455.447 278.2 455.501 278.336 455.656 278.712 455.778 279 455.851 279.169 455.873 279.219 456.053 279.616 456.086 279.688 456.254 280.037 456.421 280.37 456.496 280.515 456.572 280.656 456.889 281.214 456.889 281.214 457.24 281.761 457.285 281.827 457.4 281.987 457.514 282.138 458.087 282.777 458.66 283.216 458.946 283.361 459.032 283.394 459.118 283.423 459.547 283.5 460.556 283.236 461.016 282.91 461.059 282.872 461.19 282.751 461.7 282.184 462.338 281.253 463.52 278.889 465.004 274.778 466.967 267.492 469.778 253.797 472.589 236.983 475.401 218.014 477.379 203.957 479.358 189.773 481.336 175.866 482.411 168.572 482.464 168.215 482.473 168.155 482.626 167.138 482.75 166.318 483.371 162.275 485.151 151.285 486.932 141.411 488.714 132.88 490.494 125.891 492.642 119.74 494.789 116.269 496.936 115.595 499.083 117.739 502.813 127.901 505.585 140.216 507.334 149.744 508.469 156.534 509.604 163.727 510.459 169.375 511.315 175.184 513.232 188.629 514.673 198.945 514.842 200.16 514.914 200.678 514.968 201.064 515.073 201.819 515.277 203.286 515.668 206.082 516.392 211.25 517.273 217.478 518.155 223.604 519.162 230.426 519.191 230.629 519.218 230.807 519.407 232.063 519.572 233.157 519.617 233.448 519.646 233.637 519.824 234.802 519.83 234.845 520.005 235.977 520.055 236.303 520.23 237.429 520.356 238.232 520.555 239.493 520.638 240.017 520.653 240.111 520.83 241.222 520.843 241.301 520.983 242.171 521.398 244.713 521.444 244.99 521.453 245.041 521.503 245.345 521.682 246.413 521.764 246.904 521.945 247.97 522.058 248.63 522.107 248.914 522.351 250.322 522.447 250.87 522.506 251.204 522.668 252.113 522.69 252.236 522.847 253.114 522.992 253.906 523.035 254.142 523.078 254.377 523.27 255.415 523.302 255.586 523.478 256.518 523.484 256.552 523.549 256.894 523.711 257.74 523.882 258.616 523.909 258.755 524.028 259.355 524.12 259.819 524.583 262.082 524.683 262.561 524.735 262.808 524.995 264.019 525.064 264.336 525.117 264.576 525.291 265.359 525.327 265.517 525.504 266.299 525.52 266.368 525.712 267.192 525.715 267.206 525.909 268.019 525.919 268.06 526.119 268.882 526.151 269.011 526.238 269.358 526.368 269.873 526.509 270.421 526.55 270.58 526.679 271.067 526.761 271.374 526.924 271.973 526.934 272.009 527.004 272.261 527.253 273.14 527.328 273.397 527.403 273.651 527.485 273.928 527.544 274.123 527.741 274.76 527.767 274.845 527.863 275.145 528.062 275.754 528.085 275.825 528.085 275.825 528.284 276.41 528.343 276.581 528.373 276.666 528.552 277.164 528.597 277.286 528.716 277.607 528.806 277.841 528.95 278.208 529.044 278.442 529.074 278.516 529.194 278.803 529.35 279.166 529.457 279.406 529.564 279.639 529.604 279.725 529.764 280.058 529.782 280.095 529.854 280.239 529.989 280.501 530.124 280.753 530.327 281.11 530.357 281.161 530.388 281.212 530.483 281.369 530.825 281.884 531.102 282.249 531.138 282.293 531.24 282.413 531.61 282.798 531.744 282.917 531.81 282.972 531.821 282.98 531.821 282.98 532.155 283.214 532.824 283.474 533.493 283.46 534.439 282.973 534.44 282.971 534.447 282.966 534.639 282.8 535.059 282.356 536.241 280.54 538.453 274.94 540.664 266.652 542.876 255.97 545.088 243.275 547.299 229.021 549.511 213.714 551.5 199.5" stroke="#D95319" stroke-width="0.676115" stroke-linejoin="round" stroke-miterlimit="10" fill="none" fill-rule="evenodd"/><path d="M540 80.0001 540 42 473 42 473 80.0001Z" fill="#FFFFFF" fill-rule="evenodd"/><text font-family="LM Roman 12,LM Roman 12_MSFontService,sans-serif" font-weight="400" font-size="12" transform="translate(520.521 58)">Vo</text><path d="M477.5 52.5001 517.5 52.5001" stroke="#0072BD" stroke-width="0.676115" stroke-linejoin="round" stroke-miterlimit="10" fill="none" fill-rule="evenodd"/><text font-family="LM Roman 12,LM Roman 12_MSFontService,sans-serif" font-weight="400" font-size="12" transform="translate(520.521 75)">Vi</text><path d="M477.5 69.5001 517.5 69.5001" stroke="#D95319" stroke-width="0.676115" stroke-linejoin="round" stroke-miterlimit="10" fill="none" fill-rule="evenodd"/><path d="M473.5 80.5002 473.5 42.5001 540.5 42.5001 540.5 80.5002Z" stroke="#262626" stroke-width="0.676115" stroke-miterlimit="8" fill="none" fill-rule="evenodd"/></g></svg>