<svg width="351" height="283" xmlns="http://www.w3.org/2000/svg" xmlns:xlink="http://www.w3.org/1999/xlink" overflow="hidden"><defs><clipPath id="clip0"><rect x="145" y="72" width="351" height="283"/></clipPath></defs><g clip-path="url(#clip0)" transform="translate(-145 -72)"><path d="M166 340 490 340 490 85 166 85Z" fill="#FFFFFF" fill-rule="evenodd"/><path d="M166.5 340.5 490.5 340.5" stroke="#262626" stroke-width="0.676115" stroke-linecap="square" stroke-linejoin="round" stroke-miterlimit="10" fill="none" fill-rule="evenodd"/><path d="M166.5 85.5001 490.5 85.5001" stroke="#262626" stroke-width="0.676115" stroke-linecap="square" stroke-linejoin="round" stroke-miterlimit="10" fill="none" fill-rule="evenodd"/><path d="M166.5 340.5 166.5 337.5" stroke="#262626" stroke-width="0.676115" stroke-linecap="square" stroke-linejoin="round" stroke-miterlimit="10" fill="none" fill-rule="evenodd"/><path d="M199.5 340.5 199.5 337.5" stroke="#262626" stroke-width="0.676115" stroke-linecap="square" stroke-linejoin="round" stroke-miterlimit="10" fill="none" fill-rule="evenodd"/><path d="M231.5 340.5 231.5 337.5" stroke="#262626" stroke-width="0.676115" stroke-linecap="square" stroke-linejoin="round" stroke-miterlimit="10" fill="none" fill-rule="evenodd"/><path d="M263.5 340.5 263.5 337.5" stroke="#262626" stroke-width="0.676115" stroke-linecap="square" stroke-linejoin="round" stroke-miterlimit="10" fill="none" fill-rule="evenodd"/><path d="M296.5 340.5 296.5 337.5" stroke="#262626" stroke-width="0.676115" stroke-linecap="square" stroke-linejoin="round" stroke-miterlimit="10" fill="none" fill-rule="evenodd"/><path d="M328.5 340.5 328.5 337.5" stroke="#262626" stroke-width="0.676115" stroke-linecap="square" stroke-linejoin="round" stroke-miterlimit="10" fill="none" fill-rule="evenodd"/><path d="M360.5 340.5 360.5 337.5" stroke="#262626" stroke-width="0.676115" stroke-linecap="square" stroke-linejoin="round" stroke-miterlimit="10" fill="none" fill-rule="evenodd"/><path d="M393.5 340.5 393.5 337.5" stroke="#262626" stroke-width="0.676115" stroke-linecap="square" stroke-linejoin="round" stroke-miterlimit="10" fill="none" fill-rule="evenodd"/><path d="M425.5 340.5 425.5 337.5" stroke="#262626" stroke-width="0.676115" stroke-linecap="square" stroke-linejoin="round" stroke-miterlimit="10" fill="none" fill-rule="evenodd"/><path d="M457.5 340.5 457.5 337.5" stroke="#262626" stroke-width="0.676115" stroke-linecap="square" stroke-linejoin="round" stroke-miterlimit="10" fill="none" fill-rule="evenodd"/><path d="M490.5 340.5 490.5 337.5" stroke="#262626" stroke-width="0.676115" stroke-linecap="square" stroke-linejoin="round" stroke-miterlimit="10" fill="none" fill-rule="evenodd"/><path d="M166.5 85.5001 166.5 88.5001" stroke="#262626" stroke-width="0.676115" stroke-linecap="square" stroke-linejoin="round" stroke-miterlimit="10" fill="none" fill-rule="evenodd"/><path d="M199.5 85.5001 199.5 88.5001" stroke="#262626" stroke-width="0.676115" stroke-linecap="square" stroke-linejoin="round" stroke-miterlimit="10" fill="none" fill-rule="evenodd"/><path d="M231.5 85.5001 231.5 88.5001" stroke="#262626" stroke-width="0.676115" stroke-linecap="square" stroke-linejoin="round" stroke-miterlimit="10" fill="none" fill-rule="evenodd"/><path d="M263.5 85.5001 263.5 88.5001" stroke="#262626" stroke-width="0.676115" stroke-linecap="square" stroke-linejoin="round" stroke-miterlimit="10" fill="none" fill-rule="evenodd"/><path d="M296.5 85.5001 296.5 88.5001" stroke="#262626" stroke-width="0.676115" stroke-linecap="square" stroke-linejoin="round" stroke-miterlimit="10" fill="none" fill-rule="evenodd"/><path d="M328.5 85.5001 328.5 88.5001" stroke="#262626" stroke-width="0.676115" stroke-linecap="square" stroke-linejoin="round" stroke-miterlimit="10" fill="none" fill-rule="evenodd"/><path d="M360.5 85.5001 360.5 88.5001" stroke="#262626" stroke-width="0.676115" stroke-linecap="square" stroke-linejoin="round" stroke-miterlimit="10" fill="none" fill-rule="evenodd"/><path d="M393.5 85.5001 393.5 88.5001" stroke="#262626" stroke-width="0.676115" stroke-linecap="square" stroke-linejoin="round" stroke-miterlimit="10" fill="none" fill-rule="evenodd"/><path d="M425.5 85.5001 425.5 88.5001" stroke="#262626" stroke-width="0.676115" stroke-linecap="square" stroke-linejoin="round" stroke-miterlimit="10" fill="none" fill-rule="evenodd"/><path d="M457.5 85.5001 457.5 88.5001" stroke="#262626" stroke-width="0.676115" stroke-linecap="square" stroke-linejoin="round" stroke-miterlimit="10" fill="none" fill-rule="evenodd"/><path d="M490.5 85.5001 490.5 88.5001" stroke="#262626" stroke-width="0.676115" stroke-linecap="square" stroke-linejoin="round" stroke-miterlimit="10" fill="none" fill-rule="evenodd"/><path d="M164.006 350.539C164.006 349.729 164.081 349.076 164.23 348.58 164.38 348.084 164.602 347.702 164.896 347.435 165.19 347.168 165.56 347.035 166.006 347.035 166.337 347.035 166.625 347.108 166.872 347.255 167.119 347.401 167.324 347.616 167.486 347.897 167.649 348.179 167.776 348.52 167.868 348.919 167.96 349.318 168.006 349.858 168.006 350.539 168.006 351.343 167.932 351.992 167.786 352.485 167.639 352.978 167.418 353.359 167.124 353.63 166.83 353.9 166.457 354.035 166.006 354.035 165.413 354.035 164.948 353.8 164.612 353.33 164.208 352.755 164.006 351.824 164.006 350.539ZM164.778 350.539C164.778 351.666 164.896 352.416 165.132 352.789 165.368 353.161 165.659 353.348 166.006 353.348 166.352 353.348 166.644 353.16 166.88 352.784 167.116 352.409 167.234 351.66 167.234 350.539 167.234 349.412 167.116 348.662 166.88 348.289 166.644 347.917 166.35 347.73 165.998 347.73 165.652 347.73 165.376 347.895 165.171 348.223 164.909 348.64 164.778 349.412 164.778 350.539Z" fill="#262626" fill-rule="evenodd"/><path d="M199.008 354.035 198.346 354.035 198.346 348.584C198.184 348.781 197.972 348.976 197.712 349.17 197.452 349.364 197.217 349.512 197.008 349.613L197.008 348.781C197.385 348.56 197.712 348.288 197.991 347.966 198.27 347.644 198.467 347.334 198.583 347.035L199.008 347.035 199.008 354.035Z" fill="#262626" fill-rule="evenodd"/><path d="M233.016 353.212 233.016 354.035 228.017 354.035C228.01 353.826 228.046 353.629 228.124 353.444 228.253 353.128 228.457 352.818 228.735 352.513 229.013 352.209 229.418 351.857 229.949 351.457 230.77 350.836 231.325 350.344 231.613 349.98 231.901 349.616 232.045 349.273 232.045 348.951 232.045 348.611 231.914 348.324 231.652 348.091 231.39 347.859 231.049 347.742 230.628 347.742 230.181 347.742 229.824 347.866 229.555 348.114 229.287 348.361 229.149 348.703 229.143 349.139L228.192 349.049C228.256 348.393 228.502 347.893 228.929 347.55 229.356 347.207 229.929 347.035 230.648 347.035 231.372 347.035 231.947 347.22 232.371 347.59 232.794 347.96 233.006 348.42 233.006 348.969 233.006 349.249 232.943 349.524 232.817 349.792 232.691 350.061 232.485 350.344 232.201 350.643 231.916 350.941 231.44 351.35 230.774 351.869 230.217 352.305 229.86 352.598 229.701 352.751 229.542 352.903 229.411 353.056 229.308 353.212L233.016 353.212Z" fill="#262626" fill-rule="evenodd"/><path d="M261.016 352.1 261.762 351.994C261.85 352.469 261.998 352.812 262.205 353.023 262.411 353.234 262.664 353.34 262.962 353.34 263.312 353.34 263.609 353.202 263.852 352.926 264.095 352.651 264.217 352.311 264.217 351.906 264.217 351.519 264.104 351.201 263.879 350.952 263.654 350.703 263.369 350.578 263.024 350.578 262.883 350.578 262.705 350.608 262.491 350.666L262.577 349.928C262.624 349.934 262.664 349.936 262.695 349.936 263.014 349.936 263.301 349.844 263.558 349.659 263.814 349.475 263.942 349.186 263.942 348.793 263.942 348.488 263.849 348.235 263.664 348.033 263.478 347.83 263.239 347.729 262.946 347.729 262.653 347.729 262.41 347.832 262.216 348.037 262.023 348.242 261.898 348.55 261.84 348.96L261.087 348.811C261.181 348.248 261.39 347.811 261.715 347.501 262.039 347.19 262.444 347.034 262.93 347.034 263.26 347.034 263.565 347.115 263.848 347.276 264.13 347.438 264.345 347.656 264.491 347.932 264.637 348.207 264.711 348.5 264.711 348.811 264.711 349.11 264.64 349.381 264.499 349.624 264.358 349.868 264.148 350.06 263.871 350.2 264.232 350.294 264.513 350.489 264.715 350.785 264.916 351.081 265.016 351.449 265.016 351.889 265.016 352.487 264.822 352.994 264.432 353.41 264.043 353.826 263.55 354.034 262.954 354.034 262.42 354.034 261.976 353.856 261.62 353.498 261.265 353.14 261.064 352.674 261.016 352.1Z" fill="#262626" fill-rule="evenodd"/><path d="M296.159 354.035 296.159 352.364 293.024 352.364 293.024 351.573 296.317 347.035 297.04 347.035 297.04 351.573 298.024 351.573 298.024 352.364 297.04 352.364 297.04 354.035 296.159 354.035ZM296.159 351.573 296.159 348.419 293.896 351.573 296.159 351.573Z" fill="#262626" fill-rule="evenodd"/><path d="M325.029 352.09 326.006 352.01C326.077 352.452 326.243 352.783 326.504 353.004 326.765 353.226 327.079 353.336 327.447 353.336 327.892 353.336 328.269 353.181 328.578 352.87 328.888 352.559 329.043 352.144 329.043 351.624 329.043 351.14 328.894 350.756 328.598 350.472 328.301 350.189 327.914 350.047 327.437 350.047 327.141 350.047 326.871 350.109 326.63 350.235 326.388 350.36 326.199 350.525 326.064 350.728L325.193 350.62 325.928 347.035 329.671 347.035 329.671 347.851 326.663 347.851 326.257 349.724C326.709 349.437 327.183 349.294 327.679 349.294 328.337 349.294 328.893 349.504 329.347 349.926 329.802 350.347 330.029 350.889 330.029 351.552 330.029 352.186 329.829 352.733 329.429 353.193 328.946 353.754 328.285 354.035 327.447 354.035 326.763 354.035 326.206 353.857 325.774 353.502 325.342 353.146 325.093 352.676 325.029 352.09Z" fill="#262626" fill-rule="evenodd"/><path d="M361.918 348.743 361.179 348.804C361.116 348.476 361.023 348.238 360.898 348.091 360.696 347.85 360.45 347.73 360.159 347.73 359.921 347.73 359.71 347.803 359.529 347.95 359.295 348.144 359.111 348.426 358.976 348.796 358.841 349.165 358.771 349.694 358.766 350.38 358.948 350.075 359.167 349.848 359.424 349.698 359.681 349.548 359.952 349.474 360.237 349.474 360.735 349.474 361.158 349.68 361.505 350.094 361.853 350.508 362.027 351.041 362.027 351.692 362.027 352.121 361.945 352.52 361.782 352.89 361.618 353.26 361.393 353.543 361.105 353.74 360.817 353.936 360.491 354.035 360.128 354.035 359.511 354.035 359.006 353.776 358.614 353.26 358.223 352.743 358.027 351.895 358.027 350.715 358.027 349.388 358.242 348.423 358.673 347.818 359.051 347.296 359.56 347.035 360.198 347.035 360.675 347.035 361.067 347.186 361.373 347.488 361.679 347.79 361.861 348.208 361.918 348.743ZM358.883 351.701C358.883 351.989 358.937 352.265 359.046 352.529 359.155 352.793 359.307 352.996 359.502 353.136 359.696 353.277 359.902 353.348 360.12 353.348 360.432 353.348 360.7 353.204 360.926 352.916 361.151 352.629 361.264 352.238 361.264 351.745 361.264 351.27 361.153 350.896 360.93 350.623 360.707 350.35 360.426 350.213 360.089 350.213 359.752 350.213 359.467 350.35 359.233 350.623 359 350.896 358.883 351.255 358.883 351.701Z" fill="#262626" fill-rule="evenodd"/><path d="M390.039 347.873 390.039 347.036 395.039 347.036 395.039 347.718C394.543 348.198 394.053 348.835 393.57 349.63 393.088 350.425 392.714 351.244 392.449 352.088 392.264 352.682 392.145 353.332 392.092 354.036L391.11 354.036C391.123 353.477 391.244 352.804 391.472 352.015 391.7 351.226 392.028 350.464 392.454 349.73 392.881 348.996 393.336 348.377 393.818 347.873L390.039 347.873Z" fill="#262626" fill-rule="evenodd"/><path d="M423.485 350.204C423.101 350.075 422.816 349.892 422.627 349.654 422.439 349.416 422.345 349.133 422.345 348.804 422.345 348.305 422.544 347.886 422.944 347.545 423.344 347.205 423.872 347.035 424.528 347.035 425.191 347.035 425.723 347.208 426.126 347.554 426.529 347.9 426.731 348.323 426.731 348.822 426.731 349.145 426.64 349.424 426.458 349.658 426.276 349.893 425.996 350.075 425.619 350.204 426.081 350.339 426.433 350.559 426.677 350.865 426.921 351.17 427.042 351.534 427.042 351.957 427.042 352.544 426.813 353.037 426.355 353.436 425.897 353.835 425.295 354.035 424.547 354.035 423.793 354.035 423.188 353.835 422.73 353.436 422.271 353.037 422.042 352.538 422.042 351.939 422.042 351.493 422.168 351.119 422.418 350.816 422.668 350.514 423.024 350.31 423.485 350.204ZM423.3 348.778C423.3 349.101 423.415 349.365 423.646 349.57 423.876 349.776 424.177 349.879 424.547 349.879 424.905 349.879 425.199 349.776 425.429 349.57 425.66 349.365 425.775 349.115 425.775 348.822 425.775 348.511 425.657 348.251 425.42 348.043 425.182 347.834 424.888 347.73 424.538 347.73 424.18 347.73 423.884 347.833 423.651 348.038 423.417 348.244 423.3 348.49 423.3 348.778ZM422.998 351.939C422.998 352.18 423.061 352.413 423.188 352.639 423.314 352.865 423.503 353.04 423.753 353.163 424.003 353.286 424.271 353.348 424.557 353.348 424.999 353.348 425.366 353.217 425.658 352.956 425.951 352.695 426.097 352.365 426.097 351.965 426.097 351.56 425.948 351.226 425.649 350.962 425.35 350.697 424.976 350.565 424.528 350.565 424.086 350.565 423.72 350.696 423.431 350.957 423.142 351.218 422.998 351.546 422.998 351.939Z" fill="#262626" fill-rule="evenodd"/><path d="M455.193 352.335 456.082 352.256C456.16 352.637 456.307 352.915 456.521 353.088 456.736 353.261 457.013 353.348 457.352 353.348 457.638 353.348 457.889 353.288 458.104 353.167 458.318 353.047 458.496 352.888 458.636 352.692 458.776 352.495 458.891 352.228 458.982 351.891 459.074 351.553 459.119 351.211 459.119 350.865 459.119 350.824 459.119 350.765 459.119 350.689 458.93 350.959 458.675 351.177 458.353 351.345 458.03 351.512 457.68 351.596 457.303 351.596 456.671 351.596 456.137 351.39 455.701 350.979 455.265 350.568 455.047 350.025 455.047 349.35 455.047 348.652 455.275 348.091 455.73 347.668 456.186 347.246 456.756 347.035 457.439 347.035 457.934 347.035 458.387 347.155 458.797 347.396 459.207 347.636 459.518 347.978 459.729 348.421 459.941 348.865 460.047 349.509 460.047 350.354 460.047 351.229 459.941 351.926 459.729 352.445 459.518 352.965 459.204 353.359 458.787 353.63 458.37 353.9 457.882 354.035 457.322 354.035 456.73 354.035 456.245 353.886 455.867 353.59 455.49 353.293 455.265 352.875 455.193 352.335ZM459.012 349.306C459.012 348.825 458.869 348.442 458.582 348.157 458.296 347.872 457.954 347.73 457.557 347.73 457.14 347.73 456.777 347.883 456.468 348.188 456.159 348.493 456.004 348.889 456.004 349.377 456.004 349.817 456.15 350.172 456.443 350.442 456.736 350.712 457.098 350.847 457.527 350.847 457.964 350.847 458.32 350.712 458.597 350.442 458.873 350.172 459.012 349.793 459.012 349.306Z" fill="#262626" fill-rule="evenodd"/><path d="M487.843 353.92 486.919 353.92 486.919 348.558C486.692 348.751 486.397 348.944 486.034 349.135 485.67 349.325 485.343 349.471 485.051 349.57L485.051 348.751C485.576 348.534 486.034 348.267 486.423 347.95 486.812 347.633 487.088 347.328 487.25 347.035L487.843 347.035 487.843 353.92ZM490.109 350.539C490.109 349.729 490.201 349.076 490.386 348.58 490.571 348.084 490.845 347.702 491.208 347.435 491.571 347.168 492.029 347.035 492.58 347.035 492.989 347.035 493.345 347.108 493.65 347.255 493.955 347.401 494.208 347.616 494.409 347.897 494.61 348.179 494.767 348.52 494.881 348.919 494.994 349.318 495.051 349.858 495.051 350.539 495.051 351.343 494.96 351.992 494.779 352.485 494.597 352.978 494.325 353.359 493.961 353.63 493.598 353.9 493.138 354.035 492.58 354.035 491.847 354.035 491.273 353.8 490.858 353.33 490.358 352.755 490.109 351.824 490.109 350.539ZM491.062 350.539C491.062 351.666 491.208 352.416 491.5 352.789 491.792 353.161 492.152 353.348 492.58 353.348 493.008 353.348 493.368 353.16 493.66 352.784 493.952 352.409 494.098 351.66 494.098 350.539 494.098 349.412 493.952 348.662 493.66 348.289 493.368 347.917 493.005 347.73 492.57 347.73 492.142 347.73 491.802 347.895 491.549 348.223 491.224 348.64 491.062 349.412 491.062 350.539Z" fill="#262626" fill-rule="evenodd"/><path d="M166.5 340.5 166.5 85.5001" stroke="#262626" stroke-width="0.676115" stroke-linecap="square" stroke-linejoin="round" stroke-miterlimit="10" fill="none" fill-rule="evenodd"/><path d="M490.5 340.5 490.5 85.5001" stroke="#262626" stroke-width="0.676115" stroke-linecap="square" stroke-linejoin="round" stroke-miterlimit="10" fill="none" fill-rule="evenodd"/><path d="M166.5 340.5 169.5 340.5" stroke="#262626" stroke-width="0.676115" stroke-linecap="square" stroke-linejoin="round" stroke-miterlimit="10" fill="none" fill-rule="evenodd"/><path d="M166.5 314.5 169.5 314.5" stroke="#262626" stroke-width="0.676115" stroke-linecap="square" stroke-linejoin="round" stroke-miterlimit="10" fill="none" fill-rule="evenodd"/><path d="M166.5 289.5 169.5 289.5" stroke="#262626" stroke-width="0.676115" stroke-linecap="square" stroke-linejoin="round" stroke-miterlimit="10" fill="none" fill-rule="evenodd"/><path d="M166.5 263.5 169.5 263.5" stroke="#262626" stroke-width="0.676115" stroke-linecap="square" stroke-linejoin="round" stroke-miterlimit="10" fill="none" fill-rule="evenodd"/><path d="M166.5 238.5 169.5 238.5" stroke="#262626" stroke-width="0.676115" stroke-linecap="square" stroke-linejoin="round" stroke-miterlimit="10" fill="none" fill-rule="evenodd"/><path d="M166.5 212.5 169.5 212.5" stroke="#262626" stroke-width="0.676115" stroke-linecap="square" stroke-linejoin="round" stroke-miterlimit="10" fill="none" fill-rule="evenodd"/><path d="M166.5 187.5 169.5 187.5" stroke="#262626" stroke-width="0.676115" stroke-linecap="square" stroke-linejoin="round" stroke-miterlimit="10" fill="none" fill-rule="evenodd"/><path d="M166.5 161.5 169.5 161.5" stroke="#262626" stroke-width="0.676115" stroke-linecap="square" stroke-linejoin="round" stroke-miterlimit="10" fill="none" fill-rule="evenodd"/><path d="M166.5 136.5 169.5 136.5" stroke="#262626" stroke-width="0.676115" stroke-linecap="square" stroke-linejoin="round" stroke-miterlimit="10" fill="none" fill-rule="evenodd"/><path d="M166.5 110.5 169.5 110.5" stroke="#262626" stroke-width="0.676115" stroke-linecap="square" stroke-linejoin="round" stroke-miterlimit="10" fill="none" fill-rule="evenodd"/><path d="M166.5 85.5001 169.5 85.5001" stroke="#262626" stroke-width="0.676115" stroke-linecap="square" stroke-linejoin="round" stroke-miterlimit="10" fill="none" fill-rule="evenodd"/><path d="M490.5 340.5 486.5 340.5" stroke="#262626" stroke-width="0.676115" stroke-linecap="square" stroke-linejoin="round" stroke-miterlimit="10" fill="none" fill-rule="evenodd"/><path d="M490.5 314.5 486.5 314.5" stroke="#262626" stroke-width="0.676115" stroke-linecap="square" stroke-linejoin="round" stroke-miterlimit="10" fill="none" fill-rule="evenodd"/><path d="M490.5 289.5 486.5 289.5" stroke="#262626" stroke-width="0.676115" stroke-linecap="square" stroke-linejoin="round" stroke-miterlimit="10" fill="none" fill-rule="evenodd"/><path d="M490.5 263.5 486.5 263.5" stroke="#262626" stroke-width="0.676115" stroke-linecap="square" stroke-linejoin="round" stroke-miterlimit="10" fill="none" fill-rule="evenodd"/><path d="M490.5 238.5 486.5 238.5" stroke="#262626" stroke-width="0.676115" stroke-linecap="square" stroke-linejoin="round" stroke-miterlimit="10" fill="none" fill-rule="evenodd"/><path d="M490.5 212.5 486.5 212.5" stroke="#262626" stroke-width="0.676115" stroke-linecap="square" stroke-linejoin="round" stroke-miterlimit="10" fill="none" fill-rule="evenodd"/><path d="M490.5 187.5 486.5 187.5" stroke="#262626" stroke-width="0.676115" stroke-linecap="square" stroke-linejoin="round" stroke-miterlimit="10" fill="none" fill-rule="evenodd"/><path d="M490.5 161.5 486.5 161.5" stroke="#262626" stroke-width="0.676115" stroke-linecap="square" stroke-linejoin="round" stroke-miterlimit="10" fill="none" fill-rule="evenodd"/><path d="M490.5 136.5 486.5 136.5" stroke="#262626" stroke-width="0.676115" stroke-linecap="square" stroke-linejoin="round" stroke-miterlimit="10" fill="none" fill-rule="evenodd"/><path d="M490.5 110.5 486.5 110.5" stroke="#262626" stroke-width="0.676115" stroke-linecap="square" stroke-linejoin="round" stroke-miterlimit="10" fill="none" fill-rule="evenodd"/><path d="M490.5 85.5001 486.5 85.5001" stroke="#262626" stroke-width="0.676115" stroke-linecap="square" stroke-linejoin="round" stroke-miterlimit="10" fill="none" fill-rule="evenodd"/><path d="M145.007 341.859 145.007 341.014 147.819 341.014 147.819 341.859 145.007 341.859ZM153.338 343.109 153.338 343.92 148.395 343.92C148.389 343.714 148.424 343.52 148.501 343.338 148.629 343.027 148.83 342.722 149.105 342.423 149.38 342.123 149.78 341.777 150.305 341.384 151.118 340.773 151.667 340.289 151.951 339.931 152.236 339.573 152.379 339.235 152.379 338.918 152.379 338.584 152.249 338.302 151.99 338.073 151.731 337.844 151.393 337.73 150.977 337.73 150.536 337.73 150.182 337.851 149.916 338.095 149.651 338.339 149.515 338.675 149.508 339.103L148.568 339.015C148.632 338.369 148.875 337.878 149.297 337.54 149.72 337.203 150.286 337.034 150.996 337.034 151.713 337.034 152.281 337.216 152.7 337.58 153.119 337.944 153.329 338.396 153.329 338.936 153.329 339.212 153.266 339.482 153.142 339.746 153.017 340.01 152.814 340.289 152.532 340.582 152.251 340.876 151.78 341.278 151.121 341.789 150.571 342.217 150.217 342.506 150.06 342.656 149.904 342.806 149.774 342.957 149.672 343.109L153.338 343.109ZM154.719 343.92 154.719 342.96 155.766 342.96 155.766 343.92 154.719 343.92ZM157.044 342.123 158.014 342.044C158.084 342.479 158.249 342.804 158.508 343.021 158.767 343.239 159.079 343.347 159.444 343.347 159.885 343.347 160.26 343.195 160.567 342.889 160.874 342.584 161.028 342.176 161.028 341.666 161.028 341.19 160.88 340.813 160.586 340.534 160.292 340.255 159.908 340.116 159.434 340.116 159.14 340.116 158.873 340.177 158.633 340.301 158.393 340.424 158.205 340.585 158.071 340.785L157.207 340.679 157.937 337.157 161.651 337.157 161.651 337.959 158.666 337.959 158.263 339.799C158.711 339.517 159.181 339.376 159.674 339.376 160.327 339.376 160.879 339.583 161.33 339.997 161.781 340.411 162.007 340.943 162.007 341.595 162.007 342.217 161.808 342.754 161.412 343.206 160.932 343.758 160.276 344.034 159.444 344.034 158.765 344.034 158.212 343.859 157.783 343.51 157.354 343.161 157.108 342.699 157.044 342.123Z" fill="#262626" fill-rule="evenodd"/><path d="M154.006 315.937 154.006 315.078 156.707 315.078 156.707 315.937 154.006 315.937ZM162.006 317.208 162.006 318.031 157.26 318.031C157.254 317.823 157.287 317.626 157.361 317.441 157.484 317.124 157.678 316.814 157.942 316.51 158.206 316.205 158.59 315.853 159.094 315.453 159.874 314.833 160.401 314.341 160.675 313.976 160.948 313.612 161.085 313.269 161.085 312.947 161.085 312.607 160.96 312.32 160.711 312.088 160.463 311.855 160.138 311.739 159.739 311.739 159.315 311.739 158.976 311.862 158.721 312.11 158.466 312.358 158.335 312.699 158.329 313.135L157.426 313.046C157.487 312.389 157.721 311.889 158.126 311.546 158.532 311.203 159.075 311.031 159.758 311.031 160.446 311.031 160.991 311.216 161.393 311.586 161.796 311.956 161.997 312.416 161.997 312.965 161.997 313.245 161.937 313.52 161.817 313.788 161.698 314.057 161.503 314.341 161.232 314.639 160.962 314.937 160.51 315.346 159.877 315.865 159.349 316.301 159.009 316.595 158.859 316.747 158.708 316.899 158.584 317.053 158.486 317.208L162.006 317.208Z" fill="#262626" fill-rule="evenodd"/><path d="M145.007 290.853 145.007 290.008 147.819 290.008 147.819 290.853 145.007 290.853ZM151.966 292.913 151.054 292.913 151.054 287.551C150.83 287.745 150.539 287.937 150.18 288.128 149.822 288.319 149.499 288.464 149.211 288.564L149.211 287.745C149.729 287.528 150.18 287.261 150.564 286.944 150.948 286.627 151.22 286.321 151.38 286.028L151.966 286.028 151.966 292.913ZM154.719 292.913 154.719 291.954 155.766 291.954 155.766 292.913 154.719 292.913ZM157.044 291.117 158.014 291.038C158.084 291.472 158.249 291.798 158.508 292.015 158.767 292.232 159.079 292.341 159.444 292.341 159.885 292.341 160.26 292.188 160.567 291.883 160.874 291.578 161.028 291.17 161.028 290.659 161.028 290.184 160.88 289.807 160.586 289.528 160.292 289.249 159.908 289.11 159.434 289.11 159.14 289.11 158.873 289.171 158.633 289.294 158.393 289.418 158.205 289.579 158.071 289.779L157.207 289.673 157.937 286.151 161.651 286.151 161.651 286.952 158.666 286.952 158.263 288.793C158.711 288.511 159.181 288.37 159.674 288.37 160.327 288.37 160.879 288.577 161.33 288.991 161.781 289.405 162.007 289.937 162.007 290.589 162.007 291.211 161.808 291.748 161.412 292.2 160.932 292.752 160.276 293.028 159.444 293.028 158.765 293.028 158.212 292.853 157.783 292.504 157.354 292.155 157.108 291.692 157.044 291.117Z" fill="#262626" fill-rule="evenodd"/><path d="M154.006 264.931 154.006 264.071 156.431 264.071 156.431 264.931 154.006 264.931ZM160.006 267.025 159.22 267.025 159.22 261.574C159.026 261.771 158.775 261.966 158.466 262.16 158.157 262.354 157.879 262.502 157.631 262.603L157.631 261.771C158.077 261.55 158.466 261.278 158.797 260.956 159.128 260.634 159.363 260.323 159.501 260.025L160.006 260.025 160.006 267.025Z" fill="#262626" fill-rule="evenodd"/><path d="M145.007 239.847 145.007 239.001 147.819 239.001 147.819 239.847 145.007 239.847ZM148.51 238.526C148.51 237.716 148.601 237.063 148.784 236.567 148.966 236.071 149.236 235.689 149.595 235.422 149.953 235.155 150.404 235.022 150.948 235.022 151.351 235.022 151.703 235.095 152.004 235.242 152.305 235.388 152.555 235.603 152.753 235.884 152.951 236.166 153.106 236.507 153.218 236.906 153.33 237.305 153.387 237.845 153.387 238.526 153.387 239.33 153.297 239.979 153.118 240.472 152.939 240.965 152.67 241.346 152.311 241.617 151.953 241.887 151.499 242.022 150.948 242.022 150.225 242.022 149.659 241.787 149.249 241.317 148.757 240.742 148.51 239.812 148.51 238.526ZM149.451 238.526C149.451 239.653 149.595 240.403 149.883 240.776 150.171 241.148 150.526 241.335 150.948 241.335 151.371 241.335 151.726 241.147 152.014 240.771 152.302 240.396 152.446 239.647 152.446 238.526 152.446 237.399 152.302 236.649 152.014 236.276 151.726 235.904 151.368 235.717 150.939 235.717 150.516 235.717 150.18 235.882 149.931 236.21 149.611 236.627 149.451 237.399 149.451 238.526ZM154.719 241.907 154.719 240.947 155.766 240.947 155.766 241.907 154.719 241.907ZM157.044 240.111 158.014 240.032C158.084 240.466 158.249 240.792 158.508 241.009 158.767 241.226 159.079 241.335 159.444 241.335 159.885 241.335 160.26 241.182 160.567 240.877 160.874 240.572 161.028 240.164 161.028 239.653 161.028 239.178 160.88 238.8 160.586 238.522 160.292 238.243 159.908 238.103 159.434 238.103 159.14 238.103 158.873 238.165 158.633 238.288 158.393 238.411 158.205 238.573 158.071 238.773L157.207 238.667 157.937 235.145 161.651 235.145 161.651 235.946 158.666 235.946 158.263 237.786C158.711 237.505 159.181 237.364 159.674 237.364 160.327 237.364 160.879 237.571 161.33 237.984 161.781 238.398 162.007 238.931 162.007 239.583 162.007 240.205 161.808 240.742 161.412 241.194 160.932 241.746 160.276 242.022 159.444 242.022 158.765 242.022 158.212 241.847 157.783 241.498 157.354 241.148 157.108 240.686 157.044 240.111Z" fill="#262626" fill-rule="evenodd"/><path d="M157.005 212.523C157.005 211.713 157.08 211.06 157.23 210.564 157.38 210.068 157.601 209.686 157.895 209.419 158.189 209.152 158.559 209.018 159.006 209.018 159.336 209.018 159.625 209.092 159.872 209.239 160.118 209.385 160.323 209.6 160.486 209.881 160.649 210.163 160.776 210.504 160.868 210.903 160.96 211.302 161.006 211.842 161.006 212.523 161.006 213.327 160.932 213.976 160.785 214.469 160.638 214.962 160.418 215.343 160.124 215.613 159.83 215.883 159.457 216.018 159.006 216.018 158.412 216.018 157.948 215.784 157.612 215.314 157.208 214.739 157.005 213.808 157.005 212.523ZM157.777 212.523C157.777 213.65 157.895 214.4 158.132 214.773 158.368 215.145 158.659 215.332 159.006 215.332 159.352 215.332 159.643 215.144 159.88 214.768 160.116 214.392 160.234 213.644 160.234 212.523 160.234 211.396 160.116 210.646 159.88 210.273 159.643 209.9 159.349 209.714 158.998 209.714 158.651 209.714 158.376 209.878 158.171 210.207 157.908 210.624 157.777 211.396 157.777 212.523Z" fill="#262626" fill-rule="evenodd"/><path d="M148.006 187.52C148.006 186.71 148.094 186.057 148.27 185.561 148.446 185.065 148.706 184.683 149.051 184.416 149.396 184.149 149.831 184.015 150.355 184.015 150.743 184.015 151.082 184.089 151.372 184.235 151.662 184.382 151.902 184.596 152.093 184.878 152.284 185.16 152.434 185.5 152.542 185.9 152.649 186.299 152.703 186.839 152.703 187.52 152.703 188.324 152.617 188.973 152.444 189.466 152.272 189.959 152.013 190.34 151.668 190.61 151.323 190.88 150.885 191.015 150.355 191.015 149.658 191.015 149.113 190.781 148.718 190.311 148.244 189.736 148.006 188.805 148.006 187.52ZM148.913 187.52C148.913 188.647 149.051 189.397 149.329 189.769 149.606 190.142 149.948 190.329 150.355 190.329 150.762 190.329 151.104 190.141 151.381 189.765 151.659 189.389 151.797 188.641 151.797 187.52 151.797 186.393 151.659 185.643 151.381 185.27 151.104 184.897 150.759 184.711 150.346 184.711 149.939 184.711 149.615 184.875 149.375 185.204 149.067 185.621 148.913 186.393 148.913 187.52ZM153.987 190.901 153.987 189.941 154.995 189.941 154.995 190.901 153.987 190.901ZM156.226 189.105 157.16 189.025C157.228 189.46 157.387 189.786 157.636 190.003 157.886 190.22 158.186 190.329 158.538 190.329 158.963 190.329 159.324 190.176 159.62 189.871 159.915 189.565 160.063 189.158 160.063 188.647 160.063 188.171 159.922 187.794 159.638 187.515 159.355 187.236 158.985 187.097 158.529 187.097 158.245 187.097 157.988 187.159 157.757 187.282 157.525 187.405 157.345 187.567 157.216 187.766L156.384 187.661 157.086 184.139 160.664 184.139 160.664 184.94 157.789 184.94 157.401 186.78C157.832 186.498 158.285 186.357 158.76 186.357 159.388 186.357 159.92 186.564 160.355 186.978 160.789 187.392 161.007 187.925 161.007 188.576 161.007 189.199 160.815 189.736 160.433 190.188 159.971 190.739 159.339 191.015 158.538 191.015 157.884 191.015 157.351 190.841 156.938 190.491 156.525 190.142 156.288 189.68 156.226 189.105Z" fill="#262626" fill-rule="evenodd"/><path d="M160.007 165.012 159.014 165.012 159.014 159.561C158.77 159.758 158.453 159.953 158.063 160.147 157.673 160.341 157.321 160.489 157.007 160.59L157.007 159.758C157.572 159.537 158.063 159.266 158.481 158.943 158.899 158.621 159.196 158.311 159.37 158.012L160.007 158.012 160.007 165.012Z" fill="#262626" fill-rule="evenodd"/><path d="M151.59 139.895 150.735 139.895 150.735 134.532C150.525 134.726 150.252 134.918 149.915 135.109 149.579 135.3 149.276 135.445 149.006 135.545L149.006 134.726C149.492 134.509 149.915 134.242 150.276 133.925 150.636 133.608 150.891 133.303 151.041 133.009L151.59 133.009 151.59 139.895ZM154.172 139.895 154.172 138.935 155.153 138.935 155.153 139.895 154.172 139.895ZM156.352 138.098 157.261 138.019C157.327 138.454 157.482 138.779 157.725 138.997 157.968 139.214 158.261 139.322 158.603 139.322 159.017 139.322 159.368 139.17 159.656 138.864 159.944 138.559 160.088 138.151 160.088 137.641 160.088 137.165 159.95 136.788 159.674 136.509 159.398 136.23 159.038 136.091 158.594 136.091 158.318 136.091 158.067 136.152 157.842 136.276 157.617 136.399 157.441 136.56 157.315 136.76L156.505 136.654 157.189 133.132 160.673 133.132 160.673 133.934 157.874 133.934 157.496 135.774C157.916 135.492 158.357 135.351 158.819 135.351 159.431 135.351 159.949 135.558 160.372 135.972 160.795 136.386 161.006 136.919 161.006 137.57 161.006 138.192 160.82 138.729 160.448 139.181 159.998 139.733 159.383 140.009 158.603 140.009 157.967 140.009 157.448 139.834 157.045 139.485 156.643 139.136 156.412 138.674 156.352 138.098Z" fill="#262626" fill-rule="evenodd"/><path d="M161.005 113.183 161.005 114.006 157.006 114.006C157.001 113.797 157.029 113.6 157.091 113.415 157.195 113.099 157.358 112.789 157.581 112.484 157.803 112.18 158.127 111.828 158.551 111.428 159.209 110.807 159.653 110.315 159.883 109.951 160.114 109.587 160.229 109.244 160.229 108.922 160.229 108.582 160.124 108.295 159.914 108.062 159.705 107.83 159.432 107.713 159.095 107.713 158.738 107.713 158.452 107.837 158.237 108.085 158.022 108.332 157.912 108.674 157.907 109.11L157.146 109.02C157.198 108.364 157.394 107.864 157.736 107.521 158.078 107.178 158.536 107.006 159.111 107.006 159.69 107.006 160.15 107.191 160.489 107.561 160.828 107.931 160.998 108.391 160.998 108.94 160.998 109.22 160.947 109.495 160.846 109.763 160.745 110.032 160.581 110.315 160.353 110.614 160.125 110.912 159.745 111.321 159.212 111.84 158.766 112.275 158.48 112.569 158.353 112.722 158.227 112.874 158.122 113.027 158.039 113.183L161.005 113.183Z" fill="#262626" fill-rule="evenodd"/><path d="M152.728 88.0783 152.728 88.8884 148.007 88.8884C148.001 88.6829 148.035 88.4892 148.108 88.3073 148.23 87.9961 148.423 87.6909 148.685 87.3916 148.948 87.0922 149.33 86.7459 149.831 86.3525 150.608 85.7421 151.132 85.2578 151.404 84.8997 151.676 84.5417 151.812 84.2041 151.812 83.8871 151.812 83.5526 151.688 83.2708 151.44 83.0419 151.193 82.8129 150.87 82.6985 150.473 82.6985 150.051 82.6985 149.714 82.8203 149.46 83.0639 149.206 83.3075 149.077 83.6435 149.07 84.0721L148.172 83.984C148.233 83.3383 148.465 82.8467 148.869 82.5092 149.272 82.1716 149.813 82.0028 150.491 82.0028 151.176 82.0028 151.718 82.1848 152.119 82.5488 152.519 82.9127 152.719 83.3647 152.719 83.9047 152.719 84.1806 152.659 84.4507 152.54 84.7148 152.421 84.979 152.227 85.2578 151.958 85.5513 151.689 85.8448 151.24 86.2469 150.611 86.7576 150.085 87.1861 149.747 87.4752 149.598 87.6249 149.448 87.7745 149.324 87.9257 149.226 88.0783L152.728 88.0783ZM154.047 88.8884 154.047 87.9287 155.046 87.9287 155.046 88.8884 154.047 88.8884ZM156.267 87.0922 157.193 87.013C157.26 87.4473 157.417 87.7731 157.665 87.9902 157.912 88.2075 158.21 88.3161 158.559 88.3161 158.98 88.3161 159.338 88.1635 159.631 87.8582 159.925 87.553 160.071 87.1451 160.071 86.6343 160.071 86.1588 159.931 85.7817 159.65 85.5028 159.369 85.224 159.002 85.0847 158.55 85.0847 158.269 85.0847 158.013 85.1463 157.784 85.2695 157.555 85.3928 157.376 85.5542 157.248 85.7538L156.423 85.6482 157.12 82.1261 160.667 82.1261 160.667 82.9274 157.816 82.9274 157.431 84.7677C157.859 84.4859 158.308 84.345 158.779 84.345 159.402 84.345 159.929 84.5519 160.36 84.9658 160.791 85.3796 161.006 85.9123 161.006 86.5639 161.006 87.1861 160.817 87.7232 160.438 88.1752 159.98 88.7269 159.353 89.0028 158.559 89.0028 157.911 89.0028 157.382 88.8282 156.973 88.4789 156.563 88.1297 156.328 87.6675 156.267 87.0922Z" fill="#262626" fill-rule="evenodd"/><path d="M168.007 81.8419C168.007 81.7961 168.023 81.7554 168.055 81.7198L170.217 80.0022 168.055 78.2771C168.023 78.2465 168.007 78.2084 168.007 78.1626 168.007 78.1218 168.028 78.085 168.069 78.0519 168.11 78.0188 168.16 78.0022 168.217 78.0022 168.261 78.0022 168.312 78.0175 168.369 78.0481L170.512 79.7732 172.655 78.0481C172.712 78.0175 172.763 78.0022 172.807 78.0022 172.864 78.0022 172.912 78.0175 172.95 78.0481 172.988 78.0786 173.007 78.1168 173.007 78.1626 173.007 78.2084 172.991 78.2465 172.96 78.2771L170.807 80.0022 172.96 81.7198C172.991 81.7554 173.007 81.7961 173.007 81.8419 173.007 81.8877 172.988 81.9258 172.95 81.9564 172.912 81.9869 172.864 82.0022 172.807 82.0022 172.756 82.0022 172.706 81.9819 172.655 81.9411L170.512 80.2312 168.369 81.9411C168.318 81.9819 168.268 82.0022 168.217 82.0022 168.16 82.0022 168.11 81.9857 168.069 81.9526 168.028 81.9195 168.007 81.8826 168.007 81.8419Z" fill="#262626" fill-rule="evenodd"/><path d="M177.801 82.8721 176.876 82.8721 176.876 76.7438C176.649 76.9652 176.354 77.1849 175.991 77.4029 175.628 77.6209 175.3 77.7869 175.008 77.901L175.008 76.9652C175.534 76.7169 175.991 76.4117 176.38 76.0494 176.769 75.6872 177.045 75.3384 177.207 75.0029L177.801 75.0029 177.801 82.8721ZM180.066 79.008C180.066 78.0822 180.158 77.3358 180.343 76.769 180.528 76.2021 180.802 75.766 181.165 75.4609 181.529 75.1555 181.986 75.0029 182.537 75.0029 182.946 75.0029 183.303 75.0868 183.607 75.2545 183.912 75.4222 184.165 75.6671 184.366 75.9891 184.567 76.3111 184.725 76.7002 184.838 77.1564 184.952 77.6126 185.008 78.2297 185.008 79.008 185.008 79.927 184.918 80.6683 184.736 81.2318 184.554 81.7954 184.282 82.2315 183.919 82.5401 183.556 82.8486 183.095 83.0029 182.537 83.0029 181.804 83.0029 181.23 82.7346 180.815 82.1979 180.316 81.5405 180.066 80.4772 180.066 79.008ZM181.02 79.008C181.02 80.2961 181.165 81.1531 181.457 81.579 181.749 82.005 182.109 82.2181 182.537 82.2181 182.965 82.2181 183.325 82.0033 183.617 81.5741 183.909 81.1447 184.055 80.2893 184.055 79.008 184.055 77.7199 183.909 76.8629 183.617 76.4369 183.325 76.0109 182.962 75.7979 182.528 75.7979 182.099 75.7979 181.759 75.9857 181.506 76.3614 181.182 76.8378 181.02 77.7199 181.02 79.008Z" fill="#262626" fill-rule="evenodd"/><path d="M186.009 76.1372 186.009 75.4167 187.986 75.4167 187.986 76.1372 186.009 76.1372ZM191.912 73.4628 191.271 73.5219C191.218 73.2391 191.139 73.0319 191.033 72.9002 190.858 72.6963 190.644 72.5944 190.392 72.5944 190.187 72.5944 190.005 72.6602 189.847 72.7917 189.648 72.9562 189.49 73.1963 189.373 73.5121 189.255 73.8279 189.194 74.2819 189.188 74.874 189.34 74.6108 189.529 74.4151 189.755 74.2868 189.98 74.1585 190.216 74.0944 190.462 74.0944 190.89 74.0944 191.255 74.2704 191.556 74.6223 191.858 74.9743 192.009 75.4332 192.009 75.999 192.009 76.3674 191.937 76.7095 191.794 77.0253 191.65 77.3411 191.455 77.5829 191.209 77.7506 190.963 77.9183 190.682 78.0023 190.366 78.0023 189.832 78.0023 189.396 77.7819 189.056 77.3411 188.716 76.9003 188.546 76.1701 188.546 75.1503 188.546 74.0186 188.734 73.193 189.109 72.6733 189.437 72.2259 189.876 72.0022 190.427 72.0022 190.837 72.0022 191.174 72.1321 191.438 72.392 191.701 72.6519 191.86 73.0088 191.912 73.4628ZM189.285 75.999C189.285 76.2489 189.331 76.4874 189.425 76.7144 189.519 76.9414 189.651 77.1141 189.821 77.2325 189.991 77.351 190.169 77.4102 190.357 77.4102 190.626 77.4102 190.859 77.2868 191.055 77.0401 191.252 76.7934 191.35 76.4595 191.35 76.0384 191.35 75.6306 191.253 75.3098 191.06 75.0762 190.866 74.8427 190.623 74.726 190.33 74.726 190.037 74.726 189.79 74.8427 189.588 75.0762 189.386 75.3098 189.285 75.6174 189.285 75.999Z" fill="#262626" fill-rule="evenodd"/><path d="M166.5 213 166.501 109.5 166.551 109.5 166.701 109.5 167.3 109.5 169.665 109.5 174.6 109.5 174.6 213.271 174.7 213.001 174.713 213 174.729 213.001 174.842 213 174.877 213.001 174.912 213 175.002 213 175.06 213.001 175.118 213 175.192 213.001 175.267 213 175.363 213.001 175.459 213 175.583 213.001 175.706 213 175.866 213.001 176.025 213 176.23 213.001 176.435 213 176.699 213.001 176.964 213 177.304 213.001 177.644 213 178.082 213.001 178.52 213 179.084 213.001 179.648 213 180.374 213.001 181.101 213 182.036 213.001 182.7 213 182.701 109.5 182.727 109.5 182.794 109.5 183.066 109.5 184.051 109.5 187.438 109.5 190.8 109.5 190.8 213.272 190.813 213.001 190.815 213 190.818 213.001 190.951 213 190.984 213.001 191.024 213 191.073 213.001 191.133 213 191.207 213.001 191.297 213 191.407 213.001 191.541 213 191.705 213.001 191.905 213 192.149 213.001 192.448 213 192.814 213.001 193.26 213 193.805 213.001 194.471 213 195.284 213.001 196.278 213 197.492 213.001 198.9 213 198.901 109.5 199.001 109.5 199.296 109.5 200.382 109.5 204.158 109.5 207 109.5 207 213.272 207.066 213.001 207.1 213 207.151 213.001 207.231 213 207.355 213.001 207.548 213 207.848 213.001 208.314 213 209.037 213.001 210.16 213 211.905 213.001 214.614 213 215.1 213.001 215.103 109.5 215.109 109.5 215.13 109.5 215.207 109.5 215.528 109.5 216.715 109.5 220.886 109.5 223.2 109.5 223.2 213.272 223.282 213 223.344 213.001 223.456 213 223.663 213.001 224.04 213 224.731 213.001 225.995 213 228.309 213.001 231.3 213 231.301 109.5 231.333 109.5 231.45 109.5 231.933 109.5 233.951 109.5 239.4 109.5 239.4 213.272 239.445 213.001 239.449 213 239.455 213.001 239.579 213.001 239.597 213 239.618 213.001 239.723 213.001 239.755 213 239.793 213.001 239.878 213.001 239.925 213 239.982 213.001 240.039 213 240.108 213.001 240.177 213 240.26 213.001 240.344 213 240.446 213.001 240.548 213 240.672 213.001 240.796 213 240.947 213.001 241.098 213 241.281 213.001 241.464 213 241.686 213.001 241.909 213 242.179 213.001 242.45 213 242.779 213.001 243.107 213 243.507 213.001 243.906 213 244.392 213.001 244.877 213 245.467 213.001 246.057 213 246.775 213.001 247.5 213 247.501 316.5 247.536 316.5 247.67 316.5 248.339 316.5 251.687 316.5 255.6 316.5 255.6 212.728 255.7 212.999 255.726 213.001 255.759 212.999 255.801 213.001 255.854 212.999 255.921 213.001 256.006 212.999 256.114 213.001 256.251 212.999 256.423 213.001 256.642 212.999 256.92 213.001 257.271 212.999 257.716 213.001 258.28 212.999 258.993 213.001 259.898 212.999 261.043 213.001 262.493 212.999 263.7 213.001 263.701 316.5 263.738 316.5 263.883 316.5 264.606 316.5 268.224 316.5 271.8 316.5 271.8 212.81 271.812 212.999 271.815 213.001 271.819 212.999 271.958 213.001 272.001 212.999 272.057 213.001 272.127 212.999 272.217 213.001 272.331 212.999 272.477 213.001 272.664 212.999 272.902 213.001 273.206 212.999 273.593 213.001 274.087 212.999 274.718 213.001 275.523 212.999 276.55 213.001 277.86 212.999 279.532 213.001 279.9 212.999 279.901 316.5 279.938 316.5 280.049 316.5 280.545 316.5 282.454 316.5 288 316.5 288 212.728 288.074 213.001 288.075 213 288.076 213.001 288.224 213 288.224 213 288.225 213 288.372 213 288.373 213 288.47 212.999 288.47 213.001 288.516 212.999 288.551 213.001 288.612 212.999 288.718 213.001 288.907 212.999 289.238 213.001 289.822 212.999 290.851 213.001 292.664 212.999 296.1 213.001 296.103 316.5 296.128 316.5 296.215 316.5 296.584 316.5 297.919 316.5 303.05 316.5 304.2 316.5 304.2 212.728 304.322 212.999 304.376 213.001 304.456 212.999 304.575 213.001 304.751 212.999 305.012 213.001 305.398 212.999 305.969 213.001 306.816 212.999 308.07 213.001 309.927 212.999 312.3 213.001 312.308 316.5 312.333 316.5 312.393 316.5 312.691 316.5 313.679 316.5 317.474 316.5 320.4 316.5 320.4 212.728 320.44 213.001 320.449 212.999 320.46 213.001 320.57 212.999 320.609 213.001 320.659 212.999 320.719 213.001 320.794 212.999 320.887 213.001 321.001 212.999 321.143 213.001 321.318 212.999 321.534 213.001 321.801 212.999 322.131 213.001 322.538 212.999 323.042 213.001 323.664 212.999 324.433 213.001 325.384 212.999 326.558 213.001 328.008 212.999 328.5 213.001 328.501 109.5 328.575 109.5 328.806 109.5 329.746 109.5 333.605 109.5 336.6 109.5 336.6 213.272 336.691 213.001 336.71 212.999 336.732 213.001 336.832 212.999 336.88 213.001 336.937 212.999 337.006 213.001 337.09 212.999 337.191 213.001 337.313 212.999 337.46 213.001 337.637 212.999 337.851 213.001 338.108 212.999 338.419 213.001 338.794 212.999 339.247 213.001 339.792 212.999 340.45 213.001 341.244 212.999 342.201 213.001 343.356 212.999 344.7 213.001 344.701 109.5 344.736 109.5 344.861 109.5 345.489 109.5 348.63 109.5 352.8 109.5 352.8 213.272 352.812 213.001 352.816 212.999 352.821 213.001 352.933 213.001 352.983 212.999 353.052 213.001 353.147 212.999 353.279 213.001 353.462 212.999 353.714 213.001 354.063 212.999 354.546 213.001 355.213 212.999 356.136 213.001 357.412 212.999 359.176 213.001 360.9 212.999 360.901 109.5 361.019 109.5 361.448 109.5 363.341 109.5 369 109.5 369 213.272 369.051 213.001 369.076 212.999 369.123 213.001 369.214 212.999 369.389 213.001 369.725 212.999 370.369 213.001 371.603 212.999 373.972 213.001 377.1 212.999 377.101 109.5 377.11 109.5 377.138 109.5 377.264 109.5 377.851 109.5 380.231 109.5 385.2 109.5 385.2 213.272 385.283 213.001 385.335 212.999 385.425 213.001 385.583 212.999 385.86 213.001 386.345 212.999 387.192 213.001 388.675 212.999 391.269 213.001 393.3 212.999 393.301 109.5 393.334 109.5 393.418 109.5 393.744 109.5 394.853 109.5 398.573 109.5 401.4 109.5 401.4 213.272 401.439 213.001 401.449 212.999 401.461 213.001 401.588 212.999 401.636 213.001 401.696 212.999 401.772 213.001 401.868 212.999 401.988 213.001 402.14 212.999 402.33 213.001 402.57 212.999 402.872 213.001 403.252 212.999 403.729 213.001 404.33 212.999 405.086 213.001 406.038 212.999 407.235 213.001 408.741 212.999 409.5 213.001 409.501 316.5 409.592 316.5 409.822 316.5 410.55 316.5 412.856 316.5 417.6 316.5 417.6 212.728 417.703 213 417.71 213.001 417.717 213 417.84 213.001 417.855 213 417.873 213.001 418.002 213.001 418.028 213 418.055 213.001 418.151 213 418.189 213.001 418.228 213 418.266 213.001 418.313 213 418.36 213.001 418.407 213 418.463 213.001 418.519 213 418.576 213.001 418.644 213 418.712 213.001 418.78 213 418.863 213.001 418.945 213 419.027 213.001 419.126 213 419.226 213.001 419.325 213 419.445 213.001 419.565 213 419.685 213.001 419.83 213 419.975 213.001 420.12 213 420.295 213.001 420.47 213 420.646 213.001 420.857 213 421.068 213.001 421.28 213 421.535 213.001 421.79 213 422.046 213.001 422.354 213 422.662 213.001 422.971 213 423.343 213.001 423.715 213 424.088 213.001 424.537 213 424.987 213.001 425.437 213 425.7 213.001 425.701 316.5 425.729 316.5 425.788 316.5 425.981 316.5 426.572 316.5 428.457 316.5 433.8 316.5 433.8 212.728 433.813 213.001 433.816 212.999 433.821 213.001 433.963 212.999 434.022 213.001 434.101 212.999 434.21 213.001 434.358 212.999 434.56 213.001 434.836 212.999 435.212 213.001 435.724 212.999 436.423 213.001 437.376 212.999 438.676 213.001 440.448 212.999 441.9 213.001 441.901 316.5 441.969 316.5 442.069 316.5 442.318 316.5 442.936 316.5 444.464 316.5 448.266 316.5 450 316.5 450 212.728 450.069 213.001 450.093 212.999 450.125 213.001 450.169 212.999 450.229 213.001 450.311 212.999 450.422 213.001 450.575 212.999 450.782 213.001 451.065 212.999 451.451 213.001 451.978 212.999 452.696 213.001 453.675 212.999 455.011 213.001 456.832 212.999 458.1 213.001 458.101 316.5 458.115 316.5 458.134 316.5 458.179 316.5 458.287 316.5 458.546 316.5 459.165 316.5 460.642 316.5 464.174 316.5 466.2 316.5 466.2 212.728 466.319 213.001 466.381 212.999 466.475 213.001 466.619 212.999 466.838 213.001 467.172 212.999 467.682 213.001 468.461 212.999 469.65 213.001 471.464 212.999 474.3 213.001 474.301 316.5 474.345 316.5 474.403 316.5 474.539 316.5 474.856 316.5 475.594 316.5 477.319 316.5 481.342 316.5 482.4 316.5 482.4 212.728 482.444 212.999 482.462 213.001 482.487 212.999 482.574 212.999 482.647 213.001 482.751 212.999 482.9 213.001 483.112 212.999 483.414 213.001 483.846 212.999 484.462 213.001 485.34 212.999 486.593 213.001 488.38 212.999 490.5 213.001" stroke="#0072BD" stroke-width="0.676115" stroke-linejoin="round" stroke-miterlimit="10" fill="none" fill-rule="evenodd"/></g></svg>