<?xml version="1.0" encoding="UTF-8" standalone="no"?>
<svg
   xmlns:dc="http://purl.org/dc/elements/1.1/"
   xmlns:cc="http://creativecommons.org/ns#"
   xmlns:rdf="http://www.w3.org/1999/02/22-rdf-syntax-ns#"
   xmlns:svg="http://www.w3.org/2000/svg"
   xmlns="http://www.w3.org/2000/svg"
   xmlns:sodipodi="http://sodipodi.sourceforge.net/DTD/sodipodi-0.dtd"
   xmlns:inkscape="http://www.inkscape.org/namespaces/inkscape"
   inkscape:version="1.0 (4035a4fb49, 2020-05-01)"
   height="15.136767"
   width="15.521"
   sodipodi:docname="github.svg"
   id="svg4"
   version="1.1"
   viewBox="0 0 15.521 15.136767">
  <metadata
     id="metadata10">
    <rdf:RDF>
      <cc:Work
         rdf:about="">
        <dc:format>image/svg+xml</dc:format>
        <dc:type
           rdf:resource="http://purl.org/dc/dcmitype/StillImage" />
        <dc:title></dc:title>
      </cc:Work>
    </rdf:RDF>
  </metadata>
  <defs
     id="defs8" />
  <sodipodi:namedview
     inkscape:current-layer="svg4"
     inkscape:window-maximized="1"
     inkscape:window-y="-9"
     inkscape:window-x="-9"
     inkscape:cy="7.569"
     inkscape:cx="7.761"
     inkscape:zoom="51.875"
     fit-margin-bottom="0"
     fit-margin-right="0"
     fit-margin-left="0"
     fit-margin-top="0"
     showgrid="false"
     id="namedview6"
     inkscape:window-height="1001"
     inkscape:window-width="1920"
     inkscape:pageshadow="2"
     inkscape:pageopacity="0"
     guidetolerance="10"
     gridtolerance="10"
     objecttolerance="10"
     borderopacity="1"
     bordercolor="#666666"
     pagecolor="#ffffff" />
  <path
     id="path2"
     d="M 7.76,0 C 3.475,0 0,3.474 0,7.761 c 0,3.428 2.223,6.337 5.307,7.363 0.388,0.071 0.53,-0.168 0.53,-0.374 0,-0.184 -0.007,-0.672 -0.01,-1.32 C 3.668,13.899 3.213,12.39 3.213,12.39 2.86,11.494 2.351,11.255 2.351,11.255 1.646,10.774 2.404,10.783 2.404,10.783 c 0.779,0.055 1.189,0.8 1.189,0.8 0.692,1.186 1.816,0.843 2.258,0.645 C 5.922,11.726 6.122,11.385 6.344,11.191 4.621,10.994 2.81,10.329 2.81,7.355 2.81,6.508 3.112,5.815 3.609,5.273 3.529,5.076 3.262,4.287 3.685,3.219 c 0,0 0.652,-0.209 2.134,0.796 C 6.438,3.842 7.101,3.756 7.761,3.753 8.42,3.756 9.084,3.842 9.704,4.014 11.186,3.01 11.836,3.218 11.836,3.218 c 0.423,1.068 0.157,1.857 0.077,2.054 0.497,0.542 0.798,1.235 0.798,2.082 0,2.981 -1.814,3.637 -3.543,3.829 0.279,0.24 0.527,0.713 0.527,1.437 0,1.037 -0.01,1.874 -0.01,2.129 0,0.208 0.14,0.449 0.534,0.373 C 13.3,14.094 15.521,11.187 15.521,7.76 15.521,3.475 12.046,0 7.76,0 Z"
     fill="#eeeeee" />
  <path
     id="path835"
     d="M 5.2882962,15.115582 C 5.1538133,15.078617 4.7049946,14.900151 4.4681823,14.789475 3.2296321,14.210632 2.1078133,13.25155 1.3369197,12.112449 0.64092867,11.084027 0.22802626,9.9882565 0.05708368,8.715988 0.01880885,8.4311213 0.01307375,8.3063693 0.01321642,7.7617711 0.01335634,7.2276572 0.01962,7.0879631 0.05568997,6.8145127 0.17213027,5.9317655 0.40532042,5.1406655 0.77361305,4.378951 1.3294506,3.2293501 2.2097786,2.1887272 3.2623432,1.4370599 5.2704097,0.00304036 7.8717516,-0.38528923 10.218933,0.39857679 c 1.114323,0.37213995 2.096899,0.97284421 2.947109,1.80173441 1.306569,1.2738042 2.081786,2.8498034 2.308925,4.69399 0.04859,0.3944908 0.04859,1.340449 0,1.7349398 -0.16,1.2990718 -0.595799,2.470929 -1.301158,3.498795 -0.302811,0.441264 -0.532291,0.714876 -0.946489,1.128509 -0.793514,0.792432 -1.707445,1.382029 -2.748248,1.772955 -0.22605,0.0849 -0.290733,0.101402 -0.398288,0.101582 -0.1637661,2.73e-4 -0.2839203,-0.06333 -0.3487322,-0.1846 l -0.043341,-0.0811 v -1.291567 c 0,-1.161408 -0.00342,-1.307321 -0.033966,-1.447905 C 9.5806698,11.784959 9.4601435,11.51706 9.2856541,11.305518 L 9.1836897,11.181906 9.4747546,11.139358 C 11.114589,10.899644 12.065025,10.20835 12.480674,8.9530214 12.638611,8.4760265 12.693796,8.0814515 12.694464,7.4244217 12.694923,6.9731319 12.690586,6.9030588 12.650926,6.7208072 12.538795,6.2055207 12.314983,5.7405965 12.008196,5.3856614 l -0.09599,-0.1110494 0.04012,-0.1205502 c 0.133786,-0.4020262 0.148541,-0.9311495 0.03965,-1.4220534 -0.03555,-0.1602923 -0.14122,-0.4941301 -0.163433,-0.5163426 -0.01901,-0.019014 -0.321816,-0.00901 -0.453091,0.014973 -0.350117,0.063958 -0.945143,0.321762 -1.3783134,0.5971748 C 9.6742434,4.0331164 9.7336535,4.0179018 9.4836144,3.9593264 8.870717,3.8157462 8.416504,3.7643303 7.761,3.7643303 c -0.6618824,0 -1.193508,0.062086 -1.7613799,0.2057035 l -0.1806569,0.045689 -0.1384785,-0.0904 C 5.1432965,3.574643 4.6029489,3.3264101 4.1908383,3.2409873 4.0033133,3.2021169 3.7043355,3.1986561 3.6816429,3.2350929 3.6499633,3.2859598 3.5488683,3.6316431 3.5078846,3.829241 c -0.032838,0.1583259 -0.042384,0.2737831 -0.043831,0.5301204 -0.00198,0.3514345 0.018885,0.5151719 0.097712,0.7666744 l 0.046953,0.1498066 -0.09545,0.1104343 C 3.2071031,5.740505 2.9833622,6.2053944 2.8709896,6.7208072 2.831431,6.902248 2.826867,6.9741412 2.8269325,7.4147831 2.8270482,8.2558175 2.9385067,8.8128149 3.2229846,9.3941624 3.5181144,9.9972778 3.952926,10.42096 4.5952924,10.731344 c 0.3976286,0.19213 0.9648486,0.35337 1.4885992,0.423153 0.2671984,0.0356 0.2545642,0.02155 0.1433401,0.15937 -0.1667129,0.206572 -0.280625,0.45196 -0.3376773,0.727422 -0.018665,0.09012 -0.04134,0.173673 -0.050389,0.185673 -0.024798,0.03288 -0.3492143,0.135067 -0.5456349,0.171862 -0.2326542,0.04358 -0.5802718,0.03033 -0.7710843,-0.0294 C 4.1347966,12.24808 3.8415268,11.996728 3.5775548,11.559589 3.4902873,11.415074 3.2577913,11.164091 3.109101,11.053887 2.9784782,10.957074 2.7648055,10.856051 2.6048556,10.815483 c -0.1508952,-0.03827 -0.3858124,-0.02963 -0.4762244,0.01752 -0.1563049,0.08151 -0.080888,0.211184 0.2544147,0.437444 0.3470072,0.234158 0.5812651,0.545368 0.8147092,1.082336 0.1300871,0.299226 0.2339015,0.461388 0.4009455,0.626291 0.2650927,0.261695 0.5944542,0.42743 0.9950803,0.500724 0.2516442,0.04604 0.7061309,0.0418 0.998198,-0.0093 0.1217372,-0.0213 0.2231391,-0.03693 0.2253372,-0.03473 0.0022,0.0022 0.00669,0.324764 0.00998,0.716812 l 0.00599,0.712816 -0.051122,0.08695 c -0.090941,0.154683 -0.2880061,0.21982 -0.4938679,0.163236 z"
     style="font-variation-settings:'wdth' 100, 'wght' 400;opacity:0.996;fill:#171515;stroke-width:0.0364292;paint-order:markers stroke fill;fill-opacity:1" />
  <path
     id="path837"
     d="M 5.1393133,15.05144 C 3.6251887,14.522936 2.2187374,13.420117 1.3075095,12.046867 0.65262319,11.059932 0.2696417,10.052325 0.07811095,8.8123735 0.02591266,8.4744469 0.00340119,7.47122 0.03898587,7.0687587 0.17415339,5.5400201 0.76913795,4.0849175 1.759124,2.8619648 2.0030968,2.5605796 2.6189003,1.9512244 2.9320843,1.701287 4.0715891,0.79190217 5.3734326,0.25183119 6.8935301,0.05787732 7.2330999,0.01455059 8.1983702,0.00856001 8.5513614,0.04758863 10.399803,0.25196241 12.021361,1.0399863 13.303354,2.3569017 c 1.188938,1.2213257 1.883041,2.6420447 2.141437,4.3831826 0.04936,0.3325863 0.07073,1.2267098 0.0394,1.6481928 -0.06863,0.9232395 -0.337966,1.9019679 -0.763901,2.7759039 -0.380204,0.780103 -0.834018,1.413432 -1.464648,2.044017 -0.468218,0.468185 -0.859547,0.785118 -1.37898,1.116821 -0.457959,0.292447 -1.303752,0.690227 -1.648521,0.775307 -0.222239,0.05484 -0.410746,-0.0097 -0.4916748,-0.168326 -0.036763,-0.07206 -0.03813,-0.117733 -0.038452,-1.285124 -1.927e-4,-0.665723 -0.00892,-1.29189 -0.019405,-1.391481 C 9.6444402,11.930976 9.5012961,11.572497 9.304958,11.319653 9.212803,11.200976 9.208872,11.173819 9.283847,11.173819 c 0.095716,0 0.6273843,-0.100338 0.874933,-0.16512 0.698008,-0.182664 1.198115,-0.45103 1.612753,-0.865431 0.450043,-0.4497859 0.734983,-1.0363621 0.86665,-1.7840797 0.07423,-0.4215232 0.08597,-1.3578754 0.02066,-1.6479878 -0.108743,-0.4830934 -0.325319,-0.93745 -0.621278,-1.3033826 -0.05669,-0.070096 -0.103076,-0.1371936 -0.103076,-0.1491063 0,-0.011913 0.0207,-0.093356 0.046,-0.1809866 0.0253,-0.08763 0.05695,-0.2400006 0.07034,-0.3386012 0.03222,-0.2373007 0.01351,-0.7042391 -0.03801,-0.9485225 -0.05156,-0.2444988 -0.158455,-0.5602093 -0.198163,-0.5852564 -0.02235,-0.014098 -0.104732,-0.013618 -0.273366,0.0016 -0.194767,0.017571 -0.287122,0.037232 -0.478305,0.1018248 C 10.764266,3.409693 10.310165,3.6281674 9.9764433,3.8315195 9.6780419,4.0133493 9.7459633,4.0070601 9.2356988,3.9001086 8.713635,3.790684 8.4214995,3.7637088 7.761,3.7639376 7.0238364,3.7641921 6.6347051,3.8074655 6.0207373,3.9574592 L 5.8226432,4.005854 5.6448336,3.8919868 C 5.2344377,3.6291741 4.830316,3.4294231 4.4729873,3.3127617 4.1940356,3.221689 3.9073547,3.1801335 3.7513614,3.2081593 l -0.077108,0.013853 -0.060727,0.1831326 c -0.1261982,0.38057 -0.1509914,0.5452196 -0.1494928,0.992771 0.00127,0.3805564 0.00455,0.4163731 0.054652,0.5975904 0.029313,0.1060241 0.057796,0.2122624 0.063295,0.236085 0.00744,0.032231 -0.016949,0.076624 -0.095314,0.173494 -0.2993989,0.3700968 -0.5068046,0.8047217 -0.6255421,1.310843 -0.048804,0.208027 -0.048475,1.1305048 5.301e-4,1.4892166 0.1062951,0.7780553 0.39679,1.4304917 0.8462514,1.9006371 0.4259662,0.445568 0.9692724,0.735554 1.7495175,0.933792 0.1893817,0.04812 0.3201214,0.07288 0.7662272,0.145124 0.034458,0.0056 0.062651,0.01691 0.062651,0.02518 0,0.0083 -0.039878,0.06639 -0.088617,0.129156 -0.1263283,0.162685 -0.2480868,0.427385 -0.3086165,0.670923 l -0.052103,0.209632 -0.08599,0.03804 c -0.047295,0.02092 -0.1856737,0.06321 -0.307509,0.09398 -0.3716263,0.09385 -0.7958215,0.07441 -1.0724243,-0.04915 C 4.0887465,12.176356 3.8734565,11.97816 3.6255504,11.616162 3.3317738,11.187184 3.0564086,10.957099 2.6912421,10.835488 2.5565533,10.790633 2.5135299,10.78512 2.349603,10.791704 c -0.2097739,0.0084 -0.289569,0.04489 -0.3006441,0.137372 -0.00809,0.06756 0.1104548,0.194855 0.3131443,0.336271 0.3442408,0.240176 0.5441411,0.499787 0.8073219,1.04847 0.1938616,0.404166 0.2720264,0.524141 0.4522407,0.694146 0.2460741,0.232134 0.5572444,0.391153 0.9222007,0.471278 0.2078387,0.04563 0.7876673,0.04594 1.0560158,5.72e-4 0.1048798,-0.01773 0.1951597,-0.02777 0.2006219,-0.02231 0.015151,0.01515 0.0302,1.348239 0.015864,1.405355 -0.01835,0.07311 -0.1254229,0.186471 -0.2142402,0.226819 -0.1175717,0.05341 -0.225894,0.04446 -0.462816,-0.03823 z"
     style="font-variation-settings:'wdth' 100, 'wght' 400;fill:#171515;fill-opacity:1;stroke-width:0.0364292;paint-order:markers stroke fill" />
</svg>
